<?xml version="1.0" standalone="no"?>
<!DOCTYPE svg PUBLIC "-//W3C//DTD SVG 20010904//EN"
 "http://www.w3.org/TR/2001/REC-SVG-20010904/DTD/svg10.dtd">
<svg version="1.0" xmlns="http://www.w3.org/2000/svg"
 width="1139.000000pt" height="1280.000000pt" viewBox="0 0 1139.000000 1280.000000"
 preserveAspectRatio="xMidYMid meet">
<g transform="translate(0.000000,1280.000000) scale(0.100000,-0.100000)"
fill="#000000" stroke="none">
<path d="M9515 12786 c-18 -13 -18 -14 6 -47 13 -18 35 -58 50 -89 l26 -55
-40 -49 c-46 -55 -192 -186 -208 -186 -13 0 -48 78 -49 108 0 18 -6 22 -29 22
-16 0 -39 -8 -51 -18 -20 -16 -22 -27 -21 -86 1 -38 3 -72 6 -75 2 -4 -54 -65
-124 -135 l-129 -129 -25 19 c-36 27 -50 53 -57 103 -6 56 -23 62 -44 17 -18
-39 -22 -88 -11 -163 6 -44 3 -58 -14 -86 -31 -51 -156 -167 -180 -167 -19 0
-21 6 -21 69 0 76 -11 93 -42 65 -30 -28 -39 -50 -48 -115 -8 -54 -18 -71
-114 -202 -74 -101 -144 -181 -238 -272 -144 -141 -158 -163 -158 -257 0 -63
37 -401 75 -683 29 -221 48 -457 43 -550 l-3 -69 -72 -37 c-40 -21 -105 -62
-143 -92 -172 -134 -577 -516 -637 -602 -12 -16 -24 -27 -28 -23 -9 9 23 62
76 125 75 91 38 102 -44 13 -55 -59 -86 -78 -72 -42 4 9 12 52 18 95 9 65 16
84 44 116 47 56 44 75 -7 46 -32 -18 -70 -19 -70 -1 0 7 14 41 32 75 17 33 29
64 25 67 -3 3 -18 -3 -34 -14 -40 -29 -72 -37 -79 -19 -7 19 18 77 50 120 15
19 26 39 26 46 0 6 7 23 16 36 28 42 -4 29 -54 -22 l-47 -48 -3 32 c-2 20 9
59 28 102 40 91 55 210 41 313 -17 122 -71 225 -188 354 -267 296 -391 389
-563 424 -78 15 -97 23 -125 51 -19 19 -42 42 -52 52 -138 137 -145 151 -83
172 43 14 52 51 20 80 -40 36 -12 82 63 100 48 12 60 39 28 61 -30 22 -26 38
18 68 21 15 49 38 61 51 21 22 22 27 10 50 -12 22 -11 30 3 60 9 20 17 42 17
50 0 26 -43 16 -89 -20 -24 -19 -50 -35 -57 -35 -8 0 -25 18 -39 40 -27 43
-53 51 -76 24 -12 -14 -10 -24 14 -65 15 -27 27 -53 27 -57 0 -5 -13 -18 -30
-30 -28 -21 -32 -21 -58 -8 -56 29 -70 -25 -25 -101 l26 -45 -21 -44 c-12 -24
-28 -44 -37 -44 -8 0 -23 16 -33 36 l-18 36 -27 -32 c-26 -30 -26 -32 -11 -68
8 -20 24 -47 36 -59 18 -19 19 -25 8 -58 -7 -20 -18 -39 -24 -41 -7 -3 -36 11
-65 31 -30 19 -64 38 -77 41 -28 7 -137 -30 -156 -54 -20 -24 -89 -72 -105
-72 -39 0 19 71 156 192 38 33 42 68 7 68 -18 0 -48 -25 -112 -95 -49 -52 -95
-95 -104 -95 -35 0 -96 94 -120 184 -12 46 -20 62 -35 64 -11 2 -31 14 -43 25
-19 18 -23 29 -19 59 3 22 1 38 -6 41 -6 2 -11 26 -11 54 -1 50 -14 81 -23 55
-3 -7 -16 -25 -29 -40 l-24 -27 -6 23 c-7 25 -8 26 -35 12 -23 -13 -24 -5 -4
50 18 50 18 92 2 139 -24 69 -50 39 -51 -59 -1 -37 -4 -44 -18 -42 -29 5 -58
-17 -58 -42 0 -28 51 -76 80 -76 11 0 24 -9 30 -20 6 -11 17 -20 25 -20 21 0
19 -15 -8 -46 -20 -23 -26 -25 -46 -15 -30 16 -51 7 -51 -22 0 -31 29 -57 63
-57 66 0 99 -35 72 -76 -22 -34 -19 -42 23 -53 47 -13 85 -51 113 -116 12 -27
33 -62 46 -77 l26 -27 -36 -33 c-19 -19 -46 -58 -60 -88 -34 -78 -47 -86 -99
-66 -54 22 -210 22 -292 1 -85 -22 -306 -139 -372 -196 -30 -27 -59 -49 -64
-49 -17 0 -113 -95 -154 -154 -60 -84 -95 -157 -111 -230 -7 -33 -19 -76 -25
-95 -10 -26 -10 -55 0 -138 11 -87 18 -112 42 -146 68 -98 123 -185 140 -225
18 -40 18 -45 4 -68 -9 -13 -21 -24 -26 -24 -11 0 -77 87 -126 164 -16 25 -32
46 -36 46 -15 0 -7 -86 11 -127 11 -23 43 -76 72 -119 36 -54 53 -90 57 -121
3 -27 1 -43 -6 -43 -6 0 -39 33 -73 73 -86 99 -109 116 -109 78 0 -11 11 -33
25 -49 14 -17 25 -33 25 -38 0 -4 17 -28 38 -53 54 -65 85 -119 78 -136 -9
-24 -28 -17 -72 26 l-42 42 -28 -22 c-14 -11 -30 -21 -33 -21 -4 0 -41 22 -83
49 -42 27 -105 64 -139 82 -35 17 -66 35 -69 39 -3 4 -33 25 -67 46 -105 66
-198 132 -217 153 -10 11 -40 27 -67 36 -54 18 -84 49 -114 114 -19 43 -19 43
3 155 12 61 27 165 33 231 6 66 15 140 20 165 5 25 14 79 20 120 5 41 16 107
24 145 40 189 48 243 61 410 7 99 16 201 20 227 4 26 3 64 -1 84 l-7 37 -18
-28 c-11 -16 -31 -35 -45 -43 -26 -13 -29 -12 -69 31 -24 24 -58 71 -77 103
-18 32 -60 86 -94 120 -86 88 -125 155 -160 277 -7 26 -19 55 -25 63 -20 23
-48 16 -65 -16 -19 -37 -32 -37 -81 -2 -28 21 -57 61 -104 146 -36 65 -75 130
-86 144 l-22 27 -20 -25 -20 -25 -49 51 c-72 76 -93 101 -93 112 0 6 -15 27
-34 46 -27 30 -40 36 -74 36 -36 0 -45 6 -91 56 -33 36 -56 72 -64 102 -14 46
-15 47 -60 52 -39 5 -53 14 -104 66 -39 40 -72 64 -100 73 -69 23 -96 71 -40
71 32 0 67 27 67 52 0 21 -7 22 -84 2 -20 -5 -26 -2 -26 10 0 21 -6 20 -47 -5
-35 -22 -113 -112 -113 -131 0 -6 -11 -25 -23 -42 -70 -93 -60 -221 16 -214
23 2 31 7 27 18 -2 8 -4 40 -5 70 0 69 15 74 76 25 24 -19 53 -35 65 -35 11 0
29 -9 38 -19 10 -11 42 -31 72 -45 30 -14 56 -32 58 -39 3 -6 7 -23 10 -37 4
-19 24 -36 78 -66 78 -44 92 -61 56 -66 -18 -2 -24 -10 -26 -35 -3 -29 0 -33
21 -33 41 0 163 -68 222 -123 l55 -53 0 -71 0 -70 70 -5 c59 -5 79 -11 125
-42 30 -20 76 -56 102 -81 l48 -46 -39 -22 c-50 -28 -65 -51 -50 -74 12 -20
54 -30 54 -14 0 16 55 13 96 -4 44 -18 241 -172 308 -240 100 -102 107 -110
95 -122 -6 -6 -20 -41 -30 -79 -10 -37 -21 -69 -23 -71 -11 -11 -29 13 -66 85
-22 42 -49 93 -60 112 -11 19 -22 39 -24 45 -3 6 -9 4 -15 -5 -23 -33 13 -133
90 -252 66 -99 79 -146 86 -303 6 -133 -12 -474 -26 -488 -10 -10 -91 49 -91
67 0 8 -5 18 -11 22 -9 5 -11 -6 -7 -37 4 -31 19 -65 52 -112 42 -63 46 -73
45 -125 -2 -77 -22 -187 -34 -186 -5 0 -20 16 -33 35 -34 50 -42 47 -42 -14 0
-61 19 -92 51 -84 28 7 32 -7 19 -69 -8 -39 -16 -54 -25 -50 -7 2 -33 10 -56
16 -24 7 -66 18 -94 25 -66 18 -143 26 -149 17 -5 -8 11 -31 35 -50 9 -7 54
-19 100 -27 163 -29 209 -55 209 -120 0 -17 7 -41 16 -53 9 -13 14 -26 10 -29
-3 -3 -39 0 -81 6 -110 16 -137 15 -133 -6 5 -27 48 -42 145 -54 48 -6 106
-19 129 -30 43 -20 92 -76 78 -88 -5 -4 -44 -13 -86 -20 -63 -10 -85 -10 -113
0 -31 12 -37 11 -53 -5 -16 -17 -16 -19 13 -42 41 -33 84 -39 179 -24 44 7 95
14 111 17 25 4 37 -3 78 -45 l49 -49 -69 -18 c-37 -10 -103 -28 -147 -41 -70
-22 -85 -23 -139 -14 -63 12 -85 5 -74 -24 9 -23 50 -36 110 -36 59 1 161 21
194 38 12 7 35 12 50 12 16 0 38 7 49 15 42 32 160 -1 152 -43 -3 -14 -22 -19
-98 -29 -52 -6 -96 -12 -97 -12 -2 -1 -3 -8 -3 -16 0 -43 134 -62 219 -31 42
16 45 15 58 -4 8 -11 24 -20 37 -20 12 0 31 -6 42 -14 18 -14 17 -16 -22 -53
-22 -21 -72 -55 -112 -76 -39 -21 -74 -42 -77 -47 -3 -6 5 -15 19 -21 31 -14
59 3 194 119 48 41 97 78 110 83 37 14 92 11 92 -5 0 -8 6 -16 13 -19 7 -2
-16 -35 -58 -83 -78 -87 -140 -164 -132 -164 3 0 42 23 86 51 90 58 121 60
121 8 0 -37 -20 -78 -71 -141 -37 -47 -56 -85 -46 -94 2 -3 43 36 91 87 99
106 86 105 195 2 45 -44 61 -65 61 -86 0 -15 -3 -27 -7 -27 -3 0 -34 27 -69
60 -65 63 -70 65 -94 50 -12 -8 -11 -13 11 -37 14 -15 40 -48 58 -73 17 -25
47 -64 66 -88 34 -42 45 -72 26 -72 -17 0 -108 79 -167 144 -53 59 -60 64 -71
49 -31 -42 -7 -85 127 -227 78 -84 109 -132 93 -147 -4 -4 -48 -18 -98 -32
-49 -13 -104 -30 -121 -37 -28 -12 -34 -11 -62 8 -67 48 -88 17 -42 -63 45
-79 39 -95 -52 -129 -40 -14 -118 -52 -173 -84 l-100 -57 -117 -1 c-65 0 -120
-3 -123 -6 -3 -3 15 -13 40 -22 25 -10 45 -22 45 -27 0 -13 -68 -54 -201 -119
-109 -54 -156 -69 -261 -85 -29 -5 -38 -11 -38 -25 0 -25 -53 -59 -190 -120
-115 -52 -174 -68 -184 -51 -13 20 -45 12 -52 -13 -8 -34 -32 -53 -86 -67 -43
-12 -54 -11 -118 10 -93 31 -120 22 -120 -39 0 -63 -28 -70 -280 -77 -113 -3
-222 -3 -242 1 -35 6 -36 8 -31 39 6 43 -40 90 -83 85 -40 -4 -42 -32 -5 -67
27 -25 29 -30 16 -41 -24 -20 -126 -6 -253 33 -120 38 -126 41 -257 130 -91
62 -127 70 -133 30 -2 -16 5 -26 26 -37 51 -26 139 -139 130 -166 -2 -5 -25 8
-53 30 -27 22 -66 43 -85 46 -19 4 -55 14 -80 24 -25 9 -80 27 -122 39 -43 11
-100 35 -127 51 -49 31 -75 37 -86 21 -3 -5 23 -42 57 -81 80 -93 80 -110 5
-189 -58 -61 -66 -78 -45 -99 18 -18 45 -15 91 12 23 14 69 29 102 35 33 5 73
14 89 20 31 13 153 17 184 7 28 -9 35 -36 16 -57 -15 -17 -15 -20 0 -44 20
-30 40 -31 101 -5 26 11 60 20 76 20 15 0 70 9 122 21 74 16 99 18 122 9 l30
-11 -49 -43 c-50 -43 -55 -66 -15 -66 11 0 33 7 49 15 15 8 55 18 87 21 45 6
64 14 86 36 34 33 43 35 50 8 5 -18 13 -20 84 -20 121 0 257 18 315 40 72 28
176 37 203 17 17 -13 18 -18 7 -39 -7 -13 -40 -52 -73 -87 -60 -62 -85 -120
-60 -135 5 -4 56 36 113 89 117 109 163 135 234 135 99 0 116 -17 62 -61 -28
-23 -30 -29 -19 -43 7 -9 19 -16 27 -16 7 0 62 42 121 93 133 113 157 131 207
147 22 7 89 37 150 66 120 58 141 62 189 38 l31 -17 71 76 c78 84 176 159 350
267 63 40 115 76 115 81 0 5 34 32 76 59 75 49 129 68 160 56 25 -10 -28 -94
-133 -210 -201 -222 -500 -605 -588 -755 -26 -44 -51 -81 -55 -81 -4 0 -13
-13 -20 -29 -6 -16 -20 -37 -31 -47 -10 -9 -19 -25 -19 -35 0 -10 -19 -41 -42
-68 -94 -109 -198 -281 -333 -552 -32 -63 -89 -168 -127 -234 -39 -66 -88
-150 -109 -187 -23 -38 -92 -123 -160 -195 -66 -70 -136 -153 -156 -183 -20
-30 -69 -98 -108 -150 -39 -52 -82 -113 -95 -135 -32 -55 -173 -265 -234 -351
-56 -77 -68 -95 -94 -138 -9 -15 -43 -69 -75 -120 -32 -50 -69 -116 -83 -146
-36 -77 -83 -172 -94 -190 -19 -30 -148 -327 -178 -410 -47 -131 -80 -279
-102 -461 -11 -91 -32 -235 -47 -320 -14 -85 -27 -188 -28 -229 -1 -41 -10
-106 -20 -145 -15 -59 -18 -111 -19 -330 -1 -241 1 -266 22 -350 27 -102 78
-207 124 -254 74 -76 245 -151 342 -151 101 0 422 73 481 110 17 10 98 54 180
98 405 215 464 247 510 282 28 21 69 47 93 59 23 12 71 45 105 74 34 29 98 80
142 112 44 32 112 84 150 115 39 31 107 83 153 114 46 32 108 81 138 108 30
28 56 49 58 47 36 -48 56 -82 66 -114 7 -22 19 -49 26 -60 9 -12 14 -50 15
-100 2 -105 10 -140 32 -140 34 0 17 -20 -20 -23 -45 -4 -89 -42 -139 -119
-19 -29 -43 -57 -54 -63 -11 -6 -26 -25 -34 -43 -19 -45 -99 -117 -131 -117
-51 0 -123 -55 -112 -84 4 -9 27 -21 52 -27 25 -6 48 -16 51 -21 4 -5 -8 -29
-25 -51 -17 -23 -53 -73 -80 -112 -63 -90 -76 -101 -136 -110 -57 -8 -85 -28
-85 -60 0 -27 15 -41 53 -50 43 -11 35 -33 -55 -140 -106 -127 -104 -125 -135
-125 -17 0 -45 -10 -64 -23 -33 -22 -72 -84 -62 -99 2 -5 26 -8 54 -8 36 0 49
-4 49 -15 0 -37 -157 -145 -211 -145 -13 0 -49 2 -80 6 -87 10 -90 -27 -7 -83
29 -20 44 -38 51 -63 12 -46 19 -53 82 -89 30 -17 62 -45 75 -66 12 -19 30
-40 41 -46 30 -16 34 12 15 110 -9 47 -16 95 -16 105 0 11 -15 32 -32 47 -24
20 -30 30 -22 39 8 8 21 7 48 -7 49 -23 66 -11 84 58 19 75 45 89 86 44 39
-42 67 -30 81 35 12 56 33 88 75 116 21 14 43 38 48 53 13 36 77 99 105 103
20 3 23 12 32 108 10 103 11 107 46 142 22 22 50 69 73 124 20 49 44 97 53
106 18 20 48 24 58 8 3 -5 15 -10 25 -10 20 0 23 7 35 82 3 20 26 81 51 135
26 54 53 123 61 153 8 30 24 66 37 80 12 14 28 43 34 65 19 67 66 132 101 140
36 8 97 -9 126 -35 40 -35 105 -37 105 -3 0 8 -22 43 -48 77 -26 33 -53 72
-59 86 -6 14 -36 57 -68 95 -61 74 -85 119 -85 159 0 13 -12 39 -26 56 -15 17
-25 32 -23 34 2 2 72 40 155 84 83 45 166 97 186 116 19 19 72 53 116 75 96
48 168 109 398 334 94 92 178 167 187 167 8 0 29 12 46 26 17 14 35 23 41 19
6 -4 10 -55 10 -125 0 -65 4 -121 10 -125 16 -10 44 45 44 88 1 34 6 44 28 56
15 9 30 13 33 9 3 -3 10 -43 14 -88 11 -106 20 -115 69 -67 21 20 42 37 47 37
19 0 55 -79 55 -119 0 -30 6 -44 22 -55 15 -11 26 -12 32 -6 13 13 82 13 107
0 15 -9 19 -22 19 -69 0 -63 25 -111 59 -111 32 0 52 -24 55 -65 5 -62 35
-155 50 -155 18 0 26 23 33 97 3 35 9 63 14 63 4 0 16 -11 27 -24 15 -20 20
-48 25 -138 10 -187 36 -274 72 -237 11 11 11 33 3 117 -10 91 -9 105 5 120 9
9 19 13 22 10 8 -7 23 -113 31 -210 4 -55 11 -85 26 -103 10 -14 23 -25 28
-25 5 0 10 65 12 145 2 97 7 148 15 156 7 7 15 10 19 7 3 -4 12 -69 19 -145
13 -138 35 -217 67 -249 18 -19 38 -11 38 14 0 9 -11 40 -23 67 -21 46 -23 59
-18 165 l6 115 56 3 56 3 16 -103 c21 -129 34 -173 53 -193 42 -41 45 43 9
205 -14 61 -23 121 -20 131 7 22 61 53 80 45 7 -2 15 -26 18 -53 18 -167 82
-345 103 -288 11 28 -4 137 -29 210 -41 116 -42 140 -11 164 56 44 69 30 129
-135 38 -104 49 -124 71 -124 21 0 18 25 -20 172 -47 182 -53 226 -31 234 36
14 62 -13 96 -98 54 -133 102 -223 122 -226 20 -4 20 -4 -10 113 -8 33 -16 69
-18 80 -2 11 -10 37 -19 57 -9 20 -19 61 -22 91 l-7 55 58 -16 c39 -11 59 -22
65 -36 4 -12 15 -75 25 -140 18 -127 30 -166 52 -166 33 0 7 317 -38 457 l-30
94 32 40 c17 22 38 39 47 37 19 -4 80 -121 88 -170 4 -20 19 -51 35 -70 24
-28 30 -31 39 -18 12 17 6 73 -15 140 -48 152 -58 262 -29 328 9 21 22 52 30
69 27 64 69 36 100 -68 9 -30 23 -67 32 -84 9 -16 16 -38 17 -48 2 -25 30 -51
45 -42 9 6 10 29 5 86 -3 44 -3 79 2 79 5 0 51 -36 103 -80 52 -44 113 -89
136 -101 22 -12 50 -37 62 -55 11 -18 83 -78 159 -135 162 -120 213 -166 213
-191 0 -11 -9 -36 -20 -58 -15 -29 -28 -40 -52 -45 -40 -9 -134 -69 -142 -92
-13 -32 11 -35 62 -9 28 14 56 26 62 26 22 0 7 -42 -65 -183 -43 -84 -75 -160
-75 -177 0 -16 -4 -32 -10 -35 -13 -8 -13 -45 -1 -45 6 0 22 17 37 38 46 62
77 92 95 92 18 0 123 -148 168 -237 11 -23 25 -44 31 -48 5 -3 10 -14 10 -24
0 -10 22 -47 49 -82 65 -84 90 -150 101 -270 15 -156 60 -219 60 -85 0 41 4
77 10 81 5 3 32 -29 61 -72 29 -43 71 -103 94 -133 61 -80 87 -154 83 -232 -3
-70 2 -74 69 -47 31 13 34 12 68 -21 20 -19 55 -60 78 -90 23 -30 55 -67 71
-81 29 -25 29 -27 27 -122 l-2 -97 29 0 c16 0 41 9 54 20 l26 20 42 -33 c23
-17 70 -53 103 -78 77 -56 86 -89 37 -139 -35 -35 -39 -82 -8 -88 23 -4 98 56
98 79 0 33 38 106 66 126 22 17 28 29 32 75 6 74 -12 84 -39 21 -11 -26 -22
-49 -24 -51 -6 -6 -73 71 -92 105 -21 39 -67 63 -106 56 -32 -6 -31 2 16 81
35 61 29 82 -40 129 -27 17 -70 55 -98 84 -27 28 -84 79 -125 113 -41 34 -77
66 -78 71 -2 5 16 27 40 48 23 22 41 41 38 43 -3 2 -58 30 -122 62 -125 61
-154 86 -206 177 -42 74 -50 109 -28 125 26 19 16 56 -22 79 -83 50 -120 86
-179 174 -35 52 -87 124 -116 160 -103 127 -103 128 -52 234 19 39 35 81 35
92 1 30 26 94 45 115 16 18 20 18 45 5 16 -8 106 -77 202 -153 169 -134 290
-224 386 -289 26 -17 60 -42 76 -55 35 -28 46 -34 228 -125 154 -78 540 -235
678 -277 164 -49 300 -58 488 -31 124 18 169 36 242 99 30 27 69 55 85 63 35
17 75 70 75 99 0 10 13 39 30 64 50 76 55 122 42 388 -7 131 -17 257 -22 282
-5 25 -14 102 -19 171 -7 94 -17 150 -40 221 -16 53 -36 138 -42 189 -9 68
-21 114 -45 166 -19 39 -34 80 -34 92 0 21 -12 53 -98 271 -42 109 -91 210
-166 345 -93 170 -136 245 -170 299 -20 33 -36 64 -36 69 0 5 -19 34 -43 65
-24 31 -54 75 -67 97 -13 22 -49 76 -80 120 -31 44 -73 109 -93 145 -19 36
-59 92 -88 125 -29 33 -97 119 -150 191 -54 72 -111 142 -128 155 -32 26 -86
134 -97 196 -8 48 -15 60 -60 114 -20 24 -45 64 -56 89 -11 25 -43 77 -72 115
-30 39 -68 96 -85 127 -18 31 -39 62 -46 68 -8 7 -15 19 -15 26 0 8 -11 24
-25 36 -14 12 -25 31 -25 43 0 25 -14 47 -101 150 -73 88 -98 113 -131 129
-12 6 -25 25 -30 43 -5 19 -25 45 -49 65 -22 17 -54 55 -71 82 -17 28 -70 98
-118 156 -47 58 -100 125 -116 149 -16 25 -61 71 -99 102 -39 31 -104 96 -145
145 -41 48 -103 116 -137 150 -35 35 -63 67 -63 73 0 6 -14 18 -32 27 -17 9
-61 46 -97 83 -36 36 -90 87 -119 113 -47 41 -52 49 -42 67 15 29 25 27 78
-22 53 -49 257 -183 304 -199 23 -8 32 -8 38 3 12 19 8 23 -93 91 -104 70
-172 130 -193 169 -8 16 -14 30 -14 32 0 7 86 27 112 27 13 0 54 -21 92 -45
38 -25 73 -45 77 -45 4 0 51 -30 106 -66 265 -179 390 -244 472 -244 10 0 40
-16 67 -35 91 -65 218 -145 231 -145 7 0 21 5 31 11 13 8 39 4 106 -16 99 -28
98 -27 211 -136 89 -86 208 -170 306 -217 151 -72 161 -39 17 58 -107 72 -258
203 -258 225 0 32 76 38 290 26 113 -6 223 -15 245 -21 251 -60 276 -64 300
-45 20 15 19 16 -10 40 -29 25 -29 26 -11 40 14 11 47 15 117 15 79 0 114 -5
194 -30 100 -31 122 -34 149 -24 22 8 20 18 -10 53 -19 23 -22 32 -12 36 7 2
99 6 203 7 214 3 243 11 257 64 5 21 17 35 35 43 81 32 310 42 383 16 52 -18
50 -18 50 1 0 9 -20 39 -45 66 -70 78 -70 91 4 157 68 62 80 96 36 107 -30 7
-62 -11 -147 -87 -52 -47 -84 -65 -178 -102 -63 -25 -137 -49 -164 -53 l-49
-7 42 38 c47 43 52 78 13 83 -37 6 -84 -15 -142 -63 -60 -49 -166 -95 -267
-116 -59 -12 -65 -12 -90 7 -36 27 -39 42 -11 53 33 13 64 49 51 62 -14 14
-63 -7 -88 -38 -27 -33 -209 -82 -308 -83 -65 0 -67 1 -55 20 18 28 -1 54 -40
58 -25 3 -40 -5 -75 -37 -24 -22 -56 -45 -71 -50 -33 -13 -293 -34 -356 -29
-43 3 -44 4 -20 15 14 6 32 18 39 27 20 24 -6 30 -90 22 -62 -7 -72 -5 -101
16 -18 13 -51 31 -73 41 l-40 19 43 37 c23 20 39 40 36 44 -15 15 -169 7 -228
-12 -51 -16 -67 -17 -110 -6 -58 13 -87 27 -106 50 -17 21 -9 27 78 56 37 12
62 26 62 35 0 11 -22 14 -115 14 -63 0 -148 -5 -189 -11 -81 -12 -65 -16 -265
60 -25 9 -46 22 -48 28 -2 6 20 18 50 27 47 14 87 41 87 59 0 25 -183 35 -297
17 -62 -10 -63 -10 -151 34 -129 65 -148 83 -161 157 -6 34 -13 64 -16 67 -3
4 -20 0 -38 -7 -109 -44 -202 -27 -153 28 9 10 16 23 16 29 0 15 -56 16 -65 2
-10 -16 -57 -11 -70 7 -13 17 -14 17 -33 -1 -11 -10 -28 -32 -36 -50 -17 -35
-123 -106 -159 -106 -19 0 -20 5 -14 98 7 107 4 101 101 175 38 30 156 171
156 188 0 25 -34 4 -60 -39 -16 -27 -41 -54 -55 -60 -14 -6 -25 -16 -25 -22 0
-5 -6 -10 -14 -10 -7 0 -25 -9 -40 -21 -29 -23 -56 -19 -56 8 0 32 69 120 119
150 45 29 151 143 151 164 0 14 52 11 101 -6 86 -31 97 14 16 67 -79 53 -161
132 -155 149 3 8 17 21 31 28 23 12 29 12 49 -3 13 -9 46 -32 73 -51 28 -19
77 -55 111 -80 62 -46 116 -66 128 -46 11 18 -18 52 -111 126 -47 39 -96 82
-107 98 l-20 27 40 41 c45 46 40 46 201 9 78 -18 106 -21 115 -12 16 16 -2 35
-76 76 -87 49 -94 59 -72 101 10 19 29 44 42 56 l24 23 58 -19 c144 -46 287
-60 299 -29 8 21 -11 32 -67 40 -76 11 -163 43 -198 72 l-34 28 44 46 c24 26
63 70 87 97 l43 50 37 -18 c67 -35 164 -71 189 -71 46 0 14 32 -113 113 -57
37 -64 54 -35 85 l21 22 26 -20 c19 -15 41 -20 85 -20 57 0 118 20 118 39 0
12 -89 31 -141 31 l-40 0 7 178 c5 122 3 210 -6 281 l-12 102 31 40 c17 21 45
57 63 79 17 22 29 42 26 45 -3 3 -26 -4 -52 -16 -25 -13 -49 -20 -52 -16 -12
11 -26 200 -19 257 7 62 26 88 86 115 26 12 39 24 37 34 -4 17 -14 17 -85 5
-33 -5 -43 -3 -44 7 -2 48 3 203 7 212 3 7 23 24 44 39 70 49 119 149 57 117
-12 -7 -43 -30 -69 -51 -34 -28 -49 -36 -53 -26 -12 32 -24 231 -15 247 15 30
242 243 289 273 35 22 57 28 98 28 49 0 55 2 73 33 21 34 27 77 10 77 -19 0
-10 26 18 52 35 32 145 98 165 98 8 0 43 23 77 50 34 28 70 50 80 50 26 0 50
32 43 58 -12 47 148 162 224 162 22 0 42 8 56 23 12 13 37 33 55 46 38 26 39
37 11 67 -27 29 -20 41 73 130 74 70 121 94 184 94 83 1 96 24 52 92 -29 46
-31 53 -19 82 25 62 26 70 5 61 -51 -21 -70 -18 -84 15 -14 34 -93 100 -120
100 -9 0 -25 -6 -35 -14z m-7579 -251 c53 -27 133 -97 115 -103 -5 -2 -23 3
-38 12 -15 8 -51 26 -79 40 -57 27 -99 76 -66 76 10 0 40 -11 68 -25z m334
-286 c0 -5 -4 -9 -10 -9 -5 0 -10 7 -10 16 0 8 5 12 10 9 6 -3 10 -10 10 -16z
m6988 -51 c26 -26 10 -47 -94 -117 -134 -90 -147 -92 -95 -18 32 46 104 118
136 135 26 15 38 15 53 0z m-6739 -154 c34 -37 61 -75 61 -85 0 -22 -4 -23
-33 -8 -31 16 -137 121 -137 135 0 12 15 22 37 23 6 1 39 -29 72 -65z m6348
-201 c4 -12 -35 -29 -44 -19 -8 8 18 37 30 33 6 -2 12 -8 14 -14z m-6104 -35
c32 -43 50 -78 43 -85 -11 -11 -96 48 -102 72 -13 53 23 61 59 13z m323 -308
c71 -114 72 -132 1 -84 -69 46 -118 139 -90 168 17 17 39 -4 89 -84z m5434 60
c0 -5 -4 -10 -10 -10 -5 0 -10 5 -10 10 0 6 5 10 10 10 6 0 10 -4 10 -10z
m-385 -456 c44 -17 55 -97 60 -454 1 -124 6 -298 10 -387 6 -114 5 -163 -3
-163 -14 0 -19 39 -37 265 -9 105 -25 262 -36 350 -39 303 -42 353 -22 388 5
9 7 9 28 1z m-2339 -100 c38 -22 53 -26 91 -20 l46 6 -6 -33 c-7 -48 -47 -127
-63 -127 -7 0 -18 10 -25 21 -9 18 -17 20 -49 16 -30 -4 -37 -2 -33 9 8 20
-15 44 -42 44 -28 0 -88 -57 -81 -76 3 -8 2 -14 -3 -14 -14 0 -31 25 -37 58
-6 28 -2 34 55 78 34 26 61 51 61 56 0 16 42 7 86 -18z m-2364 -80 c5 -44 7
-115 3 -159 -9 -114 -44 -332 -61 -384 -7 -25 -14 -60 -14 -80 0 -44 -40 -273
-50 -284 -12 -14 -21 234 -10 303 18 121 24 354 10 418 -14 68 -5 128 32 214
20 48 53 75 71 58 5 -4 13 -43 19 -86z m2746 -66 c23 -18 50 -40 61 -48 41
-31 36 -58 -31 -171 -35 -58 -75 -120 -90 -138 -16 -18 -28 -42 -28 -53 0 -22
-44 -76 -135 -168 -31 -30 -72 -84 -93 -120 -30 -53 -46 -70 -87 -91 -37 -19
-51 -32 -53 -50 -3 -22 4 -27 50 -43 70 -24 100 -23 134 3 39 31 56 58 64 103
10 50 -6 60 -37 22 -13 -16 -28 -35 -34 -42 -11 -14 -29 -7 -29 10 0 7 28 39
63 73 34 33 69 72 78 85 22 33 34 20 20 -21 -14 -41 -14 -184 0 -263 11 -56
10 -65 -9 -102 -18 -36 -26 -42 -64 -48 -24 -4 -60 -19 -82 -34 -35 -24 -39
-25 -51 -9 -16 22 -28 21 -50 -3 -18 -20 -18 -21 3 -36 32 -22 28 -44 -9 -44
-25 0 -33 6 -42 30 -6 17 -15 30 -20 30 -5 0 -25 -13 -44 -30 -26 -23 -43 -30
-75 -30 -39 0 -40 1 -25 18 24 26 22 34 -17 71 -66 64 -71 120 -13 156 l32 20
6 130 c4 72 12 163 19 203 l13 73 46 -45 c42 -41 51 -46 93 -46 44 0 48 2 63
34 9 19 15 43 13 53 -4 21 -45 30 -61 14 -16 -16 -52 -14 -67 4 -19 23 -24 93
-10 136 12 35 11 41 -5 59 -16 17 -16 20 -2 20 19 0 47 -27 47 -45 0 -7 -7
-20 -15 -29 -47 -47 29 -66 83 -21 17 14 36 23 44 20 8 -3 26 4 41 15 33 26
111 166 103 185 -6 18 -49 20 -79 4 -18 -10 -24 -8 -44 15 -13 15 -23 33 -23
40 0 13 49 26 103 26 48 0 67 16 58 47 -11 39 -4 53 27 53 15 1 41 7 57 14 34
15 44 11 103 -36z m-711 2 c-13 -33 -8 -42 27 -45 41 -5 44 -11 34 -61 -6 -25
-7 -48 -4 -52 4 -3 21 -1 37 5 31 12 31 12 24 -15 -16 -66 -16 -92 5 -159 17
-57 20 -80 12 -115 l-9 -43 -12 30 c-7 17 -14 52 -16 79 -4 54 -15 72 -39 63
-19 -8 -21 -57 -5 -140 8 -44 7 -63 -3 -84 -22 -45 -35 -38 -43 23 -6 50 -19
90 -70 209 -7 17 -20 47 -29 68 -21 49 -21 111 0 128 9 8 25 34 36 59 30 69
79 115 55 50z m283 -99 c0 -17 5 -33 10 -36 6 -3 10 -26 10 -51 0 -47 11 -55
52 -33 29 16 35 2 10 -24 -12 -13 -22 -28 -22 -34 0 -14 -39 -48 -47 -40 -3 4
-1 19 6 33 15 33 9 41 -37 49 -60 10 -67 17 -47 55 16 32 16 33 -9 59 -14 15
-26 30 -26 33 0 9 28 15 68 17 29 1 32 -2 32 -28z m633 -121 c0 -35 -24 -66
-60 -75 -32 -8 -49 7 -28 25 8 7 15 18 15 25 0 8 12 28 26 45 31 36 47 29 47
-20z m155 8 c16 -16 15 -28 -3 -28 -8 0 -15 2 -15 4 0 2 -3 11 -6 20 -7 19 7
21 24 4z m-1322 -19 c8 -6 14 -17 14 -24 0 -10 -8 -11 -35 -3 -40 13 -65 -1
-65 -37 0 -33 -22 -37 -69 -13 -47 23 -49 28 -22 52 46 42 141 55 177 25z
m1282 -39 c35 -21 38 -35 20 -75 -18 -39 4 -56 35 -27 26 25 54 28 92 10 31
-14 32 -26 3 -30 -12 -2 -23 -8 -25 -15 -6 -16 71 -71 117 -83 43 -11 88 -55
99 -96 4 -17 15 -30 27 -32 37 -6 63 -25 79 -57 23 -50 20 -57 -20 -49 -44 8
-47 -9 -5 -26 38 -16 60 -46 60 -81 0 -34 -111 -155 -132 -144 -22 13 -58 48
-58 57 0 4 16 8 35 8 39 0 46 19 20 55 -10 13 -13 30 -9 53 l6 33 -34 -6 c-28
-5 -42 -1 -83 27 -27 19 -50 39 -52 45 -5 15 65 93 82 93 8 0 17 -9 20 -20 7
-23 72 -76 82 -67 17 17 -77 107 -112 107 -9 0 -42 -22 -72 -50 -30 -27 -58
-50 -63 -50 -17 0 -40 45 -40 77 0 25 -4 33 -18 33 -41 0 -81 -73 -128 -237
-6 -22 -32 -3 -39 28 -8 33 10 93 66 223 22 49 39 99 39 111 0 25 -24 53 -93
109 l-48 39 43 28 c51 34 63 35 106 9z m-1568 -10 c0 -6 -11 -15 -25 -20 -14
-5 -25 -15 -25 -22 1 -34 89 -108 129 -108 l25 0 -26 28 c-30 30 -52 79 -39
86 10 6 111 -52 111 -64 0 -5 -4 -12 -10 -15 -38 -24 30 -105 185 -222 88 -67
113 -91 144 -143 20 -33 28 -90 15 -103 -3 -3 -39 17 -79 45 -63 44 -76 49
-89 38 -9 -7 -16 -18 -16 -24 -1 -34 -17 -38 -68 -16 -71 31 -76 39 -53 91 25
57 37 119 23 119 -6 0 -26 -26 -45 -57 -36 -63 -58 -73 -107 -53 -15 6 -30 20
-33 31 -7 28 -26 23 -45 -12 -9 -17 -24 -40 -32 -50 -15 -19 -16 -19 -53 8
-46 33 -67 25 -83 -33 -6 -22 -18 -40 -27 -42 -9 -2 -65 22 -124 52 -59 31
-114 56 -123 56 -43 0 -53 54 -17 96 35 40 61 27 54 -26 -6 -50 7 -60 28 -20
15 28 30 39 78 54 16 5 15 10 -15 46 -18 22 -39 40 -45 40 -27 0 -11 30 47 86
33 33 65 61 71 62 14 5 79 -47 79 -64 0 -9 -10 -14 -29 -14 -36 0 -50 -19 -28
-35 23 -16 21 -28 -8 -75 -51 -81 -80 -190 -50 -191 14 -1 83 180 78 202 -7
27 20 25 97 -7 88 -36 99 -18 20 36 -33 23 -59 47 -57 53 9 28 60 17 162 -33
69 -35 110 -50 122 -45 16 6 13 11 -21 41 -22 19 -47 34 -56 34 -10 0 -28 8
-41 19 -13 10 -56 34 -95 54 -78 39 -103 62 -87 78 14 14 122 48 156 48 15 1
27 -4 27 -9z m315 -68 c59 -37 118 -112 101 -129 -18 -18 -143 60 -167 104
-23 43 14 57 66 25z m1067 -11 c70 -30 124 -98 103 -130 -3 -6 -24 -11 -46
-11 -21 0 -39 -3 -39 -6 0 -4 9 -22 21 -41 23 -36 22 -56 -2 -150 -15 -59 -24
-63 -82 -38 -53 22 -65 19 -82 -22 -22 -51 -36 -32 -43 57 -5 70 0 96 44 226
14 39 69 134 78 134 2 0 24 -8 48 -19z m511 -102 c54 -38 69 -61 48 -73 -10
-7 -97 67 -112 95 -15 29 2 23 64 -22z m-1632 0 c24 -18 73 -57 109 -87 36
-31 67 -57 69 -59 2 -2 1 -6 -2 -10 -4 -4 -20 3 -35 15 -15 11 -45 30 -67 41
-22 12 -71 46 -109 76 -65 52 -67 55 -39 55 18 0 48 -13 74 -31z m864 -89 c-5
-8 -11 -8 -17 -2 -6 6 -7 16 -3 22 5 8 11 8 17 2 6 -6 7 -16 3 -22z m523 -156
c26 -18 29 -46 6 -65 -14 -11 -19 -10 -35 10 -22 26 -25 71 -6 71 7 0 23 -7
35 -16z m-2164 -39 c11 -8 28 -15 38 -15 25 0 22 -17 -7 -36 -37 -24 -65 -10
-65 32 0 37 6 41 34 19z m580 -31 c18 -17 21 -60 6 -69 -16 -10 -49 4 -61 26
-24 45 20 79 55 43z m1734 -45 c5 -39 -20 -55 -52 -34 -14 10 -26 23 -26 29 0
21 24 37 50 34 18 -2 26 -10 28 -29z m-2159 11 c31 0 111 -81 111 -113 0 -27
-17 -47 -42 -47 -20 0 -38 28 -38 59 0 15 -10 23 -40 31 -41 11 -77 50 -65 70
4 7 17 9 29 6 11 -3 32 -6 45 -6z m239 -6 c18 -12 22 -25 22 -67 l0 -51 -35
34 c-41 39 -55 78 -34 91 19 12 21 11 47 -7z m1470 4 c18 -18 16 -108 -2 -108
-28 0 -41 26 -38 73 4 47 17 58 40 35z m1942 -19 c0 -5 -4 -9 -10 -9 -5 0 -10
7 -10 16 0 8 5 12 10 9 6 -3 10 -10 10 -16z m-1676 -15 c11 -30 6 -61 -13 -78
-25 -23 -41 -13 -41 25 0 56 39 93 54 53z m-1394 -20 c69 -28 49 -54 -41 -54
-55 0 -68 14 -49 49 13 25 36 26 90 5z m-742 -55 c4 -55 -16 -129 -29 -108
-10 16 -12 142 -2 153 15 15 28 -3 31 -45z m2272 -13 c13 -24 13 -28 0 -36
-23 -15 -60 -12 -60 5 0 24 23 66 34 62 6 -2 18 -16 26 -31z m-2150 -52 c0
-15 -25 -36 -33 -27 -9 9 -9 58 0 67 8 8 33 -22 33 -40z m2463 -24 c2 -54 2
-54 -32 -61 -41 -9 -58 -3 -72 23 -9 17 -4 26 36 65 28 27 51 41 56 36 5 -5
10 -33 12 -63z m-3697 -16 c-4 -18 -11 -34 -16 -34 -14 0 -12 47 2 73 15 28
22 8 14 -39z m1928 7 c52 -13 59 -22 39 -51 l-17 -24 -6 24 c-6 27 -34 36 -75
26 -42 -11 -40 -38 7 -79 l43 -38 -135 5 c-135 5 -372 30 -404 42 -82 32 200
101 419 103 50 0 107 -4 129 -8z m906 -16 c0 -9 -24 -39 -52 -68 -43 -43 -53
-49 -56 -33 -3 12 13 36 44 67 51 52 64 59 64 34z m-687 -58 c24 -47 11 -67
-42 -67 -41 0 -76 26 -92 67 -14 37 -3 44 59 41 55 -3 58 -4 75 -41z m828 23
c25 -14 24 -34 -6 -97 l-24 -53 -79 0 c-96 0 -172 10 -172 22 0 9 31 24 70 32
14 3 50 28 80 55 57 52 90 62 131 41z m380 -30 c85 -16 155 -30 157 -30 1 0 2
-4 2 -8 0 -23 -292 -72 -430 -72 -47 0 -60 3 -60 15 0 21 28 75 53 103 28 31
87 29 278 -8z m-701 -56 c0 -3 -5 -14 -10 -25 -8 -14 -21 -19 -53 -19 l-42 1
45 24 c46 25 60 29 60 19z m-1196 -84 c38 -11 71 -22 74 -25 3 -3 -9 -38 -26
-78 -62 -142 -72 -204 -82 -512 -4 -154 -12 -289 -16 -300 -4 -11 -22 -37 -40
-57 -18 -20 -63 -99 -99 -175 -37 -76 -69 -140 -71 -142 -2 -2 -13 8 -25 23
-12 15 -32 32 -45 36 -18 7 -24 17 -24 38 0 41 21 64 75 82 80 25 87 69 15 97
-82 33 -38 74 94 88 38 4 75 9 83 12 17 7 17 34 0 57 -13 18 -15 17 -41 -10
-25 -27 -28 -28 -40 -11 -15 19 -31 105 -22 114 3 3 19 0 36 -7 36 -15 60 -1
60 36 0 19 -7 26 -30 31 -16 3 -30 9 -30 13 0 14 61 98 75 104 20 7 19 50 -1
67 -15 12 -21 9 -48 -23 -17 -19 -49 -69 -72 -109 -48 -87 -64 -97 -64 -40 0
42 -7 50 -28 29 -9 -9 -15 -9 -23 -1 -19 19 -3 40 33 47 18 3 46 17 62 29 l29
24 -32 22 c-20 15 -31 31 -31 47 0 26 9 31 27 13 6 -6 23 -9 38 -7 21 2 38 18
72 67 24 35 42 69 40 75 -7 23 -43 16 -72 -14 -35 -37 -55 -39 -55 -5 0 48 54
118 129 168 40 26 65 119 39 145 -35 35 -105 1 -134 -66 l-12 -27 -1 25 c-1
37 -34 110 -50 110 -7 0 -27 -12 -43 -26 -32 -26 -41 -24 -53 14 -9 32 20 41
150 41 81 1 128 -4 179 -19z m2126 -60 c4 -28 11 -35 37 -42 44 -11 47 -21 23
-67 -11 -22 -20 -52 -20 -67 0 -40 -22 -16 -66 72 l-37 75 19 34 c22 42 37 40
44 -5z m1278 17 c6 -28 -22 -62 -82 -102 -53 -35 -102 -87 -161 -172 -58 -83
-224 -288 -268 -331 -34 -33 -57 -46 -98 -55 -48 -11 -55 -16 -64 -45 -11 -37
-18 -39 -45 -14 -19 18 -19 19 31 68 65 63 172 198 195 247 13 28 37 49 93 84
121 74 140 91 166 148 13 29 34 59 47 66 12 7 49 39 81 71 60 61 98 74 105 35z
m-1068 -7 c0 -5 -7 -10 -16 -10 -8 0 -12 5 -9 10 3 6 10 10 16 10 5 0 9 -4 9
-10z m-360 -39 c0 -16 -6 -34 -14 -40 -12 -10 -18 -7 -31 13 -22 33 -13 56 20
56 21 0 25 -5 25 -29z m-882 -3 c19 -19 14 -59 -13 -94 -28 -36 -30 -59 -13
-116 11 -36 10 -41 -13 -64 -22 -22 -28 -23 -56 -12 -36 13 -63 -1 -63 -33 0
-31 38 -42 150 -43 102 -1 107 0 139 27 18 15 39 27 46 27 13 0 45 -26 45 -36
0 -17 -23 -44 -37 -44 -24 0 -53 -30 -53 -56 0 -22 40 -44 81 -44 17 0 19 -9
19 -75 l0 -75 -35 -14 c-19 -8 -35 -19 -35 -23 0 -15 23 -33 42 -33 31 0 42
-40 42 -150 1 -100 0 -105 -20 -108 -28 -4 -58 -37 -51 -56 4 -9 22 -22 42
-30 27 -12 35 -21 35 -40 0 -23 -4 -26 -35 -26 -42 0 -75 -29 -75 -65 0 -35
31 -33 75 6 l35 31 0 -60 c0 -71 -13 -112 -35 -112 -9 0 -28 -12 -42 -26 -33
-33 -20 -50 30 -36 26 7 39 7 45 -1 13 -18 3 -249 -14 -309 -5 -16 -8 -17 -34
-3 -35 18 -58 11 -66 -22 -8 -32 2 -41 51 -45 33 -2 41 -7 43 -26 6 -41 -16
-55 -76 -49 -46 5 -59 11 -82 39 -25 30 -29 32 -54 20 -22 -10 -27 -18 -24
-39 2 -19 10 -29 23 -31 32 -6 38 -19 21 -43 -9 -13 -16 -36 -16 -51 0 -25 4
-28 30 -28 17 0 44 -9 59 -21 16 -12 44 -24 62 -28 l34 -7 3 -69 c1 -39 -1
-95 -5 -125 -8 -51 -11 -56 -46 -73 -20 -9 -37 -23 -37 -30 0 -20 21 -37 45
-37 12 0 24 -2 26 -5 6 -5 -8 -179 -16 -205 -6 -18 -15 -20 -84 -20 -113 0
-138 7 -150 41 -5 16 -15 29 -21 29 -23 0 -68 -30 -73 -49 -2 -10 -24 -31 -48
-46 -50 -32 -74 -25 -74 21 0 25 4 29 38 35 48 8 61 21 53 53 -8 31 -24 33
-68 6 l-33 -19 0 140 0 139 48 16 c52 17 67 36 47 59 -16 20 -49 19 -72 -2
-10 -9 -20 -14 -23 -12 -9 10 -35 125 -35 157 0 18 -5 42 -10 53 -21 37 -30
156 -29 349 0 107 3 197 5 200 3 2 19 9 37 15 45 14 45 54 0 74 -18 8 -35 22
-37 30 -8 26 -10 394 -3 416 4 11 16 96 27 189 11 92 24 174 30 181 5 6 28 17
50 24 53 16 61 37 26 68 -22 19 -31 21 -47 12 -24 -12 -28 -10 -30 17 -6 60 0
71 39 78 49 7 91 49 76 74 -15 24 -50 27 -81 7 -21 -14 -27 -15 -34 -4 -14 21
-6 81 11 89 8 4 27 13 41 20 15 7 40 29 55 50 55 74 156 114 192 78z m-558
-43 c0 -49 -8 -55 -34 -26 -10 11 -31 25 -47 31 -50 21 -33 36 44 39 l37 1 0
-45z m305 25 c16 -18 17 -20 1 -20 -9 0 -22 -11 -28 -25 -6 -14 -16 -24 -22
-22 -12 4 -20 52 -12 73 8 20 40 17 61 -6z m765 16 c0 -2 -3 -11 -6 -20 -9
-23 -24 -20 -24 4 0 11 7 20 15 20 8 0 15 -2 15 -4z m113 -45 c23 -40 21 -58
-9 -98 -21 -28 -28 -32 -41 -22 -13 12 -43 62 -43 73 0 8 61 76 69 76 4 0 14
-13 24 -29z m-1043 2 c0 -10 -10 -34 -22 -53 l-23 -35 -3 28 c-4 29 20 77 38
77 6 0 10 -8 10 -17z m-330 -20 c0 -13 -60 -100 -86 -124 l-26 -24 7 25 c12
39 75 130 91 130 8 0 14 -3 14 -7z m-1705 -13 c8 0 17 -15 20 -34 8 -41 60
-106 85 -106 29 0 44 25 30 50 -16 29 -6 36 17 11 31 -33 116 -242 104 -254
-15 -15 -311 279 -311 308 0 27 10 37 28 30 7 -3 20 -5 27 -5z m3402 -73 c13
-26 13 -30 -4 -43 -32 -24 -51 -17 -62 24 -6 20 -11 52 -11 71 l0 35 31 -30
c17 -16 37 -42 46 -57z m-515 56 c27 -31 42 -67 48 -113 4 -41 9 -47 45 -63
58 -27 70 -41 126 -139 28 -48 66 -106 84 -129 42 -49 49 -73 80 -276 37 -246
39 -273 18 -312 -32 -61 -62 -66 -77 -14 -6 18 -1 25 24 38 30 15 30 16 15 45
-9 17 -23 30 -33 30 -31 0 -97 -45 -100 -68 -5 -30 117 -231 140 -232 26 0 31
18 18 66 -14 50 -8 66 16 42 29 -29 48 -415 22 -435 -7 -6 -42 -13 -77 -16
-37 -3 -67 -11 -72 -19 -16 -24 -4 -42 33 -53 20 -5 39 -13 42 -16 3 -3 -12
-25 -34 -49 -43 -47 -49 -60 -25 -60 33 0 63 -46 80 -123 23 -104 10 -142 -35
-97 -40 40 -103 11 -98 -43 4 -40 26 -45 79 -18 22 12 45 19 50 16 20 -13 4
-115 -18 -115 -16 0 -73 -53 -73 -68 0 -5 12 -14 26 -21 24 -10 26 -16 21 -49
-9 -51 -35 -83 -93 -112 -39 -20 -49 -30 -49 -50 0 -21 5 -26 33 -28 25 -3 32
-8 32 -25 0 -41 -15 -51 -76 -51 -57 1 -78 14 -69 44 23 83 14 89 -54 35 -28
-23 -55 -35 -74 -35 -30 0 -30 0 -12 20 10 12 24 46 30 78 10 54 13 58 58 80
26 12 47 27 47 32 0 10 -51 60 -61 60 -14 0 -17 29 -7 69 9 36 14 41 39 41 20
0 34 8 45 26 20 30 12 41 -35 46 l-34 3 2 99 c3 126 17 249 32 278 6 13 21 33
32 45 22 24 17 53 -9 53 -15 0 -16 10 -9 88 4 48 11 150 14 227 l6 140 30 1
c17 0 35 1 42 2 19 3 35 41 29 68 -8 32 -40 31 -73 -2 -14 -14 -27 -23 -30
-20 -11 11 -14 132 -5 158 7 17 21 28 41 33 66 14 60 75 -8 77 -20 1 -36 8
-41 19 -6 9 -13 71 -17 136 -7 135 -4 137 63 36 30 -46 35 -60 29 -89 -9 -52
1 -72 41 -80 26 -5 40 -2 51 9 15 15 15 23 -2 94 -15 63 -26 87 -59 125 -96
109 -101 122 -60 163 39 39 29 59 -31 63 -28 2 -53 7 -58 11 -4 4 -16 58 -26
121 -12 69 -29 131 -44 161 -23 43 -25 59 -7 59 4 0 14 -8 22 -17z m-267 -20
c4 -10 11 -33 15 -51 7 -30 6 -34 -18 -45 -15 -6 -37 -20 -50 -31 -23 -21 -24
-21 -38 -2 -22 31 -17 81 12 115 29 34 68 41 79 14z m-784 -23 c34 -9 37 -14
44 -55 9 -62 0 -88 -26 -74 -11 5 -25 21 -31 35 -14 29 -37 31 -72 3 -33 -26
-33 -52 -1 -67 27 -13 34 -32 11 -32 -21 0 -56 -49 -56 -79 -1 -46 -36 -108
-77 -134 l-38 -24 -6 55 c-8 63 3 94 38 117 18 12 23 25 23 58 0 53 58 175 91
193 29 16 53 17 100 4z m-755 -81 c-14 -32 -27 -86 -31 -131 -7 -77 -18 -109
-32 -95 -11 12 -5 169 7 203 12 32 73 100 78 86 1 -5 -8 -33 -22 -63z m2035
21 c27 -15 47 -58 55 -121 7 -59 5 -60 -34 -1 -15 22 -40 57 -56 77 -24 30
-27 38 -15 46 18 11 26 11 50 -1z m-1670 -59 c-12 -22 -31 -28 -31 -10 0 23
22 51 32 41 7 -7 6 -17 -1 -31z m-1080 -136 l64 -125 42 0 c48 0 73 -8 73 -22
0 -30 -197 37 -231 78 -11 14 -10 18 6 30 18 13 18 15 -8 66 -15 29 -30 69
-34 88 -11 61 19 21 88 -115z m3157 101 c17 -37 25 -44 56 -50 38 -7 56 -29
56 -69 0 -18 -7 -27 -25 -31 -14 -4 -25 -11 -25 -16 0 -6 -7 -10 -15 -10 -21
0 -19 17 5 47 21 27 27 63 11 63 -5 0 -23 -11 -40 -25 -25 -21 -33 -24 -49
-14 -14 9 -25 8 -50 -5 -32 -16 -32 -16 -42 9 -19 51 -13 73 29 94 21 11 41
27 44 36 11 26 25 17 45 -29z m-1938 -3 c-1 -10 -8 -29 -16 -43 l-15 -25 5 25
c3 14 6 33 6 43 0 9 5 17 10 17 6 0 10 -8 10 -17z m1160 -19 c0 -14 -4 -23
-10 -19 -5 3 -10 15 -10 26 0 10 5 19 10 19 6 0 10 -12 10 -26z m-857 -90 c-3
-28 -1 -67 5 -85 8 -23 9 -93 3 -218 -7 -168 -9 -186 -27 -195 -10 -6 -48 -41
-83 -78 -43 -45 -72 -68 -87 -68 -33 0 -38 -16 -14 -48 l21 -29 -31 -139 c-17
-76 -33 -149 -36 -161 -7 -34 -48 -77 -67 -70 -14 5 -17 23 -17 111 0 57 -3
111 -6 120 -5 12 0 16 20 16 36 0 72 36 55 56 -6 8 -17 14 -25 14 -31 0 -31
179 1 240 10 20 14 42 10 64 -5 22 2 61 20 119 22 72 31 89 56 104 27 16 30
22 26 53 -7 56 12 118 43 140 15 11 31 31 34 44 4 15 22 34 46 47 22 13 40 30
41 38 0 12 3 10 9 -4 5 -11 6 -43 3 -71z m-343 -138 c0 -135 -7 -196 -21 -174
-5 7 -9 57 -9 111 0 57 -5 105 -12 116 -9 15 -8 24 5 45 10 14 22 26 27 26 6
0 10 -50 10 -124z m1224 77 c13 -45 17 -111 7 -117 -12 -8 -31 54 -31 102 0
34 15 44 24 15z m-699 -54 c8 -25 -4 -201 -15 -219 -15 -25 -24 15 -22 100 2
94 9 140 22 140 5 0 12 -9 15 -21z m1535 -1 c24 -5 50 -14 57 -20 21 -17 15
-53 -17 -93 -35 -45 -37 -55 -9 -55 42 0 59 -18 59 -63 0 -89 -39 -85 -81 9
-35 76 -88 162 -119 189 l-21 19 7 -64 c17 -154 16 -153 57 -176 21 -12 49
-38 63 -58 14 -20 42 -47 63 -60 26 -17 41 -35 49 -64 14 -45 16 -192 4 -192
-5 0 -19 23 -33 52 -27 58 -56 98 -70 98 -6 0 -15 -13 -20 -30 -8 -23 -20 -32
-50 -40 -21 -6 -41 -15 -44 -20 -3 -6 -9 -10 -13 -10 -12 0 -34 85 -30 115 3
24 11 31 58 46 30 10 56 19 56 19 1 0 4 7 7 14 4 10 -7 23 -29 37 l-35 21 -24
-22 -24 -22 -5 33 c-14 89 -26 231 -20 241 4 5 1 28 -6 49 -24 71 13 81 170
47z m-2730 -103 c10 -12 10 -18 -1 -31 -21 -26 -94 1 -82 32 7 19 67 18 83 -1z
m1910 -42 c0 -55 -17 -48 -27 10 -4 30 -3 37 11 37 12 0 16 -10 16 -47z
m-1707 -64 l-18 -34 -3 28 c-4 32 16 63 30 49 6 -6 3 -23 -9 -43z m-345 -101
c-2 -25 -8 -34 -26 -36 -13 -2 -24 3 -28 12 -8 22 14 56 37 56 17 0 20 -5 17
-32z m109 -65 c47 -34 56 -57 48 -115 l-7 -50 -64 63 c-68 67 -73 81 -48 117
16 24 20 23 71 -15z m3245 -43 c37 -33 20 -41 -20 -10 -39 31 -51 11 -29 -51
10 -28 16 -53 14 -55 -9 -9 -67 58 -74 83 -4 20 -1 31 17 45 31 25 55 23 92
-12z m-2766 -252 c19 -343 19 -381 -6 -403 -19 -17 -21 -17 -46 1 -15 11 -33
24 -41 29 -11 7 -20 3 -38 -17 -29 -34 -31 -34 -39 -3 -4 14 -11 25 -16 25 -6
0 -10 18 -10 40 0 29 -7 48 -29 73 -29 32 -29 33 -10 46 12 7 34 42 51 79 17
37 45 82 61 100 30 30 30 34 18 67 -12 33 -10 41 19 103 37 79 60 116 67 108
3 -2 11 -114 19 -248z m555 195 c6 -16 13 -209 16 -480 6 -450 6 -453 -14
-453 -25 0 -73 -36 -73 -56 0 -13 19 -20 70 -26 20 -2 26 -10 31 -40 3 -20 3
-42 0 -47 -7 -10 -76 8 -113 29 -43 25 -78 1 -93 -62 -8 -32 -30 -37 -44 -10
-8 15 -41 212 -41 245 0 7 16 19 35 26 51 18 48 49 -5 57 -22 4 -45 13 -51 20
-6 7 -13 49 -16 92 -5 72 -4 81 16 101 17 17 25 20 36 11 8 -6 12 -17 10 -23
-9 -23 12 -40 38 -33 47 11 43 76 -4 76 -11 0 -19 6 -19 13 0 8 25 112 56 233
54 211 83 294 104 294 6 0 10 11 10 23 0 45 35 52 51 10z m2064 -69 c9 -9 23
-28 32 -41 15 -23 14 -25 -12 -53 -33 -35 -50 -38 -65 -11 -11 22 -14 104 -3
114 11 12 31 8 48 -9z m-373 -98 c62 -18 78 -35 78 -85 0 -26 -9 -38 -61 -76
-69 -50 -75 -52 -81 -27 -9 34 9 62 40 62 34 0 55 20 46 43 -10 26 -36 29 -66
7 l-28 -21 -10 27 c-12 32 -2 97 14 91 6 -2 37 -12 68 -21z m-2527 -80 c49
-17 54 -38 26 -101 -24 -53 -40 -55 -58 -4 -10 29 -18 119 -10 119 1 0 20 -7
42 -14z m2664 -132 c15 -19 21 -41 21 -80 0 -61 -18 -154 -30 -154 -10 0 -40
74 -40 98 0 9 -9 31 -20 47 -27 40 -26 79 3 98 31 22 43 21 66 -9z m-2286 -31
c7 -34 -5 -49 -22 -29 -13 15 -6 56 9 56 4 0 10 -12 13 -27z m2124 -5 c6 -7
13 -32 16 -55 3 -24 14 -62 26 -86 27 -56 26 -69 -6 -118 -22 -33 -24 -42 -12
-49 61 -35 89 -56 99 -75 15 -29 5 -97 -20 -127 l-18 -22 -37 33 c-30 26 -44
32 -66 27 l-29 -5 0 238 c0 131 3 241 7 244 10 11 30 8 40 -5z m-1539 -35 c5
-16 -22 -27 -44 -19 -13 5 -14 9 -4 22 15 17 41 15 48 -3z m-583 -53 c3 -5 -1
-10 -9 -10 -9 0 -16 5 -16 10 0 6 4 10 9 10 6 0 13 -4 16 -10z m-357 -179 c6
-59 -4 -68 -38 -36 -34 33 -37 50 -12 64 29 18 47 8 50 -28z m240 18 c23 -8
33 -20 45 -56 11 -32 12 -54 6 -70 -5 -13 -9 -52 -9 -85 l0 -61 -22 21 c-37
34 -68 36 -121 7 -26 -14 -54 -25 -62 -25 -8 0 -23 -9 -34 -21 -16 -17 -22
-19 -39 -8 -32 20 -52 5 -52 -40 0 -80 -22 -91 -68 -35 -58 70 -58 70 -11 167
l42 88 26 -25 c52 -50 123 -60 181 -25 35 21 60 46 60 60 0 16 -33 39 -55 39
-13 0 -32 -11 -43 -25 -11 -14 -22 -25 -25 -25 -9 0 11 80 24 96 27 33 98 44
157 23z m2990 -46 c4 -25 -33 -102 -51 -107 -11 -3 -82 -23 -304 -87 -35 -10
-63 -16 -63 -14 0 5 117 116 140 132 15 11 23 11 39 1 17 -10 27 -9 63 9 24
12 55 25 70 28 18 5 30 17 37 37 9 24 15 29 38 26 20 -2 29 -9 31 -25z m-3540
-27 c20 -13 52 -27 70 -31 41 -8 33 -21 -31 -50 -70 -33 -87 -23 -87 50 0 30
2 55 5 55 3 0 22 -11 43 -24z m2560 -58 c-2 -13 -7 -23 -13 -23 -5 0 -11 10
-13 23 -2 15 2 22 13 22 11 0 15 -7 13 -22z m-2741 -85 c4 -10 -154 -140 -198
-163 -13 -7 -33 -21 -44 -31 -34 -30 -262 -155 -328 -179 -34 -13 -69 -29 -77
-36 -8 -7 -51 -28 -95 -47 -44 -19 -195 -91 -336 -161 -212 -104 -263 -126
-300 -126 -25 0 -54 7 -65 15 -10 8 -29 15 -41 15 -61 1 -73 35 -15 46 20 4
56 15 79 25 23 10 58 21 78 25 20 3 62 23 93 44 34 22 99 50 162 70 57 17 115
41 129 51 21 17 34 19 78 13 61 -7 84 6 108 63 8 19 22 36 32 39 10 3 35 14
55 24 20 11 44 20 52 20 9 0 22 13 31 30 19 36 128 94 198 104 44 7 92 26 190
78 21 11 61 26 88 34 27 8 61 26 76 40 26 24 44 27 50 7z m4128 -39 c36 -20
64 -38 62 -40 -2 -3 -33 6 -68 18 -41 15 -65 29 -67 41 -5 23 -3 22 73 -19z
m-2105 -1 c0 -5 -4 -14 -9 -22 -11 -17 -32 -5 -24 14 5 15 33 21 33 8z m-1242
-85 l3 -46 -70 -4 c-55 -3 -75 -8 -94 -26 -13 -12 -29 -22 -35 -22 -14 0 -52
36 -52 49 0 13 122 71 151 71 13 0 35 7 49 14 37 20 45 14 48 -36z m2272 17
c11 -13 9 -20 -10 -40 -30 -31 -38 -31 -46 0 -11 44 29 72 56 40z m1275 -4 c3
-5 20 -13 38 -16 44 -10 151 -59 209 -96 26 -17 78 -39 115 -49 38 -9 114 -36
170 -59 55 -22 114 -41 130 -42 38 -1 157 -61 161 -81 5 -24 -31 -56 -72 -64
-87 -16 -313 69 -347 131 -15 29 -18 30 -72 27 -45 -3 -62 0 -86 17 -16 12
-35 21 -43 21 -28 0 -41 16 -29 38 11 20 9 21 -37 15 -66 -7 -121 18 -129 59
-4 21 -21 41 -54 65 -27 19 -49 37 -49 39 0 8 89 4 95 -5z m-3997 -83 c21 -69
27 -78 53 -83 35 -8 49 -30 39 -64 -4 -14 -46 -100 -93 -191 -47 -91 -97 -198
-110 -237 -14 -40 -37 -93 -51 -118 -25 -41 -30 -45 -66 -45 -22 0 -40 2 -40
5 0 3 22 38 48 78 87 129 128 250 74 216 -10 -6 -30 -30 -45 -53 -30 -47 -74
-96 -86 -96 -4 0 -11 30 -14 68 -9 86 -34 183 -53 202 -14 13 -18 12 -36 -10
-19 -23 -20 -32 -12 -120 17 -188 14 -212 -49 -335 -54 -108 -58 -113 -225
-275 -351 -342 -451 -430 -485 -430 -17 0 -19 5 -14 34 5 31 90 180 143 251
13 17 39 65 57 105 19 41 50 92 70 113 19 22 49 67 66 102 45 90 309 428 457
582 56 58 81 65 134 38 17 -9 40 -13 53 -10 56 15 182 123 164 141 -4 4 -42
-9 -85 -29 -127 -60 -140 -50 -82 61 43 83 130 187 151 180 7 -2 23 -38 37
-80z m3011 0 c20 -11 50 -32 68 -45 l31 -23 -18 -37 c-11 -21 -22 -50 -25 -65
-6 -30 -47 -83 -79 -100 -11 -7 -39 -14 -61 -17 -36 -6 -40 -9 -40 -36 0 -27
4 -30 44 -37 25 -4 48 -11 53 -16 12 -12 36 -147 44 -250 l7 -92 -36 0 c-34 0
-38 4 -59 48 l-23 47 -60 -3 c-33 -2 -61 -5 -63 -6 -2 -3 7 -54 24 -133 6 -33
-30 -30 -99 7 -31 17 -65 30 -75 30 -24 0 -46 -42 -39 -72 29 -121 102 -321
122 -338 8 -7 26 -9 40 -6 35 9 34 54 -1 87 -14 13 -33 37 -41 53 -20 38 -46
127 -39 133 3 3 35 5 73 5 62 0 70 -3 91 -29 12 -15 25 -38 28 -50 20 -76
-126 -313 -193 -313 -12 0 -40 83 -48 141 -4 25 -19 70 -34 100 -27 53 -28 54
-71 54 -41 0 -46 3 -66 38 -35 63 -44 67 -44 20 0 -63 36 -167 101 -289 32
-61 59 -114 59 -117 0 -8 -78 -37 -100 -37 -12 0 -25 10 -30 23 -26 62 -54
176 -51 210 3 38 -14 72 -30 61 -14 -8 -9 -114 10 -254 l17 -125 39 1 c22 0
67 3 100 5 l59 4 14 -55 c7 -30 19 -76 27 -101 8 -26 15 -57 15 -70 0 -13 9
-66 20 -118 16 -73 20 -133 20 -266 l0 -171 -27 -27 c-37 -34 -145 -84 -212
-97 -100 -19 -91 -36 -91 183 0 260 -18 366 -61 375 -18 3 -39 -37 -39 -73 0
-38 -17 -30 -35 18 -18 49 -51 95 -60 85 -11 -11 45 -161 79 -213 19 -27 37
-63 41 -80 5 -16 11 -138 14 -270 6 -231 7 -240 26 -240 18 0 20 8 23 61 3 68
9 74 83 74 20 0 62 9 94 20 32 11 60 19 61 17 2 -1 14 -26 27 -55 26 -56 26
-55 -6 -172 -20 -73 -38 -111 -51 -107 -19 6 -48 77 -55 135 -7 63 -16 82 -35
82 -31 0 -34 -24 -20 -154 14 -136 24 -163 48 -131 13 18 14 18 25 -3 6 -11
11 -33 11 -49 0 -32 -50 -128 -65 -127 -14 1 -59 95 -91 189 -37 111 -70 172
-95 180 -30 10 -35 -4 -43 -99 -8 -92 0 -160 19 -176 20 -16 27 3 26 66 0 47
2 55 17 52 20 -4 33 -28 107 -205 51 -123 55 -137 55 -213 0 -100 9 -118 61
-126 49 -8 52 -13 119 -174 114 -274 220 -412 166 -217 -8 29 -22 112 -32 184
-9 73 -23 141 -30 150 -13 17 -15 17 -29 -1 -8 -10 -16 -24 -19 -30 -6 -14
-78 62 -73 77 6 19 68 57 93 57 25 0 58 -44 83 -110 8 -19 32 -75 53 -123 39
-86 40 -89 30 -150 -6 -34 -16 -96 -22 -137 -13 -90 -34 -134 -77 -161 l-32
-20 -30 53 c-17 29 -46 89 -64 132 -62 154 -180 365 -203 366 -11 0 -2 -96 17
-178 12 -55 5 -66 -30 -47 -32 16 -88 100 -151 225 -23 47 -63 116 -87 154
-61 94 -159 409 -170 541 -3 39 -10 76 -17 84 -15 19 -13 278 2 351 7 30 26
82 42 115 40 81 61 168 64 272 l3 87 -57 111 c-57 114 -85 205 -97 316 -6 62
-4 70 46 166 16 30 87 132 92 132 4 1 10 -32 14 -71 15 -156 45 -332 59 -346
37 -38 44 27 26 238 -17 197 -18 200 -46 200 -31 0 -30 9 6 45 16 16 54 57 84
91 31 33 99 98 151 145 61 53 109 106 132 143 20 32 77 102 128 155 130 136
234 297 265 411 7 25 14 51 16 58 5 17 22 15 63 -10z m-419 -8 c0 -11 -4 -20
-10 -20 -5 0 -10 9 -10 20 0 11 5 20 10 20 6 0 10 -9 10 -20z m128 -32 c13
-13 16 -48 4 -48 -14 0 -32 23 -32 42 0 21 11 23 28 6z m-1725 -35 c3 -5 10
-66 16 -138 6 -71 18 -176 27 -233 20 -122 15 -138 -51 -173 -55 -29 -69 -19
-85 58 l-12 55 42 43 c66 67 33 101 -53 55 l-38 -20 -15 36 c-9 21 -16 49 -17
63 -2 22 4 27 38 36 72 18 85 42 39 72 -25 16 -28 16 -56 0 -16 -9 -33 -17
-37 -17 -3 0 -13 21 -20 46 -16 53 -5 69 37 53 20 -8 34 -3 84 31 57 38 91 49
101 33z m-495 -36 c17 -48 16 -49 -26 -42 -30 5 -42 2 -56 -14 -28 -31 -17
-54 37 -69 50 -14 56 -26 32 -58 -22 -29 -18 -53 10 -66 18 -8 25 -19 25 -40
0 -46 -28 -32 -66 31 -36 63 -79 101 -113 101 -21 0 -23 -3 -17 -37 18 -112
18 -141 -2 -199 -11 -33 -23 -82 -27 -110 -7 -57 -102 -241 -182 -353 -63 -88
-167 -196 -203 -211 -17 -7 -30 -16 -30 -21 0 -5 -23 -30 -51 -56 -57 -54
-170 -199 -219 -283 -18 -30 -49 -77 -70 -105 -57 -75 -148 -235 -214 -375
-40 -84 -50 -129 -66 -287 -9 -89 -18 -123 -49 -193 -21 -47 -47 -114 -57
-150 -10 -36 -32 -101 -49 -145 -30 -78 -32 -80 -95 -116 -85 -48 -89 -55 -61
-118 26 -61 36 -140 21 -161 -29 -41 -85 101 -77 198 2 32 18 92 36 137 47
115 55 142 96 320 21 88 50 198 66 245 29 89 69 280 69 331 0 47 25 96 83 157
31 33 84 112 127 187 40 72 94 157 120 190 52 65 150 223 150 241 0 6 8 22 19
35 10 13 23 41 30 61 7 20 19 42 28 49 28 24 152 206 159 235 7 28 54 128 115
244 16 30 54 105 84 165 31 61 72 132 91 159 l36 49 49 -6 48 -6 -5 42 c-9 62
8 71 141 75 49 2 51 1 63 -31z m2083 -16 c-7 -12 -16 -21 -21 -21 -12 0 -12 2
0 36 8 19 14 24 21 17 8 -8 7 -17 0 -32z m628 -23 c4 -13 11 -53 15 -90 8 -84
13 -98 36 -98 22 0 36 17 45 53 4 15 11 27 15 27 4 0 111 -107 237 -237 360
-374 410 -430 573 -647 58 -77 131 -168 163 -202 31 -34 57 -65 57 -69 0 -4
22 -37 49 -74 106 -144 98 -158 -36 -64 -60 41 -152 97 -207 125 -54 27 -133
71 -175 97 -42 26 -105 61 -141 79 -36 17 -105 66 -153 107 -49 41 -102 82
-118 90 -16 9 -36 30 -45 48 -10 17 -30 48 -45 67 -63 78 -150 237 -175 320
-15 47 -48 142 -75 213 -51 133 -84 251 -74 267 11 18 45 10 54 -12z m-539
-127 c0 -4 -10 -23 -23 -42 -21 -31 -27 -34 -82 -37 -51 -3 -57 -1 -46 12 13
15 127 76 143 76 4 0 8 -4 8 -9z m3710 -9 c0 -10 -5 -23 -12 -30 -14 -14 -108
-17 -108 -3 0 11 79 50 103 51 10 0 17 -7 17 -18z m-430 -7 c16 -20 6 -32 -38
-45 -58 -16 -162 -10 -162 9 0 4 125 39 181 50 4 0 12 -6 19 -14z m-2806 -120
c20 -49 57 -151 83 -225 45 -135 54 -153 145 -307 91 -152 275 -327 416 -394
62 -30 82 -44 82 -60 0 -11 -7 -22 -15 -25 -23 -9 -19 -72 10 -160 14 -42 25
-86 25 -98 0 -11 19 -73 41 -136 74 -209 77 -226 44 -218 -15 4 -160 178 -217
261 -22 32 -50 63 -62 68 -13 6 -30 23 -39 39 -23 38 -136 142 -148 135 -32
-20 12 -114 86 -185 32 -30 122 -131 200 -225 78 -93 173 -204 211 -245 39
-42 89 -102 113 -134 24 -32 99 -127 167 -212 68 -86 131 -169 141 -187 16
-32 144 -200 235 -310 27 -32 58 -77 70 -100 11 -23 37 -62 57 -87 43 -53 127
-190 168 -275 44 -90 160 -268 240 -370 39 -49 117 -160 173 -245 115 -173
148 -215 298 -377 113 -122 151 -149 297 -208 50 -20 126 -55 170 -79 l80 -43
12 -139 c7 -77 14 -206 15 -289 3 -133 1 -154 -17 -190 -27 -54 -65 -59 -128
-15 -33 24 -85 43 -208 75 -330 87 -432 135 -584 272 -207 187 -356 357 -425
483 -25 45 -65 112 -89 149 -25 36 -59 100 -77 141 -17 42 -45 98 -62 125 -28
46 -74 140 -147 302 -28 62 -30 106 -9 180 5 18 0 25 -30 40 -47 22 -48 52 -1
100 47 49 49 105 5 151 -23 24 -30 41 -30 71 0 21 -6 44 -14 50 -21 17 -46
-34 -46 -93 0 -25 -4 -47 -9 -50 -18 -12 -30 23 -38 109 -6 70 -11 90 -23 90
-11 0 -14 -10 -13 -37 1 -24 -3 -38 -12 -42 -19 -7 -45 3 -45 18 0 6 -9 28
-20 49 -11 20 -26 78 -34 128 -10 71 -18 95 -34 108 -21 16 -70 131 -79 186
-3 17 -24 80 -48 140 -24 61 -46 126 -50 145 -4 19 -19 60 -32 90 -14 30 -34
82 -45 115 -24 74 -72 156 -204 350 -122 180 -298 478 -354 601 -65 139 -78
167 -93 194 -8 14 -36 70 -63 125 -43 87 -52 100 -74 100 -23 0 -25 -3 -23
-43 1 -28 13 -62 36 -100 19 -31 40 -73 47 -92 7 -19 21 -46 30 -60 10 -14 20
-38 24 -55 20 -83 85 -238 129 -303 48 -73 98 -173 110 -223 11 -43 -17 -67
-98 -84 -106 -22 -112 -21 -136 27 -31 61 -69 165 -69 190 0 12 7 29 15 39 15
15 12 25 -34 115 -60 121 -73 164 -110 374 -17 91 -39 203 -50 250 -33 136
-25 195 19 155 12 -11 22 -38 26 -66 8 -63 21 -78 69 -86 22 -3 47 -11 55 -18
22 -18 57 -27 64 -16 4 5 -17 40 -46 78 -49 63 -53 73 -60 143 -4 41 -12 118
-17 170 -12 110 -14 264 -4 273 11 11 18 -2 57 -98z m2343 29 c9 -23 -16 -35
-57 -29 -70 11 -90 17 -90 25 0 12 26 17 88 19 40 1 54 -3 59 -15z m-2975 -66
c-7 -7 -12 -8 -12 -2 0 14 12 26 19 19 2 -3 -1 -11 -7 -17z m-5939 -10 c15 -6
27 -14 27 -19 0 -6 -76 -25 -129 -32 -21 -3 -43 43 -29 60 12 15 81 10 131 -9z
m421 -48 c51 -21 58 -35 24 -44 -53 -14 -94 -6 -121 22 -39 41 -36 56 12 48
22 -3 60 -15 85 -26z m881 -29 c9 -15 -51 -30 -190 -46 -71 -8 -157 -19 -190
-25 -76 -12 -185 -13 -185 -1 0 16 51 51 89 60 38 9 252 7 336 -3 32 -4 62 -1
85 8 45 17 48 18 55 7z m2770 -222 c66 -69 128 -141 139 -160 l18 -34 -55 -80
c-62 -90 -110 -140 -126 -131 -5 4 -15 30 -22 60 -13 60 -1 115 33 153 23 25
17 43 -17 43 -25 0 -35 17 -35 60 0 41 -11 90 -21 90 -5 0 -18 -18 -29 -40
-16 -32 -20 -59 -20 -140 0 -68 -5 -110 -14 -129 -20 -37 -92 -101 -114 -101
-27 0 -52 32 -59 74 -5 32 -3 36 15 36 21 0 79 76 121 158 24 47 25 52 11 52
-5 0 -18 -17 -29 -37 -11 -21 -45 -65 -75 -98 -43 -46 -57 -57 -65 -46 -9 14
-3 46 20 94 12 27 11 30 -11 47 -22 17 -23 22 -12 39 6 12 12 34 12 50 0 17
10 46 23 64 13 19 34 67 46 106 12 39 30 78 39 87 14 15 19 12 61 -37 25 -30
100 -111 166 -180z m749 100 c13 -18 27 -23 89 -28 4 -1 7 -5 7 -11 0 -6 -27
-10 -60 -10 -32 0 -71 -5 -85 -12 -22 -10 -28 -8 -48 10 -28 26 -59 28 -98 5
-22 -13 -32 -14 -41 -5 -16 16 47 42 104 42 24 0 54 7 68 14 35 20 47 19 64
-5z m348 10 c11 -6 52 -12 89 -13 38 -1 74 -7 81 -14 9 -9 5 -12 -18 -12 -18
0 -38 -8 -49 -20 -16 -18 -16 -20 5 -54 l22 -36 -27 -10 c-43 -16 -65 2 -65
55 0 38 -3 45 -19 45 -19 0 -61 43 -61 61 0 12 17 11 42 -2z m348 -88 c25 -48
-8 -72 -43 -31 -9 11 -24 20 -32 20 -18 0 -20 16 -2 23 29 12 67 6 77 -12z
m138 -3 c-6 -18 -28 -21 -28 -4 0 9 7 16 16 16 9 0 14 -5 12 -12z m-559 -52
c55 -59 60 -77 34 -131 -23 -47 -6 -60 49 -38 31 12 45 13 64 4 38 -17 78 -13
108 10 34 27 35 65 1 81 -37 17 -30 30 13 26 33 -3 39 -8 59 -48 27 -54 29
-87 6 -112 -9 -10 -37 -53 -62 -96 -41 -68 -53 -80 -103 -105 -34 -18 -80 -31
-116 -34 -56 -5 -61 -4 -77 21 -22 33 -30 33 -85 -4 -40 -26 -54 -30 -118 -30
-70 0 -73 1 -83 27 -5 15 -14 58 -19 96 -9 78 -27 104 -90 132 -32 15 -42 15
-55 5 -19 -16 -19 -34 2 -88 13 -34 22 -44 45 -49 37 -7 36 -18 -3 -32 -27 -9
-30 -13 -19 -26 7 -8 19 -15 27 -15 8 0 11 -4 8 -10 -7 -11 -55 -13 -80 -4
-16 6 -95 152 -95 175 0 7 18 31 40 55 57 62 51 124 -15 136 -24 4 -34 48 -12
48 8 0 35 -11 58 -25 24 -14 54 -25 66 -25 18 0 22 -7 25 -37 3 -32 7 -38 36
-45 17 -5 32 -14 32 -21 0 -7 6 -21 13 -30 11 -16 14 -16 47 6 19 13 55 31 79
41 25 10 58 26 73 38 27 18 30 19 53 4 45 -30 75 -17 75 34 0 30 -33 60 -67
63 -18 1 -33 3 -33 4 0 9 46 53 55 53 7 0 35 -24 64 -54z m-759 4 c0 -5 -7
-10 -16 -10 -8 0 -12 5 -9 10 3 6 10 10 16 10 5 0 9 -4 9 -10z m552 -17 c27
-25 22 -39 -21 -51 -22 -7 -46 -23 -56 -38 -20 -32 -55 -29 -72 6 -7 13 -19
30 -28 36 -12 9 -2 12 46 17 44 4 68 11 83 26 25 25 25 25 48 4z m-1696 -18
c6 -15 -4 -33 -98 -172 -27 -40 -55 -92 -64 -115 -8 -23 -23 -52 -33 -63 -10
-11 -41 -54 -68 -95 -27 -41 -102 -152 -166 -247 -64 -94 -130 -197 -146 -230
-16 -32 -59 -98 -96 -148 -37 -49 -87 -124 -112 -166 -24 -41 -73 -111 -110
-155 -36 -43 -73 -90 -82 -104 -36 -56 -129 -152 -217 -225 -34 -27 -101 -86
-151 -130 -98 -88 -129 -113 -218 -178 -84 -61 -327 -281 -403 -363 -34 -38
-109 -118 -165 -179 -114 -123 -179 -204 -202 -255 -9 -19 -33 -69 -55 -110
-22 -41 -40 -80 -40 -86 0 -6 -19 -21 -42 -34 -27 -15 -39 -18 -35 -9 3 8 24
57 47 109 74 173 114 255 144 289 16 19 37 54 48 78 10 24 23 43 27 43 5 0 12
10 15 23 3 12 36 56 72 97 37 41 73 90 81 109 8 19 32 60 53 90 20 31 49 79
63 108 15 28 31 54 37 58 6 3 19 24 30 46 11 21 59 85 107 141 47 57 98 122
112 146 14 23 33 45 42 47 9 3 31 24 50 48 77 97 154 168 215 198 106 52 404
300 404 336 0 7 17 22 39 32 37 19 101 88 101 109 0 5 12 17 26 27 14 9 34 36
45 60 11 25 40 61 69 85 27 22 52 51 56 63 3 12 22 41 40 64 19 23 49 64 67
91 17 26 54 75 80 108 27 32 63 82 80 111 59 96 205 309 221 322 13 11 90 37
119 40 4 1 10 -6 13 -14z m2404 1 c0 -17 -56 -66 -76 -66 -22 0 -17 19 15 51
31 31 61 38 61 15z m-1186 -39 c22 -16 20 -112 -3 -112 -13 0 -69 95 -71 118
0 12 55 8 74 -6z m-109 -172 c23 -24 56 -74 74 -110 32 -64 61 -95 90 -95 8 0
41 -17 73 -37 l59 -38 -5 -80 c-3 -45 -14 -104 -26 -134 -39 -100 -157 -226
-219 -233 -18 -2 -30 7 -55 44 -48 72 -99 165 -114 210 -13 40 -13 41 21 77
47 48 147 192 147 210 0 10 -12 3 -33 -17 -18 -18 -37 -32 -43 -32 -5 0 -14
-8 -20 -17 -6 -10 -43 -55 -83 -101 -51 -60 -71 -90 -71 -110 0 -42 83 -242
100 -242 4 0 15 -16 25 -35 16 -34 15 -38 -4 -79 -31 -63 -56 -86 -96 -86
l-35 0 1 -60 c1 -45 -4 -68 -21 -95 -12 -20 -27 -34 -33 -32 -6 2 -21 31 -34
66 l-23 62 35 64 c25 44 43 65 58 67 18 2 23 12 28 48 3 25 12 60 19 78 7 18
9 36 5 40 -8 8 -13 1 -78 -98 -48 -71 -81 -87 -118 -54 -25 23 -24 39 5 77 29
37 106 195 106 215 0 27 -26 5 -68 -58 -54 -82 -76 -104 -96 -97 -21 8 -22
104 -1 155 15 34 15 38 -1 49 -10 7 -23 13 -29 13 -16 0 -51 66 -65 123 -14
52 -36 62 -46 20 -9 -46 -36 -101 -57 -120 -19 -17 -20 -17 -31 1 -6 10 -21
34 -34 53 -27 42 -38 108 -23 145 12 32 65 68 100 68 17 0 40 -17 75 -57 98
-112 152 -160 199 -178 26 -10 50 -15 53 -12 13 13 -11 52 -77 122 -45 49 -69
83 -69 98 0 24 53 107 68 107 5 0 20 -21 34 -47 18 -34 23 -54 18 -68 -13 -30
-12 -33 10 -45 17 -9 27 -4 65 31 58 53 165 212 165 245 0 37 28 30 75 -21z
m-617 -62 c2 -9 -7 -13 -27 -13 -31 0 -42 14 -18 23 19 8 40 3 45 -10z m-164
-209 c-11 -92 -18 -251 -21 -469 -4 -267 -8 -334 -19 -353 -57 -89 -348 -372
-365 -355 -16 16 20 342 46 418 13 39 27 86 31 105 3 19 15 53 25 75 10 22 37
101 60 175 23 74 47 146 55 160 26 51 74 163 74 173 0 5 13 31 28 56 36 58 54
109 41 116 -16 11 -10 29 24 70 l32 40 3 -37 c2 -19 -4 -98 -14 -174z m2832
155 c3 -6 12 -59 19 -117 12 -103 11 -108 -9 -142 -12 -19 -21 -44 -21 -54 0
-29 -20 -30 -33 -1 -16 34 -28 32 -36 -6 -17 -88 1 -159 44 -169 35 -8 41 -49
34 -230 l-6 -155 -27 33 c-43 50 -117 191 -139 262 -19 60 -49 220 -59 316 -5
39 -3 42 46 77 28 21 65 61 87 94 39 62 73 103 85 103 4 0 11 -5 15 -11z
m-3620 -71 c-15 -18 -49 -67 -76 -108 -27 -41 -60 -88 -74 -105 -14 -16 -56
-69 -94 -116 -140 -180 -309 -363 -417 -453 -125 -105 -196 -158 -203 -151 -3
2 14 35 36 72 22 37 46 82 53 98 7 17 21 41 30 55 9 14 20 36 24 50 4 14 18
40 32 58 13 18 34 54 45 80 25 56 120 158 201 214 31 23 57 45 57 49 0 4 17
11 38 15 20 4 45 11 55 16 21 11 195 161 252 218 49 49 80 55 41 8z m684 6 c0
-3 -23 -52 -51 -108 -71 -142 -147 -335 -175 -441 -26 -102 -71 -230 -91 -260
-7 -11 -13 -29 -13 -40 0 -11 -9 -46 -20 -77 -16 -47 -32 -152 -54 -359 -3
-33 -32 -70 -75 -100 -19 -13 -78 -62 -130 -108 -84 -73 -190 -141 -221 -141
-5 0 1 28 14 63 56 148 116 345 116 379 0 10 13 52 28 95 16 43 41 130 57 193
15 64 42 142 60 175 58 108 88 160 105 180 10 11 32 48 49 81 16 34 48 83 71
109 22 25 40 53 40 61 0 8 30 45 68 82 37 37 78 83 90 103 36 59 132 141 132
113z m1840 -133 c0 -10 -24 -21 -46 -21 -8 0 -14 7 -14 15 0 10 10 15 30 15
17 0 30 -4 30 -9z m-205 -37 c9 -9 15 -26 13 -37 -3 -23 -28 -36 -28 -14 0 7
-9 22 -20 32 -16 14 -17 20 -8 27 18 11 25 10 43 -8z m-160 -54 c-3 -5 -10
-10 -16 -10 -5 0 -9 5 -9 10 0 6 7 10 16 10 8 0 12 -4 9 -10z m409 -112 c10
-46 23 -95 28 -110 7 -18 6 -33 -1 -46 -6 -12 -11 -36 -11 -55 0 -19 -7 -40
-15 -47 -26 -22 -39 3 -37 77 0 50 -4 73 -16 86 -16 18 -16 21 15 104 3 7 -7
17 -21 23 -32 12 -33 26 -4 57 30 32 39 19 62 -89z m2112 87 c16 -8 36 -15 44
-15 9 0 85 -40 170 -90 85 -49 177 -97 204 -106 49 -16 49 -16 67 7 l18 24 25
-25 c72 -73 266 -387 250 -403 -14 -14 -62 20 -194 133 -107 93 -189 143 -254
154 -80 15 -260 106 -368 188 -11 9 -19 35 -24 81 -6 63 -5 67 14 67 11 0 33
-7 48 -15z m-3663 -76 c4 -28 4 -65 1 -82 -7 -44 -96 -226 -111 -226 -19 -1
-35 38 -30 73 10 61 35 163 50 198 13 32 63 88 78 88 3 0 9 -23 12 -51z m1055
0 c-9 -5 -19 -23 -23 -39 -7 -34 -25 -41 -25 -10 0 23 47 76 58 65 4 -3 -1
-11 -10 -16z m200 -32 c-4 -39 -25 -47 -34 -13 -8 35 1 57 21 50 11 -5 15 -16
13 -37z m122 -75 c40 -34 36 -62 -8 -62 -35 0 -47 13 -57 58 -6 27 -4 32 12
32 10 0 34 -13 53 -28z m-460 -44 c0 -45 -22 -78 -52 -78 -22 0 -22 4 -3 38 8
15 19 39 25 55 14 40 30 33 30 -15z m180 -8 c0 -5 -5 -10 -11 -10 -5 0 -7 5
-4 10 3 6 8 10 11 10 2 0 4 -4 4 -10z m1648 -62 c6 -16 7 -28 2 -28 -15 0 -40
43 -40 69 0 24 1 25 13 6 7 -11 18 -32 25 -47z m-2708 -68 c0 -53 -28 -100
-61 -100 -29 0 -33 23 -15 78 35 104 76 116 76 22z m1400 50 c8 -15 7 -27 -5
-51 -9 -17 -14 -37 -11 -45 3 -7 32 -27 66 -44 33 -17 60 -36 60 -43 0 -6 -11
-30 -25 -51 -30 -49 -20 -76 27 -76 l30 0 -37 -46 -37 -45 18 -34 c17 -33 17
-36 1 -70 -21 -45 -16 -55 29 -55 34 0 35 -1 32 -37 -3 -32 -9 -40 -48 -63
-34 -20 -45 -32 -45 -51 0 -25 7 -27 70 -15 43 9 19 -8 -39 -28 -86 -28 -215
-39 -318 -26 -121 14 -229 42 -257 66 -2 2 13 32 33 68 40 72 44 94 19 103
-36 12 -53 36 -53 72 0 20 4 43 10 51 10 16 12 12 24 -42 4 -16 18 -34 34 -42
48 -25 58 -43 40 -74 -12 -21 -14 -42 -9 -92 6 -60 8 -65 32 -68 31 -4 79 40
79 72 0 12 -11 38 -24 57 l-25 36 19 39 c11 22 25 66 31 97 13 71 2 92 -45 83
-59 -11 -73 26 -23 59 31 20 51 12 78 -31 19 -32 24 -34 73 -34 54 0 76 12 76
41 0 11 -13 19 -42 25 -42 9 -43 10 -46 54 -5 67 -18 76 -59 40 -40 -35 -87
-40 -103 -11 -6 12 -7 36 -1 66 15 79 54 97 83 38 7 -15 23 -29 34 -31 30 -4
71 35 87 83 13 37 18 41 73 56 79 22 82 22 94 -1z m2434 -41 c214 -84 280
-124 381 -229 48 -50 168 -120 205 -120 23 0 51 -29 116 -118 31 -42 71 -93
89 -112 18 -19 50 -62 71 -95 20 -33 62 -90 91 -127 63 -79 350 -513 383 -578
12 -25 48 -83 78 -130 81 -123 336 -616 389 -750 25 -63 56 -136 69 -162 52
-103 137 -448 110 -448 -3 0 -50 22 -104 48 -53 27 -124 59 -157 72 -46 19
-77 42 -135 100 -106 107 -213 242 -320 405 -51 77 -115 169 -143 203 -83 108
-280 413 -326 507 -25 50 -65 117 -91 150 -25 33 -60 83 -78 111 -17 27 -43
61 -58 75 -14 13 -49 58 -77 99 -28 41 -67 92 -87 115 -20 22 -63 76 -95 120
-89 121 -154 200 -222 271 -35 35 -63 69 -63 76 0 6 -17 34 -38 62 -53 69 -68
100 -113 233 -45 130 -73 248 -64 263 12 20 58 9 189 -41z m-2674 -4 c0 -8 -4
-15 -10 -15 -5 0 -10 7 -10 15 0 8 5 15 10 15 6 0 10 -7 10 -15z m-180 -34 c0
-16 -9 -39 -19 -52 -18 -22 -20 -22 -26 -6 -4 9 -4 33 -1 52 5 26 12 35 26 35
15 0 20 -7 20 -29z m670 -22 c0 -17 -4 -28 -10 -24 -5 3 -10 17 -10 31 0 13 5
24 10 24 6 0 10 -14 10 -31z m-1139 -26 c42 -111 -29 -311 -136 -385 -22 -15
-42 -27 -45 -28 -12 0 -50 81 -50 107 1 16 13 43 30 62 l30 35 30 -29 c16 -16
33 -26 36 -22 4 3 1 35 -6 69 -12 58 -11 68 7 108 21 48 69 110 84 110 5 0 14
-12 20 -27z m2183 -4 c31 -37 32 -44 6 -76 -17 -22 -20 -41 -20 -127 -1 -118
-16 -185 -50 -221 -15 -15 -31 -52 -40 -87 -8 -34 -21 -63 -27 -66 -7 -2 -13
2 -13 9 0 10 -18 53 -53 128 -7 14 -18 26 -24 29 -33 10 1 -138 54 -234 31
-58 36 -76 40 -152 3 -60 0 -95 -9 -112 -17 -31 -53 -38 -62 -13 -6 16 -25
206 -26 256 0 34 -20 16 -26 -23 -9 -56 -32 -49 -67 21 -27 54 -27 56 -11 94
8 21 20 84 26 139 11 110 19 129 53 120 14 -3 44 6 83 26 48 24 62 36 67 60 3
16 16 41 27 55 17 22 20 39 19 115 -1 102 8 113 53 59z m-2019 11 c-3 -5 -10
-10 -16 -10 -5 0 -9 5 -9 10 0 6 7 10 16 10 8 0 12 -4 9 -10z m-602 -91 c14
-25 17 -47 13 -85 -5 -46 -4 -52 14 -57 11 -3 20 -12 20 -21 0 -19 -4 -20 -55
-1 -54 19 -109 19 -126 -1 -19 -23 -69 -46 -85 -40 -23 9 -17 54 9 67 31 16
107 91 107 105 0 18 60 76 74 71 6 -2 19 -19 29 -38z m698 16 c0 -5 -9 -11
-21 -13 -20 -3 -27 8 -13 22 10 9 34 3 34 -9z m1698 -35 c48 -78 49 -92 4
-129 -36 -29 -39 -30 -51 -14 -9 12 -12 34 -8 68 3 28 6 67 6 88 0 20 4 37 9
37 5 0 23 -22 40 -50z m719 33 c12 -10 44 -56 72 -103 29 -47 60 -94 69 -105
10 -11 28 -38 41 -60 13 -22 34 -52 46 -67 40 -49 140 -311 197 -513 27 -98
30 -125 31 -250 0 -174 -13 -208 -63 -167 -21 16 -22 28 -27 182 -4 172 -12
231 -30 237 -17 6 -24 -48 -24 -193 l0 -134 -29 0 c-20 0 -31 6 -35 18 -8 28
-6 130 5 232 13 121 16 246 6 256 -4 5 -22 3 -39 -4 -29 -11 -35 -9 -61 16
-16 15 -38 45 -48 67 -20 44 -119 161 -249 293 -50 50 -94 105 -105 130 l-19
44 25 20 c13 10 56 34 94 52 39 19 79 41 90 50 25 20 29 20 53 -1z m-2250
-151 c-3 -38 -20 -50 -47 -33 -12 8 -12 14 -1 43 7 18 18 39 23 46 16 20 29
-10 25 -56z m1822 32 c0 -8 -4 -14 -10 -14 -5 0 -10 9 -10 21 0 11 5 17 10 14
6 -3 10 -13 10 -21z m-1970 -19 c0 -19 -5 -25 -22 -25 -13 0 -30 5 -38 10 -13
9 -12 12 4 25 31 24 56 19 56 -10z m-2095 -25 c3 -5 1 -17 -4 -27 -5 -10 -16
-54 -25 -99 -9 -45 -39 -153 -66 -240 -28 -87 -55 -188 -61 -224 -9 -49 -30
-101 -91 -215 -44 -82 -93 -168 -108 -190 -15 -22 -37 -58 -48 -81 -11 -22
-28 -46 -37 -54 -9 -8 -29 -41 -44 -74 -25 -54 -226 -344 -330 -476 -48 -61
-105 -159 -97 -167 11 -12 175 148 176 172 0 20 90 145 116 161 13 9 41 41 60
70 19 29 52 72 73 95 l37 42 29 -36 c23 -31 29 -50 33 -110 3 -53 13 -91 38
-146 36 -78 43 -134 21 -160 -8 -9 -20 -38 -27 -66 -7 -27 -33 -103 -57 -168
-24 -64 -52 -152 -62 -195 -10 -42 -29 -94 -41 -115 -12 -21 -31 -70 -41 -110
-11 -40 -40 -118 -66 -175 -25 -56 -44 -105 -40 -108 13 -13 46 9 56 36 5 17
21 45 35 63 14 18 32 60 40 92 8 33 28 87 45 119 17 32 31 68 31 78 0 11 8 32
19 46 10 15 30 69 45 121 15 52 40 125 56 162 17 37 30 75 30 84 0 46 43 72
69 41 6 -7 33 -56 60 -107 26 -52 69 -134 94 -183 26 -49 62 -109 82 -134 19
-25 35 -49 35 -54 0 -25 23 -1 50 53 36 70 55 74 83 17 18 -36 18 -38 -4 -85
-12 -26 -28 -61 -36 -76 l-14 -29 48 4 c39 2 47 0 45 -12 -2 -8 -8 -61 -13
-118 -8 -92 -7 -109 12 -165 11 -34 24 -66 27 -72 4 -5 7 -34 8 -64 l2 -53
-77 -81 c-42 -44 -109 -105 -149 -134 -40 -30 -110 -89 -155 -132 -47 -44
-114 -94 -157 -118 -41 -22 -116 -71 -167 -107 -51 -36 -105 -71 -120 -78 -15
-6 -55 -39 -88 -72 -50 -51 -90 -77 -235 -153 -229 -120 -321 -155 -526 -197
-93 -19 -197 -42 -232 -50 -57 -13 -70 -13 -153 4 -107 22 -130 36 -170 98
-29 46 -30 50 -24 132 6 81 18 136 51 241 19 61 18 81 -2 77 -27 -5 -53 -48
-74 -122 -20 -71 -26 -83 -36 -73 -22 22 -48 329 -39 461 11 160 25 289 40
366 8 41 19 120 25 175 11 108 23 190 45 300 8 39 19 99 25 135 6 36 25 110
42 165 30 96 34 103 98 165 37 36 85 90 107 120 22 30 47 61 55 67 8 7 23 31
33 53 10 22 22 40 27 40 4 0 8 9 8 19 0 11 4 22 9 25 5 3 12 17 15 31 4 15 20
45 36 67 17 23 30 46 30 52 0 13 144 136 158 136 10 0 82 100 82 114 0 4 21
29 48 55 26 26 52 54 58 62 16 19 42 40 87 68 20 12 37 26 37 31 0 4 33 41 73
81 48 50 94 86 141 109 73 38 306 223 306 244 0 8 17 25 39 39 68 45 202 171
221 207 10 19 28 44 40 55 12 11 28 35 36 54 8 18 30 51 48 72 19 21 42 51 50
67 14 28 62 71 78 72 4 0 9 -4 13 -10z m1892 -141 c5 -65 11 -88 35 -123 36
-55 91 -259 92 -343 1 -48 -3 -66 -17 -80 -18 -17 -20 -16 -58 27 -21 25 -55
74 -76 110 -20 36 -51 81 -68 101 -38 43 -59 100 -51 135 6 21 0 29 -44 56
-46 29 -66 58 -38 58 23 0 81 54 136 128 l56 76 13 -33 c8 -18 17 -69 20 -112z
m1003 127 c0 -3 -4 -8 -10 -11 -5 -3 -10 -1 -10 4 0 6 5 11 10 11 6 0 10 -2
10 -4z m1178 -91 c0 -69 -9 -107 -25 -112 -23 -8 -18 126 7 207 6 19 19 -46
18 -95z m91 -156 c-9 -106 -18 -164 -26 -166 -6 -3 -24 14 -39 36 -25 38 -25
42 -11 64 13 21 25 111 26 200 0 15 6 37 12 49 l11 20 21 -20 c20 -20 20 -23
6 -183z m-3124 148 c4 -18 2 -45 -4 -60 -9 -24 -14 -26 -31 -17 -24 13 -26 51
-4 85 22 33 32 31 39 -8z m1055 13 c0 -11 11 -30 25 -42 26 -22 33 -48 14 -48
-19 0 -68 40 -74 61 -7 20 9 49 26 49 5 0 9 -9 9 -20z m240 10 c0 -5 -4 -10
-10 -10 -5 0 -10 5 -10 10 0 6 5 10 10 10 6 0 10 -4 10 -10z m-958 -45 c50
-25 97 -50 104 -55 9 -8 -1 -36 -42 -117 -57 -112 -67 -151 -36 -138 50 21 60
18 71 -21 6 -22 14 -62 17 -89 7 -59 -16 -119 -70 -181 l-33 -38 -7 54 c-4 29
-12 62 -17 72 -9 17 1 76 27 160 4 13 -3 19 -28 26 -62 16 -71 93 -23 209 43
106 26 125 -34 37 -35 -51 -78 -90 -88 -80 -6 6 12 151 23 189 8 27 38 21 136
-28z m-454 -78 c6 -7 29 -66 51 -131 21 -65 46 -125 55 -135 9 -10 16 -23 16
-29 0 -17 -45 -43 -62 -37 -23 9 -55 73 -82 169 -28 96 -31 127 -16 157 12 22
23 24 38 6z m3492 -87 c13 -23 13 -70 1 -70 -18 0 -51 53 -51 82 0 25 2 28 20
18 11 -6 24 -19 30 -30z m-2851 -7 c21 -25 31 -49 31 -70 0 -36 -28 -113 -40
-113 -13 0 -46 51 -59 93 -10 29 -10 45 0 75 21 66 25 67 68 15z m-739 -28
c21 -63 -12 -137 -46 -103 -26 26 -28 80 -4 111 28 35 36 34 50 -8z m3441 -2
c10 -11 14 -48 14 -132 l0 -116 42 -9 c32 -7 45 -16 54 -38 16 -40 6 -68 -56
-145 -59 -73 -63 -84 -40 -103 14 -12 34 -11 119 2 28 5 52 -35 96 -162 53
-151 97 -355 120 -565 11 -93 26 -217 34 -275 24 -167 57 -452 56 -490 0 -23
-7 -42 -20 -53 -13 -10 -20 -29 -20 -50 0 -37 -50 -117 -74 -117 -24 0 -179
104 -386 260 -113 85 -236 177 -273 204 -38 26 -93 79 -123 116 -30 38 -66 76
-79 84 -25 16 -25 17 -8 44 10 15 46 55 80 89 l61 63 31 -38 c22 -28 32 -34
41 -25 9 8 2 22 -30 57 l-42 45 32 40 c35 43 35 34 15 221 -5 46 -2 61 18 95
22 38 25 40 72 40 27 0 50 5 52 11 2 6 -8 25 -22 42 -34 41 -52 86 -59 152
-10 83 24 113 38 35 7 -38 32 -57 46 -35 8 14 -6 78 -22 98 -6 6 -22 18 -37
25 -37 18 -54 61 -55 142 -1 68 17 135 36 135 11 0 38 -62 38 -87 0 -25 48
-93 65 -93 23 0 18 40 -16 132 -37 99 -79 244 -79 275 0 68 74 4 140 -122 49
-93 62 -100 93 -47 22 38 17 59 -33 122 l-29 37 24 23 c14 13 30 42 36 64 6
23 13 47 15 54 5 17 19 15 35 -5z m-3198 -15 c4 -12 4 -24 1 -27 -6 -7 -24 20
-24 37 0 21 17 13 23 -10z m642 -148 c17 -37 17 -42 1 -82 -24 -63 -75 -140
-89 -135 -19 6 -57 79 -57 109 0 28 38 123 66 166 l16 24 23 -22 c12 -11 30
-39 40 -60z m-1011 54 c3 -9 6 -38 6 -65 0 -62 -19 -73 -60 -34 -40 38 -44 62
-15 91 28 28 60 31 69 8z m3836 -11 c20 -25 22 -36 16 -103 -6 -86 -22 -150
-37 -150 -22 0 -39 71 -39 159 0 49 3 96 6 105 9 24 30 19 54 -11z m-3269 -30
c6 -16 11 -58 12 -95 2 -52 -2 -71 -15 -84 -10 -10 -21 -15 -25 -11 -9 10 -17
181 -10 202 10 23 26 18 38 -12z m-382 -40 c24 -93 24 -111 1 -123 -26 -14
-50 -7 -50 16 0 9 -9 27 -20 41 -25 33 -25 35 6 72 34 41 51 39 63 -6z m1845
-8 c19 -19 35 -25 70 -25 25 0 47 -4 51 -10 9 -15 -44 -44 -93 -50 -38 -4 -51
-12 -85 -52 l-40 -47 34 -28 c19 -15 47 -40 62 -55 l28 -28 -20 -29 c-31 -43
-11 -58 89 -67 85 -7 102 -18 46 -28 -39 -8 -61 -29 -52 -52 5 -12 16 -14 58
-9 54 7 114 -7 104 -24 -3 -5 -29 -14 -57 -21 -95 -23 -70 -70 37 -70 53 0 67
-4 93 -26 32 -27 40 -55 19 -71 -7 -5 -74 -24 -150 -42 -157 -38 -267 -42
-440 -16 -96 14 -264 58 -280 73 -4 4 0 29 10 55 14 40 15 49 3 56 -25 16 -65
-5 -94 -47 -16 -23 -33 -40 -38 -36 -5 3 -3 15 6 27 8 12 15 34 15 49 0 22 7
32 34 44 20 10 48 39 69 71 l37 55 -3 -67 c-2 -79 7 -87 52 -50 35 30 39 56
19 133 l-11 46 57 51 56 51 -30 22 c-16 13 -30 26 -30 30 0 17 70 -1 90 -23
28 -30 34 -117 9 -137 -41 -33 -23 -86 24 -74 38 9 58 45 67 119 4 35 13 73
19 85 14 27 14 67 -1 92 -18 28 -1 41 69 55 66 13 86 34 60 63 -36 39 -2 46
37 7z m958 -61 c71 -118 95 -156 119 -186 31 -38 19 -72 -54 -143 -71 -70
-138 -104 -215 -112 l-55 -6 5 102 c3 58 10 107 17 114 6 6 29 10 51 8 43 -3
54 15 25 39 -21 17 -19 76 6 173 11 45 23 85 26 90 11 18 30 -2 75 -79z m997
-25 c22 -33 23 -39 18 -164 -8 -181 -12 -188 -83 -137 l-39 29 1 114 c1 112 6
151 25 198 9 21 11 22 32 9 12 -8 33 -30 46 -49z m-3564 -69 c38 -15 48 -45
42 -126 -5 -57 -3 -74 8 -84 21 -18 19 -29 -20 -124 -19 -47 -35 -92 -35 -100
0 -31 31 -15 46 24 24 59 39 50 54 -31 13 -69 13 -74 -8 -110 -36 -63 -28
-139 15 -139 31 0 62 -65 63 -133 0 -26 7 -64 15 -83 10 -25 12 -41 5 -54 -16
-29 -12 -42 10 -35 10 3 28 1 40 -5 17 -9 19 -17 14 -50 -7 -46 3 -50 60 -26
43 18 48 27 35 64 -9 27 -6 40 25 103 20 40 36 81 36 91 0 11 8 28 19 39 19
21 81 141 81 159 0 25 -32 7 -46 -26 -8 -20 -27 -55 -41 -78 l-26 -41 -13 35
c-19 52 -17 86 11 161 13 38 21 69 16 69 -15 0 -101 -99 -101 -117 0 -27 -44
-115 -67 -136 -18 -16 -21 -16 -33 -2 -35 42 34 218 120 307 l48 50 66 -35
c36 -19 70 -37 76 -39 7 -2 5 -20 -6 -51 -9 -26 -14 -51 -10 -54 10 -10 31 14
46 51 l14 36 65 -6 c59 -5 69 -4 89 16 12 11 20 25 17 30 -3 5 -33 19 -65 31
-33 12 -60 27 -60 34 0 7 11 28 24 48 33 48 21 54 -28 14 -23 -19 -47 -37 -54
-41 -13 -8 -132 32 -132 44 1 3 13 23 28 45 21 30 36 41 58 43 l31 3 -1 62
c-1 58 2 68 54 154 33 56 62 93 71 93 23 0 79 -54 79 -77 -1 -10 -14 -52 -30
-93 -17 -41 -30 -80 -30 -86 0 -6 -10 -23 -21 -38 -16 -20 -19 -30 -10 -39 17
-17 30 1 81 106 39 79 48 92 70 92 17 0 29 -8 38 -27 9 -20 21 -28 39 -28 l26
0 -7 -97 c-8 -114 -34 -222 -82 -348 -52 -134 -77 -185 -117 -237 -20 -26 -41
-65 -47 -88 -12 -43 -51 -124 -74 -150 -8 -8 -21 -31 -31 -50 -10 -19 -39 -60
-65 -90 -26 -31 -72 -94 -103 -140 -107 -166 -270 -339 -524 -557 -154 -132
-216 -175 -363 -250 -71 -36 -201 -83 -212 -77 -4 3 2 25 12 49 24 55 11 59
-46 14 -36 -28 -39 -29 -51 -13 -20 27 -16 39 27 89 22 25 40 51 40 56 0 6 12
21 26 34 25 23 25 24 8 57 -9 18 -24 42 -33 53 -33 39 -76 166 -76 225 1 93
39 279 75 360 32 73 48 122 90 280 11 41 25 140 31 220 5 80 16 164 24 188 17
50 19 96 5 122 -7 13 -7 33 0 62 5 24 12 55 15 69 3 18 35 51 102 105 54 44
112 93 129 110 29 31 106 81 229 151 33 19 67 41 75 49 13 13 15 10 18 -31 3
-38 7 -48 27 -55z m-708 53 c3 -10 19 -51 34 -91 33 -83 36 -120 14 -162 -20
-40 -31 -38 -46 8 -6 20 -18 48 -25 62 -7 14 -20 42 -28 63 -19 46 -46 50 -46
6 0 -17 10 -69 22 -116 16 -60 19 -89 12 -101 -14 -24 -162 -98 -174 -86 -5 5
-20 45 -35 89 -14 44 -33 94 -42 111 -15 30 -15 34 3 64 11 19 25 35 31 37 17
6 39 -42 52 -110 16 -85 45 -147 70 -147 28 0 27 32 -3 134 -46 155 -43 170
34 182 31 5 44 14 59 40 22 37 58 46 68 17z m212 -48 l25 -58 -29 -23 c-17
-13 -33 -24 -36 -24 -9 0 -21 148 -14 161 13 20 30 2 54 -56z m1640 52 c6 -8
8 -17 5 -20 -9 -8 -44 11 -44 23 0 15 26 12 39 -3z m-1538 -22 c0 -5 -9 -11
-21 -13 -15 -3 -18 1 -14 13 7 17 35 17 35 0z m603 -102 c17 -49 21 -113 9
-113 -5 0 -26 11 -48 23 -46 26 -50 52 -21 121 13 31 19 36 30 27 8 -7 22 -33
30 -58z m217 -8 c32 -65 32 -66 15 -103 -27 -57 -61 -96 -80 -89 -10 4 -24 24
-33 44 -20 49 -11 116 22 155 14 16 25 36 25 44 0 31 20 11 51 -51z m1351 35
c22 -27 23 -69 3 -76 -42 -17 -93 19 -102 70 l-6 39 44 -6 c28 -4 50 -14 61
-27z m-2182 -62 c-69 -63 -128 -103 -138 -94 -8 8 18 32 118 106 35 27 67 47
70 43 3 -3 -20 -28 -50 -55z m1540 8 c0 -44 -22 -63 -55 -48 -33 15 -31 35 6
66 37 31 49 26 49 -18z m-2260 -55 c0 -23 -16 -36 -25 -21 -9 14 1 40 15 40 5
0 10 -9 10 -19z m84 -158 c9 -26 16 -59 16 -75 0 -24 -4 -28 -28 -28 -41 0
-52 17 -52 78 0 103 33 116 64 25z m3787 8 c-1 -21 5 -63 13 -93 13 -42 14
-65 6 -106 -10 -56 -26 -92 -39 -92 -7 0 -112 217 -111 232 0 12 122 110 128
103 4 -3 5 -23 3 -44z m-2450 -1 c30 -16 23 -41 -36 -135 -30 -48 -57 -95 -60
-106 -4 -10 -11 -19 -17 -19 -18 0 1 70 38 139 44 82 44 109 2 102 -13 -2 -9
17 5 22 21 9 47 7 68 -3z m-1621 -30 c0 -5 -7 -10 -16 -10 -8 0 -12 5 -9 10 3
6 10 10 16 10 5 0 9 -4 9 -10z m637 -164 c-7 -239 -48 -511 -103 -685 -8 -25
-14 -54 -14 -65 0 -12 -11 -56 -25 -100 -13 -43 -27 -97 -30 -120 -10 -64 -21
-76 -44 -49 -27 32 -106 181 -121 228 -7 22 -21 51 -31 65 -26 38 -87 191
-100 250 -9 41 -18 55 -44 73 -32 21 -33 23 -40 118 -5 83 -3 107 15 165 23
75 52 114 85 114 11 0 45 7 75 15 30 9 75 21 100 27 25 5 59 20 75 33 17 12
50 33 73 46 24 13 58 32 75 41 54 30 59 16 54 -156z m891 152 c-3 -7 -13 -15
-24 -17 -16 -3 -17 -1 -5 13 16 19 34 21 29 4z m3588 -175 c67 -45 132 -96
144 -113 14 -19 30 -30 45 -30 14 0 31 -9 39 -22 29 -44 67 -161 61 -186 -3
-13 -48 -94 -99 -180 -51 -86 -128 -220 -171 -297 -102 -183 -125 -216 -143
-213 -27 5 -41 94 -67 441 -15 201 -57 546 -75 625 -6 24 -20 62 -31 84 -35
69 -21 73 83 20 51 -26 148 -85 214 -129z m140 111 c9 -20 13 -47 10 -60 -5
-20 -13 -24 -42 -24 -21 0 -37 6 -40 14 -7 18 31 106 46 106 6 0 18 -16 26
-36z m-5188 -56 c18 -18 14 -67 -8 -95 -11 -14 -20 -32 -20 -39 0 -16 -2 -16
-25 -8 -20 8 -78 121 -71 140 7 18 107 19 124 2z m-160 -161 c4 -55 -10 -101
-30 -95 -22 8 -36 141 -18 163 21 26 43 -5 48 -68z m2357 -27 c11 -18 -5 -31
-26 -20 -11 6 -17 15 -14 21 8 12 32 12 40 -1z m3269 -32 c6 -26 0 -38 -19
-38 -16 0 -31 43 -21 59 10 15 33 2 40 -21z m-2334 12 c0 -5 -9 -10 -19 -10
-11 0 -23 5 -26 10 -4 6 5 10 19 10 14 0 26 -4 26 -10z m-183 -56 c8 -21 -13
-42 -28 -27 -13 13 -5 43 11 43 6 0 13 -7 17 -16z m370 -22 c-26 -27 -37 -72
-17 -72 6 0 10 -4 10 -10 0 -15 -31 -12 -44 5 -6 8 -36 18 -66 23 l-55 8 50
18 c28 9 66 26 85 36 53 27 68 24 37 -8z m-3431 -37 c-8 -63 -23 -87 -49 -83
-32 4 -32 36 0 86 38 58 58 56 49 -3z m2334 30 c10 -12 10 -19 1 -28 -9 -9
-18 -8 -38 3 -15 8 -28 21 -31 28 -6 18 53 15 68 -3z m-612 -11 c28 -19 28
-53 2 -105 -38 -74 -105 -79 -80 -5 8 26 8 40 0 56 -14 26 -5 57 18 63 30 8
37 7 60 -9z m763 -38 c3 -20 11 -42 18 -49 21 -21 11 -27 -50 -27 l-61 0 26
31 c14 17 26 41 26 53 0 51 32 45 41 -8z m307 1 c-21 -17 -25 -26 -17 -39 8
-14 6 -18 -5 -18 -21 0 -48 -55 -44 -88 3 -28 17 -32 66 -17 19 6 22 4 22 -17
0 -36 16 -47 58 -37 32 7 72 39 72 58 0 14 -17 29 -48 45 -46 24 -40 51 11 50
24 -1 54 -13 89 -38 29 -20 65 -36 80 -36 15 0 43 -8 62 -17 33 -15 38 -15 75
2 22 9 46 15 54 12 8 -3 29 -50 46 -104 32 -102 67 -174 89 -181 7 -2 12 5 12
18 0 28 16 58 49 93 l26 29 -23 18 c-12 10 -28 20 -35 23 -24 8 2 19 60 24
l60 5 21 -36 c24 -40 55 -56 109 -56 31 0 44 -8 85 -50 26 -27 48 -55 48 -60
0 -56 -724 -200 -927 -186 -119 9 -155 23 -166 66 -12 46 -4 219 12 248 11 20
10 27 -4 42 -9 10 -20 31 -24 46 -7 26 -12 29 -42 26 -43 -3 -66 -30 -74 -87
-9 -55 -1 -67 40 -63 48 4 53 -8 10 -22 -19 -6 -43 -23 -52 -37 -16 -24 -16
-26 2 -39 10 -8 24 -14 31 -14 19 0 37 -56 30 -95 l-7 -35 -82 5 c-132 9 -169
14 -183 26 -22 18 -16 48 12 61 22 10 28 10 39 -5 18 -25 50 -21 63 7 6 13 23
75 37 138 26 110 79 290 92 312 4 6 10 0 13 -14 11 -45 83 -39 95 7 10 41 24
53 59 53 l31 -1 -27 -22z m-470 -49 c-3 -28 -7 -34 -32 -36 -45 -5 -51 12 -16
42 41 34 52 33 48 -6z m867 22 c3 -5 -1 -10 -9 -10 -9 0 -16 5 -16 10 0 6 4
10 9 10 6 0 13 -4 16 -10z m586 -32 c12 -24 27 -50 34 -58 7 -8 18 -38 25 -67
6 -28 18 -60 25 -70 20 -25 18 -33 -5 -33 -13 0 -25 11 -33 33 -8 17 -34 59
-59 92 -68 90 -73 103 -52 126 26 29 41 23 65 -23z m-203 -41 l22 -24 -25 -11
c-32 -15 -49 -15 -99 -1 -44 12 -39 22 19 43 54 20 58 19 83 -7z m-1070 -44
c-13 -16 -35 -45 -47 -65 -24 -40 -58 -51 -79 -25 -14 16 -5 30 33 50 17 9 44
27 60 41 42 35 66 34 33 -1z m-2394 1 c16 -42 -9 -124 -39 -124 -15 0 -45 37
-45 57 0 14 58 83 70 83 4 0 11 -7 14 -16z m5404 -26 c14 -14 16 -74 3 -82
-14 -9 -31 19 -38 58 -6 38 10 49 35 24z m-5337 -168 c-6 -22 -23 -52 -36 -67
-27 -30 -38 -25 -52 26 -7 30 4 49 47 79 44 29 58 17 41 -38z m5259 8 c26 -43
25 -70 -4 -97 l-24 -23 -15 24 c-26 40 -31 76 -13 103 22 33 32 32 56 -7z
m-3136 13 c3 -5 25 -14 48 -20 47 -12 93 -45 84 -60 -8 -13 -78 5 -87 22 -5 8
-22 20 -39 27 -16 7 -30 19 -30 26 0 16 16 19 24 5z m3324 -19 c6 -5 19 -35
27 -68 17 -68 146 -326 248 -494 38 -63 85 -143 105 -177 65 -114 308 -380
487 -532 33 -29 92 -67 130 -86 79 -39 303 -110 475 -150 136 -32 268 -83 282
-108 7 -14 4 -28 -16 -57 -14 -21 -36 -46 -48 -55 -13 -8 -39 -27 -58 -40 -91
-64 -127 -74 -296 -84 -204 -12 -272 -4 -475 58 -359 109 -742 293 -934 448
-46 38 -217 143 -231 143 -8 0 -28 13 -46 29 -18 15 -47 36 -65 45 -18 9 -51
43 -74 77 -22 33 -70 91 -106 129 l-65 69 34 9 c28 7 35 15 49 57 13 41 23 54
60 75 27 16 45 35 47 48 2 12 7 22 11 22 5 0 14 15 22 33 7 17 38 68 69 112
32 44 89 134 128 200 39 66 84 140 99 164 15 24 35 57 45 73 35 62 64 80 96
60z m-3369 -104 c34 -2 48 -9 64 -30 17 -23 18 -29 7 -43 -16 -19 -36 -17
-162 18 -87 24 -146 53 -133 65 4 4 34 16 68 28 l62 20 25 -28 c19 -20 36 -28
69 -30z m-1969 15 c-1 -24 -73 -156 -85 -156 -5 0 -21 19 -34 43 l-24 43 46
44 c49 46 97 59 97 26z m5045 -41 c-4 -21 0 -36 16 -56 l22 -28 -31 -30 c-39
-39 -62 -32 -63 19 -3 95 7 123 43 123 16 0 19 -5 13 -28z m-4994 -124 c10
-25 9 -39 -7 -91 -14 -43 -26 -63 -39 -66 -40 -7 -58 66 -34 140 21 64 57 72
80 17z m1827 -35 c-14 -16 -28 -36 -31 -45 -7 -21 -23 -23 -33 -6 -4 6 8 25
29 45 44 40 71 44 35 6z m1519 -15 c36 -25 42 -42 17 -52 -33 -12 -55 -6 -64
20 -22 58 -7 68 47 32z m-1247 -16 c0 -30 -16 -52 -37 -52 -18 0 -16 31 3 58
21 30 34 28 34 -6z m2805 -52 c23 -50 11 -70 -30 -52 -36 17 -50 58 -30 89 20
30 34 21 60 -37z m-1775 20 c0 -14 -60 -39 -77 -33 -17 7 -17 30 0 36 23 10
77 7 77 -3z m-832 -28 c9 -14 10 -22 3 -22 -6 0 -11 4 -11 9 0 5 -8 17 -17 27
-12 12 -13 16 -4 13 8 -3 21 -15 29 -27z m522 -7 c7 -9 10 -25 6 -40 -5 -21
-11 -25 -29 -19 -48 14 -62 44 -29 63 24 14 38 13 52 -4z m-275 -15 c-28 -12
-57 -12 -50 0 3 6 21 10 38 9 27 0 29 -2 12 -9z m2269 -82 c23 -32 20 -55 -9
-74 -30 -19 -55 -6 -55 30 0 23 26 66 40 66 5 0 16 -10 24 -22z m-2092 -13 c5
-8 18 -15 28 -15 11 0 34 -13 53 -30 l34 -29 44 24 45 23 42 -18 c24 -11 42
-26 42 -35 0 -23 76 -55 132 -55 26 0 50 -4 53 -10 17 -27 -62 -114 -153 -168
-60 -36 -65 -38 -82 -17 -16 19 -80 19 -190 0 -108 -19 -271 -21 -302 -3 -22
12 -20 13 25 16 43 3 50 7 73 42 39 59 30 68 -58 62 -85 -5 -125 -23 -139 -60
-10 -26 -11 -27 -26 -7 -19 26 -12 108 12 135 10 11 44 29 75 41 54 20 58 23
64 60 5 30 11 39 26 39 17 0 20 -7 20 -40 0 -36 2 -40 25 -40 29 0 95 25 95
36 0 4 -10 18 -22 31 -19 21 -20 26 -8 34 21 13 82 3 92 -16z m228 15 c0 -5
-4 -10 -10 -10 -5 0 -10 5 -10 10 0 6 5 10 10 10 6 0 10 -4 10 -10z m-530 -26
c0 -21 -38 -38 -56 -23 -21 17 -17 37 9 41 30 5 47 -1 47 -18z m-266 1 c6 -9
29 -18 51 -22 53 -8 65 -19 65 -59 0 -36 -9 -41 -41 -23 -16 8 -26 7 -45 -6
-27 -18 -31 -46 -9 -69 19 -19 19 -50 1 -65 -12 -10 -18 -7 -31 13 -27 41 -34
246 -8 246 3 0 11 -7 17 -15z m1109 -7 c13 -19 2 -48 -17 -48 -9 0 -18 11 -22
24 -11 44 17 60 39 24z m-113 -18 c0 -5 -7 -10 -16 -10 -8 0 -12 5 -9 10 3 6
10 10 16 10 5 0 9 -4 9 -10z m-1120 -66 c0 -8 -4 -12 -10 -9 -5 3 -10 10 -10
16 0 5 5 9 10 9 6 0 10 -7 10 -16z m-1770 -133 c16 -32 12 -62 -16 -98 -27
-36 -53 -43 -55 -15 -8 95 40 171 71 113z m2644 -194 c28 -20 10 -44 -58 -76
-35 -16 -70 -41 -80 -55 -26 -40 -58 -34 -103 19 -38 46 -53 55 -53 33 0 -7
-4 -19 -9 -27 -7 -12 -14 -10 -36 8 -15 11 -35 21 -45 21 -9 0 -25 9 -34 19
-25 28 -5 35 55 20 60 -16 185 -1 252 30 50 23 87 26 111 8z m1659 -118 c12
-33 -48 -165 -93 -202 -31 -27 -64 -35 -74 -19 -8 13 16 74 42 106 12 16 22
36 22 45 0 27 60 102 79 99 8 -2 20 -15 24 -29z m-4238 -246 c19 -27 40 -64
46 -83 6 -19 27 -56 45 -81 57 -78 47 -105 -38 -108 -23 -1 -28 4 -34 34 -3
19 -10 38 -15 41 -5 3 -9 18 -9 34 0 16 -11 59 -25 96 -26 69 -32 114 -15 114
5 0 25 -21 45 -47z m4245 -323 c0 -5 -7 -10 -15 -10 -8 0 -15 5 -15 10 0 6 7
10 15 10 8 0 15 -4 15 -10z m94 -125 c6 -10 32 -52 59 -93 48 -75 54 -92 38
-92 -18 0 -71 52 -71 70 0 10 -4 21 -8 24 -23 14 -62 84 -56 100 8 20 24 17
38 -9z m-4378 -80 c-8 -62 -70 -204 -105 -243 -34 -37 -73 -49 -107 -33 -39
18 -32 60 22 128 58 72 175 193 188 193 5 0 6 -20 2 -45z m-2426 -83 c0 -13
-12 -22 -22 -16 -10 6 -1 24 13 24 5 0 9 -4 9 -8z m2097 -458 c-10 -63 -96
-174 -134 -174 -27 0 -11 39 49 123 67 95 95 111 85 51z m5134 26 c24 -13 24
-27 0 -35 -23 -7 -71 14 -71 32 0 16 43 17 71 3z m217 -270 c54 -33 92 -116
61 -136 -6 -3 -23 5 -38 19 -14 14 -48 46 -74 71 -27 25 -46 50 -42 56 10 16
57 12 93 -10z m-5550 -88 c5 -32 -33 -95 -99 -166 -67 -72 -93 -86 -117 -63
-19 20 -10 35 85 134 37 39 76 83 86 98 21 30 40 29 45 -3z m-280 -220 c2 -7
-3 -12 -12 -12 -9 0 -16 7 -16 16 0 17 22 14 28 -4z"/>
<path d="M5714 10969 c-16 -17 -16 -22 -4 -30 8 -5 31 -8 50 -7 43 4 52 29 15
46 -35 16 -39 15 -61 -9z"/>
<path d="M5946 10451 c-39 -53 -44 -71 -20 -71 26 0 84 65 84 94 0 40 -24 32
-64 -23z"/>
<path d="M5684 10179 c-14 -16 -16 -22 -5 -28 18 -12 50 -2 61 19 19 35 -26
42 -56 9z"/>
<path d="M5621 10057 c-17 -17 -13 -54 5 -61 18 -7 54 19 54 39 0 19 -45 36
-59 22z"/>
<path d="M5720 9880 c-25 -10 -58 -19 -73 -19 -32 -1 -45 -24 -26 -47 21 -26
123 -15 154 17 56 57 26 84 -55 49z"/>
<path d="M5830 9850 c-17 -31 -3 -43 43 -37 45 6 62 19 54 41 -10 25 -83 22
-97 -4z"/>
<path d="M4883 9803 c-23 -9 -15 -35 10 -31 12 2 22 9 22 17 0 16 -14 22 -32
14z"/>
<path d="M5690 9380 c-6 -12 -10 -31 -8 -43 2 -18 11 -23 41 -25 47 -4 58 18
30 56 -26 35 -49 39 -63 12z"/>
<path d="M5894 8999 c-19 -37 -8 -55 29 -45 27 6 39 35 25 60 -14 25 -36 19
-54 -15z"/>
<path d="M5779 8989 c-22 -22 -21 -42 4 -47 21 -4 58 34 51 53 -8 21 -30 19
-55 -6z"/>
<path d="M5633 8824 c-18 -18 -22 -29 -14 -37 18 -18 61 8 61 38 0 32 -14 32
-47 -1z"/>
<path d="M5711 8786 c-17 -21 -10 -70 11 -74 22 -4 52 41 43 68 -7 23 -37 27
-54 6z"/>
<path d="M5867 8782 c-24 -26 -21 -51 8 -64 30 -13 55 3 55 36 0 43 -35 59
-63 28z"/>
<path d="M5886 8578 c-29 -41 -17 -60 25 -38 22 13 26 60 5 60 -8 0 -22 -10
-30 -22z"/>
<path d="M5564 8555 c-33 -50 9 -85 62 -51 29 20 31 51 5 66 -31 16 -49 12
-67 -15z"/>
<path d="M5777 8493 c-18 -17 -5 -45 28 -59 45 -18 64 -18 72 3 13 32 -75 82
-100 56z"/>
<path d="M5702 8408 c-7 -7 -12 -25 -12 -41 0 -27 2 -28 42 -25 50 4 61 25 29
57 -24 24 -42 26 -59 9z"/>
<path d="M5592 8368 c-16 -16 -15 -58 2 -58 19 0 38 26 34 46 -4 22 -20 28
-36 12z"/>
<path d="M5852 8267 c-31 -33 -28 -56 11 -72 41 -17 77 -9 77 15 0 19 -46 80
-59 80 -4 0 -17 -10 -29 -23z"/>
<path d="M5716 8188 c-20 -28 -20 -44 -1 -52 20 -7 45 20 45 50 0 30 -24 32
-44 2z"/>
<path d="M5613 8093 c-7 -2 -13 -13 -13 -23 0 -22 18 -30 48 -19 25 10 29 34
6 43 -18 7 -23 7 -41 -1z"/>
<path d="M5930 8012 c-46 -37 8 -73 56 -38 15 12 17 18 8 33 -16 25 -37 27
-64 5z"/>
<path d="M5711 7987 c-18 -23 -18 -61 1 -65 21 -4 84 51 74 66 -10 16 -61 15
-75 -1z"/>
<path d="M5852 7944 c-29 -20 -30 -70 -2 -79 49 -15 80 43 42 78 -16 15 -20
15 -40 1z"/>
<path d="M5546 7871 c-31 -34 -17 -56 37 -59 54 -4 60 9 26 52 -24 31 -40 33
-63 7z"/>
<path d="M5668 7769 c-22 -12 -23 -48 -2 -56 20 -7 63 12 71 33 11 29 -34 44
-69 23z"/>
<path d="M5563 7593 c-20 -8 -16 -51 6 -58 36 -11 67 17 55 50 -6 15 -36 19
-61 8z"/>
<path d="M5716 7558 c-30 -42 -9 -71 33 -48 23 12 27 40 9 58 -17 17 -25 15
-42 -10z"/>
<path d="M5927 7445 c-20 -14 -47 -25 -61 -25 -31 0 -58 -39 -29 -41 30 -2 57
3 68 11 6 5 26 10 45 12 27 2 36 8 38 24 5 38 -20 46 -61 19z"/>
<path d="M5954 7326 c-14 -59 17 -78 61 -35 25 24 11 52 -28 57 -21 3 -28 -2
-33 -22z"/>
<path d="M5735 7260 c-20 -23 -14 -50 13 -50 25 0 42 19 42 47 0 29 -30 31
-55 3z"/>
<path d="M5850 7220 c-8 -6 -34 -15 -57 -21 -28 -8 -43 -17 -47 -32 -3 -12 -4
-23 -2 -25 6 -5 170 19 178 26 4 4 2 18 -5 32 -14 27 -43 36 -67 20z"/>
<path d="M5626 7168 c-22 -31 -20 -47 8 -54 37 -9 68 12 64 44 -4 37 -49 43
-72 10z"/>
<path d="M5872 7124 c-27 -19 -28 -44 -2 -51 23 -6 25 -14 9 -30 -6 -6 -9 -21
-7 -34 4 -28 44 -37 78 -19 27 14 25 23 -10 63 -16 19 -30 44 -30 55 0 29 -13
34 -38 16z"/>
<path d="M6550 8156 c-16 -20 -9 -60 11 -64 9 -2 29 8 45 21 24 21 26 27 15
41 -17 20 -55 21 -71 2z"/>
<path d="M6436 8087 c-30 -22 -16 -52 25 -55 49 -4 68 19 40 47 -24 24 -40 26
-65 8z"/>
<path d="M6425 7604 c-11 -12 -14 -25 -9 -43 9 -34 8 -40 -7 -79 -12 -28 -12
-34 1 -43 8 -5 26 -8 40 -7 23 3 25 7 25 53 0 29 7 64 18 82 9 18 17 37 17 43
0 16 -67 12 -85 -6z"/>
<path d="M6437 7313 c-4 -3 -7 -19 -7 -35 0 -27 3 -29 31 -26 43 4 61 34 35
54 -21 15 -48 18 -59 7z"/>
<path d="M6450 7157 c-52 -27 -54 -85 -2 -72 37 9 52 23 52 50 0 28 -20 37
-50 22z"/>
<path d="M5207 9012 c-25 -27 -21 -60 7 -74 51 -22 73 16 40 67 -19 30 -26 31
-47 7z"/>
<path d="M5172 8848 c-12 -12 -16 -40 -6 -50 3 -3 17 -3 32 1 20 6 27 14 27
32 0 27 -32 38 -53 17z"/>
<path d="M5072 8678 c-27 -27 0 -77 34 -64 10 4 14 16 12 38 -3 35 -25 47 -46
26z"/>
<path d="M4635 8116 c-21 -31 -13 -46 25 -46 36 0 42 9 27 40 -17 33 -33 35
-52 6z"/>
<path d="M5121 8131 c-18 -11 -7 -77 14 -85 24 -9 63 11 70 35 13 39 -47 74
-84 50z"/>
<path d="M5168 7943 c-25 -30 -28 -50 -8 -68 17 -16 21 -16 54 0 44 21 47 49
6 70 -36 19 -34 19 -52 -2z"/>
<path d="M5110 7806 c-6 -8 -10 -25 -8 -38 4 -30 39 -35 63 -8 17 19 17 21 0
40 -21 24 -38 25 -55 6z"/>
<path d="M5115 7670 c-20 -22 -14 -50 10 -50 25 0 75 29 75 44 0 30 -59 35
-85 6z"/>
<path d="M6689 5829 c-16 -31 -13 -113 10 -217 29 -134 55 -168 63 -83 2 19 8
36 13 37 6 1 28 -25 50 -59 47 -72 89 -107 107 -89 9 9 9 31 -1 94 -15 104
-49 239 -64 256 -17 21 -27 -13 -20 -69 3 -26 1 -54 -4 -63 -8 -14 -16 -7 -46
42 -20 33 -37 66 -37 74 -1 22 -38 98 -49 98 -6 0 -15 -10 -22 -21z"/>
<path d="M6380 4802 c0 -44 12 -72 32 -72 12 0 10 52 -3 89 -16 45 -29 38 -29
-17z"/>
<path d="M6410 4688 c1 -41 66 -228 102 -289 14 -24 29 -55 33 -69 12 -41 55
-80 55 -49 0 5 -20 56 -44 112 -24 56 -54 134 -66 172 -11 39 -29 85 -40 103
-20 32 -40 42 -40 20z"/>
<path d="M5245 7158 c-38 -21 -48 -61 -19 -72 28 -11 66 21 62 51 -4 31 -15
37 -43 21z"/>
<path d="M7540 6422 c0 -11 9 -27 20 -37 17 -16 20 -16 26 -2 7 20 -13 57 -31
57 -8 0 -15 -8 -15 -18z"/>
<path d="M4693 6655 c-27 -41 -33 -59 -25 -67 21 -21 52 20 76 100 13 40 -13
24 -51 -33z"/>
<path d="M5772 6478 c-34 -34 11 -73 107 -92 53 -10 56 -13 59 -43 4 -40 18
-42 93 -11 93 37 102 57 39 82 -37 15 -43 15 -71 0 -29 -15 -31 -14 -36 5 -4
14 -18 24 -47 31 -22 6 -54 17 -69 25 -35 18 -59 19 -75 3z"/>
<path d="M5266 6065 c-20 -30 -21 -65 -2 -65 17 0 56 51 56 74 0 25 -36 19
-54 -9z"/>
<path d="M5911 5491 c-27 -50 -2 -72 74 -64 93 8 97 10 93 46 -3 29 -6 32 -33
29 -60 -6 -90 -6 -107 2 -11 5 -20 1 -27 -13z"/>
<path d="M6018 5349 c-15 -8 -18 -24 -18 -84 l0 -75 29 0 c16 0 39 8 51 18 20
16 21 21 9 43 -7 13 -15 42 -18 64 -6 42 -23 53 -53 34z"/>
<path d="M5846 5188 c-3 -13 -6 -42 -6 -66 0 -47 13 -58 55 -48 34 9 42 32 20
56 -15 17 -15 20 -3 20 8 0 23 9 32 19 17 19 17 20 -3 30 -11 6 -35 11 -54 11
-27 0 -36 -5 -41 -22z"/>
<path d="M6035 5096 c-21 -31 -5 -66 28 -66 47 0 63 48 25 74 -30 21 -35 20
-53 -8z"/>
<path d="M5927 5012 c-25 -27 -21 -42 12 -42 37 0 59 24 41 45 -17 20 -33 19
-53 -3z"/>
<path d="M8477 5412 c-10 -10 -17 -24 -17 -30 0 -14 97 -79 171 -116 30 -14
75 -40 101 -57 51 -34 109 -51 129 -38 38 23 -269 259 -337 259 -17 0 -38 -8
-47 -18z"/>
<path d="M8974 5026 c-9 -23 11 -51 133 -184 63 -70 130 -149 148 -177 17 -27
77 -104 132 -170 54 -66 120 -152 146 -192 53 -80 108 -133 137 -133 32 0 24
33 -26 105 -25 37 -49 77 -54 90 -5 12 -37 60 -72 106 -36 46 -106 144 -157
217 -85 121 -163 212 -183 212 -4 0 -22 19 -39 43 -53 74 -150 122 -165 83z"/>
<path d="M9661 4141 c-11 -7 -6 -23 25 -81 22 -40 57 -93 79 -117 41 -46 177
-143 200 -143 49 0 10 61 -80 125 -35 26 -67 54 -70 65 -3 10 -12 20 -19 23
-8 3 -28 31 -46 61 -17 31 -40 61 -50 66 -22 12 -21 12 -39 1z"/>
<path d="M2403 3427 c-31 -33 -90 -130 -123 -199 -16 -33 -37 -70 -48 -82 -10
-11 -26 -32 -35 -46 -9 -14 -37 -54 -62 -90 -25 -36 -73 -105 -106 -155 -34
-49 -67 -98 -76 -107 -15 -17 -10 -38 10 -38 22 0 89 54 104 84 9 17 25 42 35
56 11 14 55 86 98 160 43 74 95 159 117 189 32 46 118 239 109 248 -1 2 -12
-7 -23 -20z"/>
<path d="M1879 2628 c-30 -39 -65 -88 -79 -108 -14 -20 -45 -57 -70 -82 -78
-78 -152 -186 -246 -358 -15 -27 -18 -60 -6 -60 23 0 53 37 66 81 9 31 26 59
45 75 16 13 43 50 59 82 19 36 66 94 131 159 55 56 116 127 136 157 33 53 46
108 26 120 -5 3 -33 -26 -62 -66z"/>
<path d="M2629 2581 c-22 -18 -23 -20 -6 -27 18 -6 93 21 103 38 11 17 -74 8
-97 -11z"/>
<path d="M2550 2553 c-8 -3 -43 -28 -78 -55 -34 -27 -90 -66 -123 -88 -33 -21
-82 -56 -110 -76 -91 -70 -48 -85 59 -21 29 18 74 44 100 58 26 14 83 49 126
77 44 29 90 55 103 58 32 8 29 17 -12 37 -38 18 -42 19 -65 10z"/>
<path d="M2040 2193 c-41 -14 -86 -31 -100 -38 -14 -8 -44 -23 -67 -35 -24
-12 -81 -58 -127 -103 -72 -70 -91 -96 -130 -176 -43 -89 -61 -171 -37 -171
14 0 87 120 101 165 16 50 41 84 123 164 80 78 110 98 193 127 106 37 193 96
137 93 -10 0 -52 -12 -93 -26z"/>
<path d="M1442 1980 c-19 -21 -42 -83 -42 -116 0 -29 68 43 80 85 14 53 -4 68
-38 31z"/>
<path d="M7396 4193 c-12 -12 -6 -43 9 -43 8 0 15 9 15 19 0 21 -13 34 -24 24z"/>
<path d="M5977 4514 c-4 -4 -7 -16 -7 -26 0 -15 6 -19 28 -16 19 2 27 9 27 23
0 20 -33 33 -48 19z"/>
<path d="M5990 4335 c-9 -11 -10 -19 -3 -26 14 -14 53 6 53 26 0 20 -34 19
-50 0z"/>
<path d="M5746 4319 c-14 -11 -26 -29 -26 -40 0 -12 -13 -27 -30 -37 -35 -20
-47 -47 -30 -67 15 -18 118 -41 129 -29 10 9 16 92 13 157 -2 43 -16 47 -56
16z"/>
<path d="M6084 4305 c-69 -54 -75 -94 -19 -131 37 -24 52 -5 60 71 4 36 7 68
7 72 -1 16 -18 12 -48 -12z"/>
<path d="M5866 4295 c-16 -17 -12 -40 9 -48 19 -8 55 21 55 44 0 24 -41 26
-64 4z"/>
<path d="M5913 4175 c-3 -9 -3 -18 0 -22 11 -10 57 7 57 22 0 20 -49 20 -57 0z"/>
<path d="M5176 4044 c-11 -28 -6 -39 9 -20 8 11 15 23 15 28 0 14 -18 9 -24
-8z"/>
<path d="M5073 3878 c-25 -40 -54 -92 -64 -114 -11 -23 -26 -47 -34 -54 -16
-14 -20 -40 -6 -40 5 0 17 12 26 28 10 15 49 71 87 125 64 89 79 127 48 127
-5 0 -31 -33 -57 -72z"/>
<path d="M4851 3515 c-32 -37 -37 -50 -22 -59 14 -9 71 52 71 75 0 28 -14 23
-49 -16z"/>
<path d="M6147 3622 c-38 -41 -10 -74 43 -52 48 20 37 70 -14 70 -7 0 -20 -8
-29 -18z"/>
<path d="M6332 3578 c-7 -7 -12 -18 -12 -25 0 -7 -10 -13 -23 -13 -26 0 -67
-26 -67 -42 0 -6 8 -20 17 -30 16 -18 16 -20 -15 -44 -38 -30 -42 -61 -8 -70
34 -8 66 12 73 47 4 22 21 42 59 70 30 22 54 46 54 55 0 16 -43 64 -58 64 -4
0 -13 -5 -20 -12z"/>
<path d="M6623 3505 c-25 -18 -31 -55 -9 -55 19 0 80 43 78 55 -2 17 -46 17
-69 0z"/>
<path d="M6111 3482 c-17 -17 -31 -35 -31 -40 0 -19 33 -22 57 -7 32 21 39 43
20 62 -14 14 -18 13 -46 -15z"/>
<path d="M5925 3474 c-19 -20 -16 -48 6 -52 24 -4 64 32 56 51 -8 22 -41 22
-62 1z"/>
<path d="M6016 3378 c-35 -49 -10 -73 49 -46 27 12 33 36 13 56 -19 19 -45 14
-62 -10z"/>
<path d="M6310 2906 c-6 -8 -10 -25 -8 -38 2 -17 10 -24 34 -26 41 -4 61 19
46 53 -13 28 -52 34 -72 11z"/>
<path d="M6155 2870 c-15 -29 -14 -31 10 -52 14 -12 25 -32 25 -45 0 -13 6
-26 14 -29 22 -8 76 24 76 45 0 22 -76 111 -96 111 -7 0 -20 -13 -29 -30z"/>
<path d="M6382 2788 c-29 -29 -1 -59 37 -38 29 15 28 50 -2 50 -13 0 -28 -5
-35 -12z"/>
<path d="M4910 11501 c-17 -32 -12 -50 20 -66 33 -17 116 -20 125 -5 9 14 -13
40 -34 40 -9 0 -33 11 -53 25 -44 30 -45 30 -58 6z"/>
<path d="M5792 11258 c-20 -20 -14 -42 21 -75 71 -66 107 -79 107 -38 0 17
-16 43 -46 75 -49 52 -62 58 -82 38z"/>
<path d="M3036 10694 c-15 -40 136 -286 166 -268 24 15 -19 121 -91 222 -46
63 -64 75 -75 46z"/>
<path d="M135 7231 c-16 -4 -40 -13 -52 -19 -27 -15 -56 -17 -33 -2 8 5 11 13
6 17 -9 10 -56 -42 -56 -62 0 -8 6 -29 14 -47 25 -56 45 -170 44 -244 -1 -80
11 -111 47 -120 36 -9 54 11 61 67 4 26 14 55 23 63 9 9 50 22 91 31 41 9 94
23 120 31 29 10 72 15 125 13 88 -3 105 2 105 32 0 52 -64 81 -264 118 -59 11
-114 25 -121 31 -7 6 -15 28 -19 49 -8 50 -25 58 -91 42z m175 -177 c23 -9 39
-21 37 -27 -2 -6 -38 -23 -81 -36 -66 -22 -78 -23 -86 -11 -15 24 -12 39 15
65 28 29 59 31 115 9z"/>
<path d="M2492 6627 c-26 -27 -29 -57 -6 -57 15 0 74 57 74 72 0 17 -48 7 -68
-15z"/>
<path d="M5287 2703 c-4 -3 -7 -15 -7 -26 0 -16 3 -17 15 -7 8 7 15 19 15 26
0 15 -12 19 -23 7z"/>
</g>
</svg>
