<?xml version="1.0" encoding="UTF-8" standalone="no"?>
<!-- Created with Inkscape (http://www.inkscape.org/) -->

<svg
   xmlns:dc="http://purl.org/dc/elements/1.1/"
   xmlns:cc="http://creativecommons.org/ns#"
   xmlns:rdf="http://www.w3.org/1999/02/22-rdf-syntax-ns#"
   xmlns:svg="http://www.w3.org/2000/svg"
   xmlns="http://www.w3.org/2000/svg"
   xmlns:sodipodi="http://sodipodi.sourceforge.net/DTD/sodipodi-0.dtd"
   xmlns:inkscape="http://www.inkscape.org/namespaces/inkscape"
   id="svg4198"
   version="1.1"
   inkscape:version="0.91 r13725"
   width="649.6875"
   height="375"
   viewBox="0 0 649.6875 375"
   sodipodi:docname="Fly.svg">
  <metadata
     id="metadata4204">
    <rdf:RDF>
      <cc:Work
         rdf:about="">
        <dc:format>image/svg+xml</dc:format>
        <dc:type
           rdf:resource="http://purl.org/dc/dcmitype/StillImage" />
        <dc:title></dc:title>
      </cc:Work>
    </rdf:RDF>
  </metadata>
  <defs
     id="defs4202" />
  <sodipodi:namedview
     pagecolor="#ffffff"
     bordercolor="#666666"
     borderopacity="1"
     objecttolerance="10"
     gridtolerance="10"
     guidetolerance="10"
     inkscape:pageopacity="0"
     inkscape:pageshadow="2"
     inkscape:window-width="1600"
     inkscape:window-height="837"
     id="namedview4200"
     showgrid="false"
     inkscape:zoom="1.5992304"
     inkscape:cx="324.84375"
     inkscape:cy="187.5"
     inkscape:window-x="-8"
     inkscape:window-y="-8"
     inkscape:window-maximized="1"
     inkscape:current-layer="svg4198" />
  <path
     style="fill:#000000"
     d="m 431.63254,372.65625 c -0.91587,-1.39778 -2.42354,-2.34375 -3.73548,-2.34375 -1.79711,0 -2.39336,-0.72935 -3.25725,-3.98438 -0.58161,-2.1914 -1.79229,-4.82812 -2.69041,-5.85937 -2.41714,-2.77543 -5.6994,-8.80251 -5.6994,-10.46554 0,-0.79866 -1.05469,-2.28172 -2.34375,-3.2957 -1.28906,-1.01398 -2.34375,-2.41342 -2.34375,-3.10987 0,-0.69646 -1.05469,-2.51971 -2.34375,-4.05167 -1.28906,-1.53197 -2.34375,-3.20944 -2.34375,-3.72772 0,-0.51828 -1.39054,-3.00866 -3.09008,-5.53417 -3.86748,-5.74705 -10.81222,-19.8737 -11.52702,-23.44769 -0.35439,-1.77199 0.73171,-6.66299 3.1912,-14.37068 5.11112,-16.01762 7.6759,-24.66916 7.6759,-25.89249 0,-0.56656 1.28171,-5.19396 2.84825,-10.28311 5.82011,-18.90754 6.60665,-27.7308 2.58582,-29.00696 -2.33188,-0.74011 -8.49668,0.13709 -17.62157,2.5074 -13.2872,3.45152 -14.72508,4.77704 -8.90625,8.21023 3.64609,2.15124 4.27149,3.87422 1.40625,3.87422 -2.87242,0 -2.24326,2.03381 1.64059,5.30328 1.93361,1.62773 3.19759,3.28174 2.80884,3.67557 -0.38875,0.39382 -1.76543,-0.27848 -3.0593,-1.49399 -3.71704,-3.49198 -4.57915,-1.13875 -1.34628,3.67487 3.88724,5.78795 3.72952,7.00235 -0.54558,4.2012 -2.01514,-1.32037 -2.31077,-1.3332 -2.31077,-0.10031 0,0.77758 0.58643,1.63881 1.30317,1.91386 1.30155,0.49944 4.63274,6.26461 3.99074,6.90661 -0.18657,0.18658 -0.87287,-0.30378 -1.5251,-1.08968 -0.65224,-0.78591 -2.0115,-1.42891 -3.02059,-1.42891 -1.54004,0 -1.73805,0.44005 -1.23288,2.74005 0.54376,2.47575 0.40302,2.68807 -1.45911,2.20111 -1.85598,-0.48535 -2.01811,-0.24737 -1.63055,2.39331 0.23686,1.61377 -0.0161,3.08108 -0.56251,3.26323 -0.54609,0.18202 0.79412,2.36109 2.97822,4.84237 5.80872,6.59906 5.26311,8.77354 -0.69865,2.7844 -1.79493,-1.80318 -3.89946,-3.15604 -4.67673,-3.00635 -2.73628,0.52696 -2.13205,3.68753 1.39565,7.30022 1.91216,1.95824 3.308,4.06641 3.10186,4.68484 -0.21106,0.6332 -1.93423,-0.60167 -3.94438,-2.82667 -6.4719,-7.16362 -7.21086,0.28994 -0.93349,9.41563 2.29136,3.33106 3.0329,5.15181 2.36869,5.81602 -0.66421,0.66421 -1.78627,-0.38962 -3.58421,-3.36623 -2.85893,-4.73315 -4.01055,-5.55774 -6.01764,-4.3088 -1.13585,0.70679 -1.13443,1.12215 0.01,2.96014 2.22434,3.57207 6.63748,12.75025 6.63748,13.80415 0,0.54454 -0.56152,0.99008 -1.24783,0.99008 -1.26228,0 -2.3236,-1.75164 -4.38342,-7.23454 -1.49893,-3.98992 -3.51315,-5.70724 -4.29727,-3.66386 -0.32248,0.84037 0.5388,3.40202 1.9581,5.82388 1.6167,2.75869 2.20845,4.64899 1.6349,5.22254 -0.57355,0.57355 -1.46504,-0.29413 -2.46303,-2.39723 -1.84332,-3.88451 -3.20208,-4.95361 -3.91953,-3.08398 -0.28453,0.74147 0.98408,4.17826 2.81913,7.63727 1.83504,3.45903 3.33645,6.67598 3.33645,7.14878 0,2.01422 -1.85067,0.55758 -4.56553,-3.59349 -3.21055,-4.90896 -3.66639,-4.41959 -1.52822,1.64063 2.51181,7.11923 1.24164,8.77916 -1.80499,2.35887 -0.86032,-1.813 -2.01904,-3.29637 -2.57494,-3.29637 -1.25055,0 -0.38387,4.8077 1.57425,8.73286 1.57171,3.15056 1.80778,5.32964 0.57737,5.32964 -0.45212,0 -1.74035,-2.21484 -2.86272,-4.92188 -1.12237,-2.70703 -2.54542,-5.94523 -3.16233,-7.19599 -1.10709,-2.24462 -1.12479,-2.23245 -1.36442,0.9375 -0.13354,1.76639 0.56041,5.74287 1.54209,8.83662 1.72977,5.45127 1.76726,7.58863 0.11521,6.56761 -0.43982,-0.27183 -1.68277,-3.12637 -2.76209,-6.34342 -1.07934,-3.21706 -2.37783,-6.482 -2.88555,-7.25544 -2.94807,-4.49095 -3.37686,8.12827 -0.46586,13.70998 1.69635,3.25265 1.84521,6.27626 0.28338,5.75565 -0.62388,-0.20795 -1.78404,-3.51264 -2.57812,-7.34375 -1.02081,-4.92499 -1.85575,-6.96563 -2.85003,-6.96563 -1.61425,0 -1.92783,7.42878 -0.60348,14.29687 0.86917,4.50753 -0.80202,5.76948 -1.86228,1.40625 -0.34456,-1.41796 -1.16453,-3.36483 -1.82214,-4.32637 -0.65761,-0.96154 -0.98778,-2.28997 -0.73372,-2.95205 0.25408,-0.66209 -0.0471,-1.51839 -0.66923,-1.9029 -0.83344,-0.51509 -0.98993,0.13854 -0.5946,2.4833 1.79273,10.63271 1.80548,11.15115 0.27411,11.15115 -0.81877,0 -1.48866,0.63281 -1.48866,1.40625 0,2.26477 -1.84154,1.61631 -2.8357,-0.99853 -0.50287,-1.32263 -0.92076,-3.95934 -0.92865,-5.85938 -0.007,-1.90002 -0.37107,-4.01731 -0.80704,-4.70507 -1.29112,-2.03679 -1.99111,1.046 -1.99111,8.76889 0,6.32348 -0.15609,6.88455 -1.87916,6.75476 -1.27553,-0.0961 -1.83099,-0.75495 -1.72919,-2.05111 C 323.90634,348.83692 323.38898,345 322.5,345 c -0.51563,0 -0.9375,2.31533 -0.9375,5.1452 0,4.77692 -0.15098,5.12921 -2.10938,4.92187 -1.88905,-0.2 -2.15833,-0.85213 -2.57812,-6.24359 -0.25781,-3.31116 -0.94814,-6.17798 -1.53406,-6.37073 -1.19629,-0.39355 -3.15344,4.4744 -3.15344,7.84339 0,2.24374 -1.78342,3.17045 -1.98602,1.03198 -0.16044,-1.69358 -0.17201,-1.49688 0.52378,-8.90625 0.53186,-5.6637 0.40692,-6.79687 -0.7494,-6.79687 -0.83588,0 -2.01789,1.89741 -2.97258,4.77169 -1.11424,3.35469 -1.87936,4.47723 -2.5765,3.78009 -0.69713,-0.69713 -0.66646,-2.07683 0.10331,-4.64608 2.25367,-7.52207 0.50203,-9.79134 -2.99207,-3.8763 -1.69789,2.8743 -3.41302,3.677 -3.41302,1.59734 0,-0.65216 0.84375,-2.76001 1.875,-4.6841 2.20042,-4.10552 2.25415,-4.44456 0.70312,-4.43672 -0.64453,0.003 -1.92845,1.33497 -2.85316,2.95934 -1.1962,2.10127 -1.97128,2.66342 -2.68634,1.94836 -0.71507,-0.71507 -0.56691,-1.88332 0.51348,-4.04902 1.69092,-3.38953 1.35418,-4.55509 -0.7996,-2.76761 -1.89847,1.5756 -2.94571,-0.90855 -1.51219,-3.5871 2.60525,-4.86796 -0.801,-5.40482 -3.90357,-0.61525 -3.90037,6.0212 -4.92352,3.50153 -1.17528,-2.89435 2.85371,-4.86948 1.6357,-6.21577 -2.48587,-2.7477 -3.77194,3.17388 -4.46734,2.34053 -1.88338,-2.25699 1.29153,-2.29798 1.70452,-3.8926 1.10423,-4.26359 -0.52742,-0.32597 -0.95894,-1.8334 -0.95894,-3.34984 0,-3.10526 -1.34283,-3.49434 -4.4789,-1.29776 -2.49159,1.74518 -2.54902,1.4552 -0.54435,-2.74864 1.80729,-3.78991 1.18975,-6.21077 -1.58432,-6.21077 -1.73034,0 -1.89776,-0.36947 -1.33286,-2.94144 0.61106,-2.78217 0.51356,-2.91613 -1.80051,-2.47376 -2.93946,0.56191 -2.99151,0.30999 -0.57156,-2.76648 2.40413,-3.05637 2.40889,-5.91674 0.0109,-6.54384 -1.42915,-0.37372 -1.81197,-1.17358 -1.64062,-3.42785 0.20318,-2.67316 -0.0108,-2.92434 -2.35463,-2.76389 -2.92192,0.20004 -3.17349,-0.43723 -1.20168,-3.04418 0.75703,-1.00089 1.38984,-2.76903 1.40625,-3.92919 0.0229,-1.61954 -0.5016,-2.10937 -2.25861,-2.10937 -3.2447,0 -3.86977,-1.67226 -1.09727,-2.9355 4.58727,-2.09009 3.78045,-5.38105 -0.88441,-3.60748 -3.70127,1.40722 -3.9147,0.4122 -0.54568,-2.54407 3.03558,-2.66367 4.12973,-6.5698 1.56456,-5.58544 -2.14557,0.82333 -2.73476,-1.18724 -0.93176,-3.17953 1.69013,-1.86757 1.66517,-1.89918 -2.37554,-3.00988 -1.03191,-0.28365 -0.56468,-1.15045 1.76912,-3.28205 4.04922,-3.69838 3.52826,-6.34576 -1.05081,-5.34003 -2.76717,0.60777 -2.91564,0.52843 -1.71603,-0.91701 0.72228,-0.87029 2.71791,-2.16925 4.43473,-2.88659 5.10072,-2.13122 3.87246,-6.08742 -1.88993,-6.08742 -1.12508,0 -8.15118,-1.6875 -15.61356,-3.75 -14.55077,-4.02163 -18.51409,-4.51813 -19.31916,-2.42016 -0.28067,0.73141 0.15401,3.79001 0.96594,6.79688 0.81193,3.00686 2.56737,9.89672 3.90098,15.31078 1.33361,5.41406 3.69898,14.48438 5.25638,20.15625 3.71892,13.54396 6.92505,26.31461 7.72557,30.77246 0.58577,3.262 0.31911,3.93766 -2.95996,7.5 -4.90499,5.32872 -9.47445,12.5745 -14.40335,22.83935 -2.42185,5.04372 -5.00912,9.09077 -6.24453,9.76779 -1.38379,0.75836 -2.10937,2.02946 -2.10937,3.69527 0,1.39661 -0.63087,3.06287 -1.40194,3.7028 -0.77106,0.63993 -1.90623,2.84667 -2.52258,4.90387 -0.68542,2.28775 -1.95089,4.11866 -3.25844,4.71442 -1.2076,0.55022 -2.61069,2.44367 -3.2246,4.35154 -0.59773,1.85762 -1.50535,3.90484 -2.01691,4.54937 -1.53835,1.93822 -4.41819,1.3311 -5.55861,-1.17187 -0.66214,-1.45324 -1.84186,-2.34375 -3.1049,-2.34375 -4.35887,0 -3.77024,-3.13571 0.8765,-4.66928 1.80759,-0.59655 3.52482,-2.02963 4.19523,-3.50103 0.62426,-1.37008 2.29636,-3.99461 3.71577,-5.83226 3.66696,-4.74742 7.61298,-11.83756 7.61298,-13.67886 0,-0.86147 1.1783,-2.68478 2.61844,-4.05181 1.44013,-1.36704 3.6086,-4.17301 4.81881,-6.23551 3.18027,-5.41996 6.41232,-10.53046 10.37584,-16.40625 1.91299,-2.83594 3.78756,-6.13381 4.1657,-7.3286 0.45518,-1.4382 -0.63252,-6.98272 -3.21852,-16.40625 -8.25945,-30.09797 -10.0506,-37.65147 -11.18115,-47.15266 -0.55914,-4.69906 -1.01662,-10.90687 -1.01662,-13.79513 0,-4.45629 0.31331,-5.41907 2.06934,-6.35887 2.222,-1.18918 21.09127,-2.81513 32.64649,-2.81312 3.88277,6.7e-4 7.51531,-0.29192 8.07232,-0.6502 1.01043,-0.64994 4.08685,-6.11148 4.08685,-7.25534 0,-0.3318 -2.00391,-0.36071 -4.45312,-0.0642 -2.44922,0.29647 -8.09465,0.22326 -12.5454,-0.1627 -4.45076,-0.38595 -9.7242,-0.35421 -11.71875,0.0706 -1.99456,0.42476 -5.43196,0.50983 -7.63868,0.18906 -3.42863,-0.49839 -4.51449,-1.25604 -7.46573,-5.20911 -1.89945,-2.54431 -4.12967,-4.62595 -4.95606,-4.62595 -0.91259,0 -2.55756,2.20742 -4.18973,5.62232 -1.47796,3.09227 -3.55944,6.40572 -4.6255,7.36323 -2.82028,2.53311 -31.60091,12.97349 -40.37578,14.6466 -4.125,0.78651 -11.73781,1.4301 -16.91735,1.43019 -18.2197,3.1e-4 -40.02008,-7.75517 -65.1139,-23.16426 -3.351563,-2.05805 -9.890625,-5.12838 -14.53125,-6.82295 C 71.765625,187.69306 65.131626,184.88761 61.664029,183.1533 58.196432,181.41898 55.022648,180 54.611176,180 54.199703,180 49.443078,177.63422 44.040897,174.7427 38.638717,171.85118 32.953125,168.82407 31.40625,168.01579 26.622912,165.51637 11.948674,154.17444 7.3088534,149.39056 2.1368446,144.05797 0,139.47297 0,133.70805 c 0,-3.41588 0.64673012,-4.98048 3.5969981,-8.70199 3.3550575,-4.23213 5.3655874,-6.17804 14.6823459,-14.21051 12.098088,-10.4304 34.204845,-14.710444 56.824605,-11.001713 18.135278,2.973453 47.376141,10.822953 78.646051,21.111963 11.49115,3.78104 24.33571,7.83144 35.625,11.23396 5.41406,1.63178 11.54535,3.57568 13.62509,4.3198 4.64762,1.66289 6.99904,1.72368 7.00268,0.18106 0.006,-2.58846 -6.99654,-21.02869 -9.84865,-25.93471 -1.67454,-2.88044 -3.32262,-6.14187 -3.66241,-7.24762 -0.33978,-1.10575 -3.45113,-4.732387 -6.91412,-8.05919 -3.46299,-3.326801 -7.14009,-7.197939 -8.17134,-8.60253 -1.03125,-1.404591 -4.03277,-4.989555 -6.67005,-7.966587 -2.63728,-2.977033 -4.95759,-5.837126 -5.15625,-6.355761 -0.19866,-0.518634 -2.25964,-1.568753 -4.57995,-2.333597 -4.8249,-1.590431 -5.39389,-3.458384 -1.60637,-5.273692 1.43681,-0.688645 3.12032,-2.065423 3.74114,-3.059507 1.79997,-2.882222 4.223,-2.229706 5.22734,1.407712 0.48826,1.768326 3.22246,6.092545 6.07602,9.609375 7.80216,9.615723 9.99937,11.064199 9.99937,6.591945 0,-1.523519 0.23778,-1.636206 1.40625,-0.666458 0.77344,0.641896 1.40625,2.119134 1.40625,3.282752 0,4.000068 4.74551,12.75221 7.93463,14.633839 1.66054,0.979743 3.49864,2.833687 4.08466,4.119879 1.37735,3.02294 3.71674,2.9989 4.48098,-0.046 0.32917,-1.311524 1.07549,-2.223928 1.65849,-2.027578 1.3385,0.450807 0.81781,5.069838 -0.86022,7.630838 -1.11889,1.70764 -0.87093,3.07685 2.0491,11.31515 1.82712,5.15483 3.72556,10.74351 4.21876,12.41929 1.55616,5.28747 3.80964,3.25398 4.93487,-4.45312 1.0336,-7.07942 2.4056,-7.80129 2.42188,-1.27425 0.009,3.75967 -0.62902,7.17485 -1.84006,9.84375 -1.01993,2.24771 -1.85811,4.71956 -1.86263,5.493 -0.007,1.04426 4.63409,2.58367 18.02629,5.98033 19.57691,4.96528 26.17317,6.30307 25.4702,5.16562 -0.48868,-0.79067 5.43948,-2.6856 8.5018,-2.71758 2.87541,-0.03 3.67995,-1.007 4.98966,-6.059 1.49447,-5.76475 0.98096,-6.26294 -8.84273,-8.57888 -4.21538,-0.9938 -6.92818,-2.10983 -6.92818,-2.85024 0,-0.90291 1.08851,-1.06771 4.21875,-0.63866 4.79807,0.65766 5.44733,-0.4093 1.64062,-2.6961 -1.41796,-0.85181 -5.15218,-4.00136 -8.29824,-6.999 -5.37119,-5.11779 -5.79171,-5.83321 -6.89352,-11.72799 -0.9264,-4.95628 -0.94513,-10.717429 -0.089,-27.368948 0.59643,-11.600167 1.4624,-22.409153 1.92437,-24.019969 1.00598,-3.50766 0.0653,-6.195831 -3.2295,-9.228628 -1.31919,-1.214276 -2.39851,-3.239133 -2.39851,-4.499681 0,-3.838848 -2.60575,-7.623596 -7.03647,-10.220168 -3.20899,-1.880593 -4.21353,-3.027446 -4.21353,-4.810463 0,-1.287643 -0.84375,-3.413825 -1.875,-4.724846 -1.03125,-1.311023 -1.875,-2.942523 -1.875,-3.625558 0,-1.74446 -4.57733,-5.938863 -8.20313,-7.51687 -3.64436,-1.586086 -3.87826,-3.3529951 -0.71801,-5.4236765 1.28088,-0.8392621 2.58458,-2.544756 2.89711,-3.7899865 0.59304,-2.36285422 3.05143,-3.93075321 4.17834,-2.66483465 0.35929,0.40362225 1.15859,2.81725455 1.7762,5.36362735 0.61762,2.546373 2.25701,5.9666243 3.64309,7.6005573 1.38608,1.633934 3.25431,3.874757 4.1516,4.979606 0.8973,1.10485 2.21721,2.008818 2.93313,2.008818 0.71594,0 1.83947,1.298304 2.49675,2.885122 0.65729,1.586816 2.0973,3.476295 3.20005,4.198841 1.10274,0.722546 3.18726,3.537523 4.63226,6.255504 1.445,2.717981 4.30554,7.549441 6.35674,10.736578 l 3.72946,5.794796 -2.37394,14.361454 c -3.20724,19.402635 -4.91778,40.438975 -3.53501,43.473825 0.57484,1.26164 1.67218,2.29388 2.43853,2.29388 0.76635,0 1.86616,0.88343 2.44402,1.96318 0.57787,1.07976 2.89555,2.77927 5.1504,3.77669 2.25486,0.99744 4.35306,2.22338 4.66266,2.72432 1.03357,1.67235 5.94235,0.93691 8.51463,-1.27566 l 2.54193,-2.18649 -1.75429,-2.96976 c -1.13386,-1.9195 -2.49212,-2.96978 -3.84057,-2.96978 -2.47087,0 -3.6032,-1.47308 -3.6032,-4.6875 0,-1.85212 -0.47427,-2.34375 -2.26095,-2.34375 -3.29244,0 -3.33532,-1.67957 -0.0918,-3.595566 1.68899,-0.997706 2.85891,-2.492081 2.91474,-3.723065 0.48343,-10.659214 1.39167,-13.055221 5.7939,-15.284718 1.6605,-0.840953 3.6519,-2.062532 4.42534,-2.714619 1.25378,-1.057069 12.64111,-6.900796 27.13719,-13.926222 2.80828,-1.361008 5.65593,-2.47456 6.32813,-2.47456 2.39104,0 1.15925,-2.566448 -3.18691,-6.640001 -3.27206,-3.066826 -4.01003,-4.209384 -2.86163,-4.430545 0.8511,-0.163906 2.41957,0.168731 3.4855,0.739196 2.43868,1.305145 3.5141,-0.734283 1.93906,-3.677268 -1.02639,-1.917822 -0.63451,-3.803882 0.79035,-3.803882 0.3897,0 1.42743,1.507525 2.30607,3.350055 1.40943,2.955615 1.95419,3.314359 4.62676,3.046875 2.69666,-0.269894 3.0618,-0.02013 3.32587,2.274945 0.16316,1.417969 0.72835,2.578125 1.25598,2.578125 0.52764,0 1.69691,0.910874 2.5984,2.024165 2.89366,3.573521 3.77476,1.258333 1.68257,-4.421181 -1.72102,-4.671952 -2.15872,-5.169744 -4.11413,-4.678968 -2.32072,0.582464 -2.61481,-0.142884 -1.59731,-3.939641 0.3109,-1.160156 0.9758,-2.109375 1.47754,-2.109375 1.35963,0 4.29137,3.701177 6.49779,8.203125 2.851,5.817143 3.46414,5.5552 5.48612,-2.34375 0.61556,-2.40471 1.56312,-3.984375 2.39003,-3.984375 1.82231,0 1.79744,4.662493 -0.0485,9.080305 -0.7802,1.867296 -1.23481,3.578826 -1.01023,3.803401 0.22457,0.224575 2.76396,-0.118851 5.64308,-0.763171 8.17764,-1.830076 8.56708,0.246814 0.62257,3.320222 -3.01484,1.166331 -4.77433,2.406485 -4.77433,3.365142 0,1.668943 1.02961,2.228513 14.0625,7.642668 4.89844,2.034922 10.38281,4.341124 12.1875,5.124895 3.66894,1.593413 11.02212,9.851506 11.90597,13.371179 0.31606,1.258615 0.0776,4.146634 -0.5298,6.417825 -0.64189,2.399943 -0.84506,6.084804 -0.48511,8.798224 0.4904,3.6968 0.34825,4.63089 -0.68274,4.48673 -2.63857,-0.36896 -3.57363,0.0748 -3.04735,1.44633 0.33961,0.88499 -0.0104,1.40625 -0.94426,1.40625 -0.81614,0 -2.83895,0.82406 -4.49514,1.83126 l -3.01126,1.83124 2.58088,0.98126 c 1.41948,0.53968 3.52372,0.98124 4.67609,0.98124 1.15237,0 2.55057,0.45535 3.10712,1.0119 1.70175,1.70175 9.623,3.6e-4 11.83323,-2.54163 1.06177,-1.22115 2.54158,-2.22027 3.28847,-2.22027 1.07687,0 1.23724,-0.92176 0.77478,-4.45313 -2.14813,-16.403192 -2.59879,-25.640773 -2.01826,-41.370083 0.34974,-9.476205 0.85052,-17.788795 1.11285,-18.47242 0.26234,-0.683627 1.83798,-2.04597 3.50143,-3.02743 1.95095,-1.15109 3.89653,-3.626321 5.48142,-6.973657 1.35133,-2.854052 3.6626,-6.605638 5.13614,-8.336858 1.47355,-1.731219 3.40865,-4.307828 4.30023,-5.725797 0.89157,-1.417969 2.08997,-2.578125 2.66311,-2.578125 1.68389,0 12.0397,-10.565656 12.0397,-12.2836685 0,-0.8641113 0.84375,-2.5670673 1.875,-3.7843465 l 1.875,-2.213235 1.64062,1.9205904 c 0.90235,1.0563248 2.38848,2.2069124 3.30252,2.5568614 3.82927,1.4660758 2.27118,6.3483972 -2.48865,7.7983132 -2.52717,0.769808 -10.49547,8.904237 -11.3453,11.58183 -0.35454,1.117084 -1.67078,2.421206 -2.92497,2.898047 -1.25419,0.476841 -2.67457,1.903863 -3.15639,3.17116 -0.48182,1.267297 -3.20815,5.177206 -6.0585,8.688687 -2.85034,3.511481 -5.19075,6.700917 -5.20089,7.087636 -0.0396,1.507422 2.57455,0.588878 4.66906,-1.640625 2.47936,-2.639162 4.6875,-3.065251 4.6875,-0.904516 0,2.746126 -2.84494,5.755451 -7.50407,7.937671 -2.57588,1.206482 -4.70305,2.437895 -4.72703,2.736473 -0.024,0.29858 -0.12946,14.33896 -0.23438,31.200846 l -0.19077,30.657976 -3.75,3.86377 c -2.0625,2.12506 -5.75391,5.16956 -8.20313,6.76554 -4.98515,3.24846 -5.36863,4.04406 -2.40286,4.98536 1.97954,0.62829 1.98953,0.69514 0.28956,1.93818 -0.96838,0.70809 -3.78943,1.28745 -6.269,1.28745 -4.16671,0 -4.50832,0.1751 -4.50832,2.31077 0,2.56935 2.35652,4.25173 5.95544,4.25173 1.28079,0 2.99603,0.25607 3.81163,0.56905 2.84226,1.09067 1.45343,2.24345 -2.70284,2.24345 -4.54525,0 -6.12673,1.53116 -6.12673,5.93182 0,2.88506 1.59362,3.523 6.21792,2.48908 26.36063,-5.89384 38.83688,-9.39275 39.4925,-11.07551 0.2675,-0.68658 -0.39155,-2.81041 -1.46456,-4.71959 -4.87682,-8.67711 -4.31791,-11.71653 0.78946,-4.29321 2.92181,4.2467 4.36465,4.81576 5.67097,2.23661 2.73409,-5.39807 8.46324,-21.87706 8.05899,-23.1804 -0.27422,-0.88416 -1.62462,-4.30045 -3.00088,-7.59177 -1.98066,-4.73675 -2.24628,-6.14246 -1.27416,-6.74325 1.65257,-1.021343 3.01354,0.26257 5.03858,4.75333 1.61225,3.57532 3.50371,4.59598 5.6298,3.03791 2.33159,-1.70868 8.90388,-11.365545 8.90388,-13.082754 0,-1.04956 -0.63281,-3.422817 -1.40625,-5.273913 -0.77344,-1.851097 -1.40625,-4.433868 -1.40625,-5.739491 0,-3.955886 2.46994,-2.72706 3.75676,1.869039 0.65337,2.333596 1.51176,4.443036 1.90755,4.687644 0.39578,0.244609 3.55799,-2.297509 7.02712,-5.649151 4.77854,-4.616711 6.9591,-6.093894 8.99554,-6.093894 1.47842,0 2.70397,-0.105469 2.72344,-0.234375 0.0195,-0.128906 0.27425,-1.921875 0.56616,-3.984375 0.89974,-6.357173 4.21865,-8.28301 6.05868,-3.515625 0.54729,1.417969 1.74366,4.054687 2.65861,5.859375 2.16906,4.278337 1.66254,5.375119 -3.06334,6.633127 -2.15147,0.572715 -4.54458,1.584966 -5.31802,2.249448 -0.77344,0.664482 -2.29855,1.47935 -3.38914,1.810818 -2.01471,0.612341 -9.93195,8.633798 -16.80448,17.025687 -2.08305,2.54357 -5.87992,9.0367 -8.4375,14.42918 -2.55757,5.39247 -6.24102,12.95627 -8.18545,16.80842 -2.12744,4.21474 -3.19511,7.34415 -2.68099,7.85826 0.51411,0.51411 8.26881,-1.27762 19.47282,-4.49919 21.7242,-6.24654 24.18599,-6.85118 43.46224,-10.67468 7.99219,-1.58528 18.32812,-3.70942 22.96875,-4.72033 4.64062,-1.01091 13.5,-2.71856 19.6875,-3.79479 6.1875,-1.07623 16.3125,-3.07935 22.5,-4.45137 10.06804,-2.23251 13.21993,-2.49831 30,-2.52992 18.26181,-0.0344 18.94388,0.0339 26.19608,2.62384 8.47222,3.02562 11.18893,4.71008 18.721,11.60777 8.43935,7.72855 12.72724,19.91451 10.45175,29.70331 -1.13958,4.90236 -2.03174,6.23494 -8.63238,12.89392 -7.07298,7.13548 -13.06574,11.35328 -25.17395,17.71783 -3.09375,1.62619 -6.3368,3.58356 -7.20676,4.34973 -0.86997,0.76615 -4.87778,2.37366 -8.90625,3.57224 -4.02847,1.19858 -9.43387,3.04099 -12.01199,4.09426 -2.57813,1.05326 -8.48438,3.25282 -13.125,4.88792 -9.06654,3.19455 -38.38547,17.42716 -42.10105,20.43759 -3.47487,2.8154 -8.85137,4.78954 -15.25331,5.6007 -26.59479,3.36973 -37.9075,4.19372 -42.27916,3.07949 -2.43594,-0.62086 -7.9558,-1.5284 -12.26636,-2.01674 -4.31056,-0.48835 -8.31837,-1.26975 -8.90625,-1.73645 -0.58788,-0.46669 -5.92043,-2.88336 -11.85012,-5.37038 -12.37045,-5.18839 -18.60563,-10.16294 -21.17671,-16.89519 -1.72317,-4.51206 -4.27391,-5.50238 -5.97681,-2.32049 -0.53322,0.99633 -1.91915,2.07278 -3.07986,2.3921 -1.1607,0.31932 -4.07591,1.45673 -6.47825,2.52756 -5.04683,2.24962 -10.06642,1.80328 -13.02816,-1.15846 -1.00249,-1.00249 -3.08834,-1.82271 -4.63521,-1.82271 -2.48746,0 -2.8125,0.31865 -2.8125,2.75717 0,1.51644 0.49513,3.06319 1.1003,3.43719 1.77856,1.09921 15.78266,3.14156 21.68063,3.1619 11.28835,0.0389 12.82576,2.86721 11.20616,20.61547 -1.13868,12.47818 -5.49451,38.83971 -6.82997,41.33504 -0.49891,0.93223 -0.90712,2.7532 -0.90712,4.04659 0,1.2934 -1.47656,6.85917 -3.28125,12.36839 -1.80469,5.50923 -3.28125,10.86013 -3.28125,11.89092 0,2.11768 4.86613,12.09558 7.58393,15.55071 0.98509,1.25234 1.79107,3.20939 1.79107,4.349 0,1.13961 0.84375,2.8356 1.875,3.76887 1.03125,0.93327 1.875,2.22144 1.875,2.8626 0,1.55669 5.33245,11.65178 7.40167,14.0124 0.90394,1.03125 3.24294,5.03876 5.19777,8.90558 1.95483,3.86683 4.77122,8.41666 6.25864,10.11075 3.56802,4.06375 3.7705,8.63992 0.38228,8.63992 -1.44243,0 -2.90391,-0.8879 -3.85782,-2.34375 z m -98.39133,-33.34603 c -0.88159,-1.42644 -2.29014,-0.99072 -1.7073,0.52815 0.29566,0.77047 0.92211,1.16319 1.39212,0.87272 0.47001,-0.29049 0.61184,-0.92087 0.31518,-1.40087 z m -18.39616,-25.12189 c 0.17309,-1.22339 1.11894,-2.42846 2.10938,-2.68746 2.52841,-0.66119 2.34389,-3.70125 -0.21892,-3.60656 -2.90421,0.10732 -3.19024,-1.93623 -0.37009,-2.64404 1.84466,-0.46298 2.37344,-1.17818 2.33541,-3.15875 l -0.0491,-2.56027 -1.47142,2.10937 c -0.92162,1.3212 -2.43673,2.10938 -4.05479,2.10938 -3.64787,0 -5.04366,1.94356 -3.62767,5.05133 0.82247,1.80511 0.84624,3.04006 0.0905,4.69889 -1.24259,2.7272 -0.57977,3.55009 2.56422,3.18345 1.6853,-0.19654 2.47032,-0.92403 2.69263,-2.49534 z m -1.25377,-22.62185 c 0.31732,-0.51343 -0.50153,-1.42489 -1.81966,-2.02547 -3.35474,-1.52852 -3.37708,-6.08965 -0.0361,-7.3599 2.89635,-1.10119 4.51862,-5.04286 3.75367,-9.12041 -0.45587,-2.43003 -0.10287,-3.55921 1.73098,-5.53693 2.11281,-2.27853 2.41825,-5.02377 0.55899,-5.02377 -1.53173,0 -3.71666,2.99416 -3.71666,5.09321 0,1.83294 -0.37691,2.07683 -2.57813,1.66832 -2.97676,-0.55244 -3.94987,-1.69276 -3.97002,-4.65216 -0.0101,-1.48516 -0.57361,-2.10937 -1.90424,-2.10937 -1.48905,0 -1.84779,0.55252 -1.69141,2.60496 0.26279,3.44873 -0.74326,4.89504 -3.40498,4.89504 -2.37864,0 -3.60054,1.94428 -2.69876,4.29428 0.54502,1.4203 1.64877,1.40564 5.23192,-0.0695 1.33841,-0.551 1.63857,-0.18204 1.62949,2.00301 -0.007,1.47314 -0.63393,4.99874 -1.39512,7.83468 -1.82248,6.78987 -1.77651,7.29828 0.70313,7.77588 4.0995,0.7896 9.03724,0.64984 9.6069,-0.2719 z m 42.18997,-3.75398 c 0.31867,-0.51563 0.13264,-0.9375 -0.41342,-0.9375 -0.54606,0 -0.99283,0.42187 -0.99283,0.9375 0,0.51562 0.18604,0.9375 0.41342,0.9375 0.22738,0 0.67416,-0.42188 0.99283,-0.9375 z m 8.22097,-6.23994 c -0.63472,-0.2568 -1.90035,-0.27243 -2.8125,-0.0348 -0.91216,0.2377 -0.39285,0.44781 1.15403,0.46692 1.54687,0.0191 2.29318,-0.17537 1.65847,-0.43218 z m -30.62416,-8.13584 C 333.4629,270.42561 333.20166,270 331.26868,270 c -2.26129,0 -2.95465,1.30177 -1.25339,2.3532 0.52403,0.32387 0.7336,0.94351 0.46571,1.37698 -0.76028,1.23017 0.56622,3.88959 1.74388,3.49615 0.581,-0.19409 1.09994,-1.89942 1.15318,-3.78961 z m -57.15328,-5.93634 c -0.78689,-4.03927 -1.70974,-10.82697 -2.05079,-15.08377 -0.57751,-7.20839 -1.46749,-9.83296 -2.67292,-7.88252 -1.30653,2.11399 4.376,32.08884 5.81121,30.65364 0.18876,-0.18877 -0.30061,-3.64807 -1.0875,-7.68735 z m 63.7999,-0.0607 c -0.2377,-0.91215 -0.44781,-0.39284 -0.46691,1.15404 -0.0191,1.54687 0.17536,2.29318 0.43217,1.65846 0.2568,-0.63471 0.27243,-1.90034 0.0348,-2.8125 z m -15.90358,1.99388 c -0.31153,-0.31152 -1.12013,-0.34482 -1.79688,-0.074 -0.74787,0.29927 -0.52573,0.52142 0.56641,0.5664 0.98827,0.0407 1.54199,-0.18087 1.23047,-0.49239 z m 2.76932,-8.98437 c -0.29927,-0.74787 -0.52142,-0.52573 -0.5664,0.56641 -0.0407,0.98827 0.18087,1.54199 0.49239,1.23047 0.31152,-0.31153 0.34482,-1.12013 0.074,-1.79688 z m 16.63677,-16.67131 c 1.58348,-0.50027 4.44753,-1.14966 6.36454,-1.44308 3.70352,-0.56687 6.67654,-2.79137 6.08504,-4.55303 -0.19632,-0.58468 -1.02913,-1.06844 -1.85069,-1.07501 -0.82156,-0.007 -1.80477,-0.32299 -2.18491,-0.70313 -0.38014,-0.38015 0.23774,-0.69117 1.37307,-0.69117 2.62551,0 6.68576,-2.62751 6.68576,-4.32657 0,-0.71413 0.51228,-1.29843 1.1384,-1.29843 0.70642,0 0.5228,-0.61558 -0.48391,-1.6223 -1.34279,-1.3428 -1.94053,-1.42355 -3.46943,-0.46875 -2.60261,1.62536 -2.92371,1.46406 -2.27006,-1.14031 0.50114,-1.99669 0.16947,-2.40076 -2.56027,-3.11914 -2.57601,-0.67792 -3.35669,-0.51663 -4.372,0.90329 -1.34975,1.88763 -3.40763,1.34421 -2.62573,-0.69338 0.79041,-2.05978 -2.89942,-2.54566 -6.20517,-0.81709 -1.68194,0.87947 -3.69089,1.89807 -4.46433,2.26353 -0.77344,0.36547 -1.54102,2.02741 -1.70572,3.69321 -0.29685,3.00223 -0.26623,3.02632 3.50132,2.75429 4.23663,-0.30589 5.38284,1.34593 1.28042,1.84523 -4.22116,0.51375 -5.26081,1.88273 -3.48642,4.59079 0.90796,1.38573 1.28185,3.19615 0.94076,4.55518 -0.50952,2.0301 -0.26653,2.25545 2.43209,2.25545 1.649,0 4.29375,-0.40931 5.87724,-0.90958 z m -25.97888,-2.75914 c 0.66081,-0.8607 1.15462,-4.50311 1.17188,-8.64381 0.0325,-7.8135 -0.3358,-8.26749 -6.73408,-8.29967 -1.57649,-0.008 -2.92705,-0.7264 -3.54861,-1.8878 -0.55191,-1.03125 -1.83237,-1.875 -2.84548,-1.875 -1.41347,0 -1.84202,0.64146 -1.84202,2.75717 0,3.67639 -1.14359,4.18175 -4.13612,1.82783 -2.80618,-2.20734 -3.31101,-2.10463 -8.52013,1.73354 -2.64779,1.95093 -4.1064,3.94237 -4.96255,6.77533 -0.6669,2.20675 -1.08878,4.08795 -0.9375,4.18045 0.15127,0.0925 1.4131,0.87948 2.80405,1.74885 1.39096,0.86938 3.21959,1.31568 4.06364,0.99179 1.42266,-0.54593 9.02803,0.76621 14.50111,2.50184 3.24881,1.03027 9.60961,-0.018 10.98581,-1.81052 z m 54.63919,-9.92503 c -0.6419,-0.77344 -2.06465,-1.3913 -3.16166,-1.37303 -1.87882,0.0313 -1.85855,0.11099 0.34916,1.37303 3.07021,1.75508 4.26909,1.75508 2.8125,0 z m -88.125,-0.46875 c 0,-0.51563 -0.63281,-0.9375 -1.40625,-0.9375 -0.77344,0 -1.40625,0.42187 -1.40625,0.9375 0,0.51562 0.63281,0.9375 1.40625,0.9375 0.77344,0 1.40625,-0.42188 1.40625,-0.9375 z m 212.62591,-1.89134 c 14.32507,-1.268 26.60451,-3.47041 31.82453,-5.70798 2.37653,-1.0187 8.99193,-4.65083 14.70089,-8.07142 5.70896,-3.42059 12.27836,-6.9448 14.59867,-7.83159 2.32031,-0.88678 9.03639,-3.55529 14.92462,-5.93 5.88823,-2.37472 11.17357,-4.31767 11.7452,-4.31767 0.57163,0 4.1204,-1.47656 7.88615,-3.28125 3.76575,-1.80469 7.85069,-3.28125 9.07765,-3.28125 1.22696,0 3.05688,-0.88665 4.06649,-1.97034 2.2733,-2.4401 5.71907,-4.26252 10.48693,-5.54637 2.01085,-0.54146 4.10027,-1.81446 4.64318,-2.82889 0.5429,-1.01443 2.97586,-2.86437 5.40657,-4.11095 5.36073,-2.74927 13.35393,-10.82565 16.04224,-16.20923 2.60853,-5.22378 2.48632,-9.93016 -0.44517,-17.14462 -3.04854,-7.50249 -9.16584,-13.86056 -17.27136,-17.95114 -6.01542,-3.03577 -6.26246,-3.07549 -19.21875,-3.08976 -11.81711,-0.013 -14.57302,0.32413 -27.65625,3.38325 -24.36245,5.69643 -26.76247,6.11819 -25.78125,4.53055 0.31867,-0.51563 1.55768,-0.9375 2.75333,-0.9375 1.19567,0 3.65385,-0.61835 5.46265,-1.37411 5.36609,-2.2421 23.82126,-6.08207 35.17113,-7.31807 5.81602,-0.63337 10.66758,-1.57344 10.78125,-2.08907 0.31062,-1.4092 -15.25813,-1.67826 -26.04336,-0.45007 -13.81673,1.57341 -34.27521,5.14241 -53.90625,9.404 -25.2048,5.47156 -29.27003,6.56838 -31.86823,8.59822 -1.88068,1.46928 -3.25353,1.72025 -7.03125,1.28535 -3.27116,-0.37659 -6.68375,0.0292 -11.25677,1.33881 -3.60938,1.03358 -10.14844,2.88807 -14.53125,4.12111 -32.24872,9.07264 -33.15218,9.42601 -32.55721,12.73383 0.17111,0.9513 1.3761,1.40625 3.72459,1.40625 1.90942,0 3.44476,0.38395 3.41189,0.85323 -0.0329,0.46926 0.5925,1.21824 1.38971,1.66439 1.40126,0.78418 2.91979,0.54066 16.06227,-2.57588 8.39795,-1.99143 11.05966,-2.03476 12.65625,-0.206 1.32144,1.5136 4.34604,1.13069 50.15625,-6.34979 26.8125,-4.3783 51.91406,-8.59058 55.78125,-9.36063 3.86719,-0.77005 12.09375,-2.00986 18.28125,-2.75513 6.1875,-0.74526 13.99219,-1.88042 17.34375,-2.52255 3.35156,-0.64214 10.83319,-1.06756 16.62583,-0.94538 9.91828,0.20918 10.6726,0.36265 12.94334,2.63338 1.43614,1.43615 2.29515,3.22575 2.12417,4.42531 -0.25054,1.75764 -1.12256,2.10629 -6.84959,2.73859 -9.48544,1.04724 -20.40533,6.61934 -27.01674,13.78586 -0.42171,0.45712 -4.21859,4.38705 -8.4375,8.7332 -9.95235,10.25246 -11.69134,10.82826 -36.26451,12.00764 -10.05469,0.48257 -19.19167,1.07878 -20.30439,1.32492 -1.11274,0.24614 -7.44087,4.78461 -14.0625,10.08547 -6.62165,5.30086 -13.09405,10.17771 -14.38311,10.83744 -5.55244,2.84165 -5.92439,3.4673 -5.22587,8.79012 l 0.65101,4.96081 -5.0107,-5.24274 c -2.75589,-2.88351 -6.05076,-5.4861 -7.32194,-5.78354 -1.27119,-0.29744 -11.58635,-3.3171 -22.92258,-6.71038 -11.33623,-3.39328 -21.07515,-6.16959 -21.64205,-6.16959 -0.56689,0 -3.52616,-0.79517 -6.57616,-1.76704 -8.95725,-2.8542 -15.39667,-4.55763 -22.88921,-6.05492 -16.19317,-3.236 -18.22849,-3.72142 -17.16518,-4.09377 3.36604,-1.17871 33.15227,5.46443 58.88393,13.1327 6.1875,1.84393 17.00959,5.06664 24.04908,7.16157 7.0395,2.09493 13.65337,3.80896 14.6975,3.80896 3.43549,0 13.82987,-6.17389 23.00888,-13.66644 8.49569,-6.93479 10.14196,-8.97058 8.21649,-10.16057 -0.93333,-0.57684 -45.88788,-5.84713 -56.3782,-6.60957 -3.86719,-0.28106 -12.70542,-0.93062 -19.64052,-1.44347 -6.93511,-0.51284 -17.81547,-0.93245 -24.1786,-0.93245 -9.98015,0 -11.91822,0.25128 -14.10946,1.82932 -2.02909,1.46128 -5.27519,2.03891 -16.13392,2.87098 -16.19606,1.24104 -27.94388,2.57711 -29.13545,3.31353 -1.35407,0.83686 -1.0284,4.24807 1.07704,11.28141 3.8464,12.84921 5.54904,15.39226 10.30541,15.39226 1.98725,0 2.03527,-0.22833 1.40123,-6.66284 -0.79825,-8.10094 0.50254,-8.39042 3.70122,-0.82368 2.73087,6.46012 5.11462,8.20852 9.20707,6.75308 1.6361,-0.58187 4.76366,-0.81082 6.95013,-0.50877 4.91253,0.67864 6.62471,-0.57602 7.39967,-5.42244 0.70302,-4.39645 2.63737,-7.32709 3.95471,-5.9916 0.50862,0.51562 1.36318,3.34561 1.89902,6.28885 1.16834,6.41736 3.67199,11.5509 7.32478,15.01893 2.80384,2.66202 16.3872,10.09847 18.44578,10.09847 0.64884,0 2.92607,0.84375 5.06051,1.875 2.13444,1.03125 5.48322,1.89362 7.44171,1.91637 1.95851,0.0228 5.6703,0.6271 8.24842,1.34298 5.65272,1.56962 16.91292,1.74069 31.21966,0.47431 z m -207.16145,-5.48551 c 4.96665,-2.01578 10.71706,-6.46986 9.9517,-7.70825 -0.3093,-0.50046 -1.90057,-0.6633 -3.53614,-0.36185 -2.5927,0.47784 -3.5505,9.3e-4 -7.47435,-3.72124 -2.47533,-2.34812 -5.0972,-4.26931 -5.8264,-4.26931 -0.72919,0 -1.77949,-0.84773 -2.33401,-1.88386 -0.86754,-1.621 -0.64321,-2.02321 1.60764,-2.88254 2.4184,-0.92329 2.49044,-1.09079 0.9544,-2.21909 -1.27589,-0.93721 -1.46704,-1.73679 -0.82371,-3.44559 0.88628,-2.3541 0.37421,-8.31892 -0.71416,-8.31892 -0.35352,0 -1.21327,1.58203 -1.91054,3.51562 -0.69729,1.9336 -3.10235,6.25332 -5.34459,9.59937 -3.79546,5.6639 -4.0768,6.51539 -4.0768,12.33854 0,5.83353 0.19427,6.41826 2.88443,8.68189 3.5136,2.9565 10.33943,3.23344 16.64253,0.67523 z m 87.93847,-0.81178 c 2.04651,-2.20824 2.30139,-3.15051 1.83852,-6.79688 -0.29556,-2.32829 -0.70639,-5.7098 -0.91295,-7.51449 -0.40518,-3.54004 -4.23166,-12.43795 -6.6433,-15.44805 -1.14569,-1.42999 -1.84252,-1.62919 -3.04524,-0.87052 -2.29927,1.45034 -3.56946,5.94046 -2.26937,8.02222 1.47024,2.35425 1.36134,2.67135 -0.91743,2.67135 -1.62807,0 -1.86604,0.37871 -1.32542,2.10937 1.13582,3.636 0.74182,4.86905 -2.73317,8.5536 -2.36617,2.50889 -3.86082,3.39723 -4.98806,2.96467 -0.88524,-0.3397 -3.61698,-0.83421 -6.07052,-1.09892 -6.06682,-0.65452 -5.89043,1.18446 0.46184,4.81503 6.40432,3.66032 11.07541,4.9512 18.32506,5.06421 5.28833,0.0824 6.15195,-0.17535 8.28004,-2.47159 z m 24.72207,1.31976 c 4.89844,-0.13358 9.11719,-0.64664 9.375,-1.14013 0.27314,-0.52282 -3.56073,-1.20379 -9.18713,-1.63183 -8.72712,-0.66393 -9.87381,-0.56317 -11.92134,1.04741 -2.53947,1.99755 -2.12509,3.18257 0.85703,2.45085 1.08361,-0.26587 5.978,-0.59271 10.87644,-0.7263 z m -135.43377,-4.14676 c -0.35334,-1.93359 -1.28454,-4.51181 -2.06934,-5.72937 l -1.42689,-2.21374 -16.08188,0.42613 c -15.50373,0.41081 -19.87256,1.01237 -18.89067,2.6011 0.25392,0.41086 2.88823,1.03235 5.854,1.38107 2.96576,0.34873 10.66574,2.04389 17.11105,3.76702 6.44531,1.72314 12.71492,3.16682 13.93246,3.20819 2.05508,0.0699 2.16768,-0.17669 1.57127,-3.4404 z m -97.70718,-4.92687 c 6.09279,-1.0285 12.46478,-1.87 14.15998,-1.87 1.92999,0 3.96496,-0.81814 5.44366,-2.18855 2.2518,-2.08689 6.6731,-3.62734 13.84981,-4.82548 5.30003,-0.88484 10.4602,-5.09631 13.71396,-11.19266 1.61297,-3.02216 4.07674,-6.17371 5.47501,-7.00344 2.43446,-1.44461 2.60837,-1.41401 4.09856,0.72105 3.50476,5.02141 6.56,7.50051 10.05067,8.15536 4.2619,0.79954 11.75547,-0.94173 12.90686,-2.99915 1.34296,-2.39975 6.40542,-7.85463 7.28956,-7.85463 1.38096,0 0.95989,1.88647 -1.05159,4.71133 -2.01224,2.82594 -1.98963,2.8708 2.70226,5.36185 3.34483,1.77586 8.93898,1.47807 10.79676,-0.57475 2.75796,-3.04751 8.08045,-12.46641 8.08045,-14.29951 0,-2.10625 0.20122,-2.09209 -6.42718,-0.45255 -3.51923,0.87048 -14.24067,1.51377 -32.01032,1.92066 -14.69531,0.33649 -40.90382,1.57553 -58.24114,2.75343 -29.08351,1.97595 -31.87607,2.31694 -36.09375,4.40746 -4.67395,2.31668 -7.15014,5.74442 -8.33793,11.54205 -0.74846,3.65326 -2.6611,1.78116 -2.48851,-2.43575 0.248,-6.05998 -0.71258,-8.01045 -5.4386,-11.04313 -5.55864,-3.56696 -12.45828,-11.12006 -15.05154,-16.47702 l -1.93117,-3.98927 -10.03681,-0.60549 c -15.277757,-0.92165 -25.949816,-2.94484 -33.226879,-6.29905 -3.5592,-1.64054 -6.983921,-3.7147 -7.610491,-4.60926 -0.626568,-0.89455 -5.400475,-5.39242 -10.60868,-9.99526 C 41.263883,138.65123 38.374887,136.72153 32.715579,134.62383 14.779906,127.9757 3.75,128.44664 3.75,135.86057 c 0,7.71621 19.612857,24.80434 40.474109,35.26394 4.641427,2.32716 9.976762,5.27616 11.856301,6.55335 1.879538,1.27717 4.057691,2.32862 4.840342,2.33655 3.135751,0.0318 21.031377,7.58399 27.427118,11.5747 10.697261,6.67469 28.17606,15.39766 36.118,18.02505 8.72582,2.88671 25.67265,6.72796 30.22163,6.85019 1.80469,0.0485 8.26626,-0.75334 14.35905,-1.78185 z m 161.04793,-4.83606 c 3.1343,-1.0731 4.55034,-2.30257 4.57867,-3.9754 0.0159,-0.93958 -23.84727,-0.11895 -26.53524,0.91252 -0.91006,0.34923 -1.48877,1.11032 -1.28601,1.69132 0.24482,0.70155 2.91855,0.95291 7.96001,0.74835 4.20286,-0.17054 8.34527,0.13059 9.28035,0.67461 2.14932,1.25046 2.20104,1.25002 6.00222,-0.0514 z m 13.90258,-3.04885 c 0.87985,-1.06014 0.7142,-1.45038 -0.8227,-1.93817 -2.55484,-0.81088 -5.67436,0.24604 -5.67436,1.92251 0,1.77396 5.02775,1.78609 6.49706,0.0157 z M 142.03125,186.82852 c 4.92496,-1.73784 61.39866,-5.77912 96.03408,-6.87225 21.8647,-0.69007 26.91668,-1.099 28.09151,-2.27383 0.78785,-0.78784 1.02563,-1.43666 0.52843,-1.44181 -1.49541,-0.0155 -23.9551,-2.70548 -29.56535,-3.54103 -2.8731,-0.4279 -6.68316,-1.67992 -8.46681,-2.78228 -3.88726,-2.40246 -24.15978,-5.70462 -39.74686,-6.47432 -5.67188,-0.28008 -21.00327,0.16612 -34.06976,0.99154 -13.06649,0.82542 -27.19931,1.25043 -31.40625,0.94447 -5.94746,-0.43254 -8.05451,-0.24903 -9.47191,0.82494 -1.69104,1.28132 -1.71623,1.54206 -0.34821,3.60427 2.76143,4.1627 13.27742,15.05753 16.63595,17.23525 3.51588,2.27975 4.78064,2.25668 11.78518,-0.21495 z m 184.2044,-1.90665 c 0.008,-1.25638 -0.55431,-2.10937 -1.3919,-2.10937 -1.46045,0 -1.84448,2.45462 -0.80704,5.15818 0.47801,1.24565 0.75957,1.30857 1.3919,0.31105 0.43597,-0.68776 0.79914,-2.1997 0.80704,-3.35986 z m -18.07738,-1.51375 c -0.2001,-0.5854 -1.27381,-0.93238 -2.38604,-0.77106 -2.06522,0.29954 -2.77668,-1.12262 -1.08473,-2.16831 1.68033,-1.0385 0.98761,-3.14119 -1.17188,-3.55713 -1.5254,-0.2938 -1.26586,-0.44163 0.9375,-0.53395 1.94703,-0.0816 3.04688,0.3142 3.04688,1.09644 0,0.67327 1.00431,2.58537 2.23179,4.24914 1.57323,2.13239 2.37958,2.63986 2.73267,1.71976 0.28662,-0.74693 2.55608,-1.5779 5.30543,-1.94262 6.86031,-0.91006 8.48011,-2.86496 8.48011,-10.23446 0,-3.25686 -0.45308,-8.37253 -1.00686,-11.36814 -0.71747,-3.88117 -0.71747,-5.73597 0,-6.45343 1.84081,-1.84081 1.04633,-2.50696 -2.97752,-2.49654 -5.71579,0.0148 -11.06281,1.02987 -10.4708,1.98776 0.27918,0.45172 1.53249,0.56407 2.78515,0.24967 1.53629,-0.38558 2.44825,-0.12682 2.80201,0.79507 0.33457,0.87185 1.35608,1.20774 2.82124,0.92765 2.99091,-0.57174 2.96017,0.51122 -0.047,1.65453 -2.84196,1.08051 -3.36681,4.7795 -0.57456,4.04931 0.97306,-0.25446 2.07515,0.0323 2.44908,0.63742 0.48229,0.78035 -0.28977,1.01653 -2.6564,0.81264 -3.86551,-0.33303 -5.56304,0.79214 -3.19469,2.11753 0.89805,0.50257 1.63282,1.54158 1.63282,2.30892 0,0.90178 0.74594,1.29972 2.10937,1.12529 1.16016,-0.14843 2.20668,0.15201 2.3256,0.66764 0.11892,0.51562 -0.63242,0.9375 -1.66966,0.9375 -2.20259,0 -3.66817,1.94858 -3.68846,4.90402 -0.0174,2.54523 -3.58568,3.72806 -6.51579,2.15991 -2.36351,-1.26492 -1.72145,-2.83936 1.16615,-2.85953 1.12972,-0.007 2.67256,-0.40556 3.42853,-0.88368 1.10451,-0.69857 0.87949,-1.05751 -1.1457,-1.82748 -2.67867,-1.01843 -2.89388,-1.55797 -4.7089,-11.80574 -1.28507,-7.25558 -2.09217,-7.85365 -8.88004,-6.58024 -3.10372,0.58226 -3.24474,0.77424 -2.76051,3.75817 0.33947,2.09189 0.10706,3.29929 -0.69425,3.60679 -1.18288,0.45391 -2.35932,5.86772 -2.88529,13.27778 -0.1464,2.0625 -0.55232,4.45532 -0.90206,5.31737 -0.67338,1.65983 0.89567,5.46388 2.25369,5.46388 1.23263,0 2.00088,-2.72152 1.42074,-5.03297 -0.28595,-1.13931 -0.005,-3.32062 0.62546,-4.84737 1.14508,-2.7752 1.14555,-2.77461 1.8411,2.28147 1.03844,7.54865 2.17423,9.16372 6.12034,8.70303 1.90186,-0.22204 3.1171,-0.82686 2.90545,-1.44604 z m 34.38267,-0.36125 c 0.74294,-1.41796 1.60017,-2.47265 1.90493,-2.34375 2.62936,1.11213 8.05413,-5.55314 8.05413,-9.8959 0,-1.0052 0.63281,-2.35282 1.40625,-2.99472 1.94081,-1.61074 1.75916,-3.39649 -0.50697,-4.98375 l -1.91322,-1.34007 1.91322,-0.50033 c 1.48448,-0.3882 1.91322,-1.266 1.91322,-3.91717 0,-3.01281 -0.38445,-3.57749 -3.25114,-4.77527 -3.44175,-1.43805 -17.90526,-1.88585 -19.90249,-0.61618 -0.66464,0.42251 -0.80802,1.22218 -0.35157,1.96073 0.53934,0.87266 0.96341,0.93562 1.41209,0.20963 0.82441,-1.33392 8.51236,-1.34747 10.99393,-0.0194 1.58554,0.84855 1.79669,1.5826 1.26716,4.40525 -0.34948,1.86287 -1.23337,4.24072 -1.9642,5.28413 -0.73082,1.04344 -1.32878,3.40639 -1.32878,5.25104 0,3.15543 -1.31077,5.6039 -3,5.6039 -0.4125,0 -0.75,-0.79209 -0.75,-1.76021 0,-0.96811 -0.61718,-2.27243 -1.37153,-2.89847 -1.20188,-0.99748 -1.19475,-1.40806 0.0577,-3.31946 0.88217,-1.34638 1.3174,-3.73549 1.13715,-6.24216 -0.27508,-3.8254 -0.46875,-4.07799 -3.3389,-4.35472 -3.77511,-0.36399 -4.2822,2.21426 -0.70312,3.57502 3.09928,1.17834 2.95837,2.44652 -0.46875,4.21875 -1.79622,0.92886 -2.8355,2.20792 -2.87616,3.5397 -0.035,1.14692 -0.23461,3.7728 -0.44355,5.8353 -0.20895,2.0625 -0.4967,5.4375 -0.63947,7.5 l -0.25957,3.75 4.45312,-0.28133 c 2.66395,-0.1683 4.45313,0.11421 4.45313,0.70313 0,1.99161 2.79333,0.90675 4.10344,-1.59368 z m 224.98296,-6.80659 c 7.72159,-0.75092 10.49872,-1.49988 16.875,-4.55099 7.88894,-3.77494 10.01251,-5.6053 18.86525,-16.26044 4.17614,-5.0264 6.58598,-6.9555 11.99651,-9.60333 3.72383,-1.82239 9.51278,-3.8435 12.86434,-4.49135 5.07611,-0.98121 6.09375,-1.49104 6.09375,-3.05292 0,-1.66788 -0.72491,-1.90811 -6.5625,-2.17475 -7.43358,-0.33954 -27.63904,1.4902 -29.0625,2.6318 -0.51563,0.41352 -4.3125,0.94472 -8.4375,1.18043 -8.59184,0.49095 -29.52242,3.87936 -36.78969,5.9558 -2.70308,0.77234 -7.55464,1.5944 -10.78125,1.8268 -3.22661,0.2324 -9.4525,1.01672 -13.83531,1.74295 -4.38281,0.72621 -11.70456,1.85569 -16.27054,2.50994 -4.56599,0.65424 -8.79214,1.6799 -9.39146,2.27921 -1.64787,1.64787 -5.51748,2.29814 -18.72639,3.14689 -8.04564,0.51698 -12.29059,1.17188 -12.7854,1.9725 -0.78674,1.27297 -0.17725,8.49098 0.80786,9.56716 0.68498,0.7483 55.65185,7.14248 65.27218,7.59298 14.0159,0.65632 20.96746,0.59286 29.86765,-0.27268 z m -290.9614,-5.65241 c 0,-1.03081 -2.14956,-1.59965 -8.90625,-2.35686 -8.1982,-0.91876 -28.89088,-6.7763 -24.45312,-6.92201 0.98827,-0.0324 1.57949,-0.27638 1.3138,-0.54207 -0.94431,-0.94432 -16.83801,-5.32084 -17.37456,-4.78429 -0.87136,0.87136 4.61726,8.2032 6.72445,8.9827 1.05293,0.3895 5.50037,1.21448 9.88318,1.83327 4.38281,0.61879 13.03125,2.06795 19.21875,3.22035 10.9692,2.04299 13.59375,2.15283 13.59375,0.56891 z m 108.20446,-1.80045 c 3.13598,-0.49503 10.25422,-1.16962 15.81831,-1.49908 8.8786,-0.52571 10.4503,-0.87986 12.84421,-2.89421 1.7402,-1.46427 2.52236,-2.83027 2.16052,-3.77321 -0.33236,-0.86612 0.075,-1.8374 0.98392,-2.34606 0.85309,-0.47742 1.55108,-1.53474 1.55108,-2.34962 0,-1.81837 -3.94839,-1.38077 -16.23927,1.79977 -7.72435,1.99885 -9.75844,3.52499 -4.69823,3.52499 1.31944,0 2.1875,0.55804 2.1875,1.40625 0,1.07074 -1.17428,1.40754 -4.92188,1.41168 -9.41909,0.0104 -21.11152,2.75719 -19.92296,4.68032 0.72538,1.17369 2.99486,1.18237 10.2368,0.0392 z m 82.97111,-1.354 c 1.48413,-1.78826 0.30856,-5.99215 -2.02486,-7.24096 -2.72149,-1.4565 -21.82345,-0.41433 -32.85779,1.79267 -5.0467,1.00941 -9.44826,2.10772 -9.78125,2.4407 -1.7587,1.7587 2.64283,2.78767 14.45758,3.37984 22.94855,1.15019 29.00476,1.07556 30.20632,-0.37225 z m -325.82612,-4.80104 c 20.75335,-0.56959 28.28647,-1.49151 30.53146,-3.73651 1.21526,-1.21525 1.21724,-2.02489 0.0164,-6.69274 l -1.36608,-5.31025 -8.4375,-3.049 c -11.49247,-4.15297 -22.67257,-7.61613 -27.1875,-8.42164 -2.0625,-0.36797 -4.43125,-1.01971 -5.26389,-1.4483 -2.05913,-1.05992 -17.71656,-5.06228 -25.20486,-6.44288 -10.695318,-1.97187 -23.745995,-4.73264 -29.062499,-6.14793 -12.746337,-3.39316 -33.249804,-4.22864 -46.40625,-1.89096 -8.702958,1.54636 -14.817615,3.86748 -14.297653,5.42737 0.199862,0.59959 3.709533,2.00201 7.799269,3.11651 11.448905,3.11995 14.99421,5.19973 27.106372,15.90146 15.501324,13.69621 20.596702,16.14086 37.176489,17.83638 17.644052,1.80437 21.036972,2.00477 28.465522,1.68131 3.60938,-0.15717 15.36819,-0.52743 26.1307,-0.82282 z M 223.125,162.375 c 0,-2.2341 -1.79538,-3.93435 -4.17188,-3.95082 -1.81261,-0.0126 -6.98188,-1.25247 -29.01113,-6.95872 -12.19557,-3.15903 -13.69348,-3.13985 -13.68676,0.17516 0.003,1.41797 0.42636,4.09418 0.94108,5.94713 l 0.93585,3.369 14.2933,0.67203 c 7.86131,0.36961 16.19173,1.0156 18.51204,1.43553 2.32031,0.41992 6.01172,0.81631 8.20313,0.88084 3.25526,0.0959 3.98437,-0.19145 3.98437,-1.57015 z m 49.45782,0.51562 c -0.21227,-0.64453 -1.3874,-1.31786 -2.6114,-1.49628 -1.94299,-0.28324 -2.06784,-0.13451 -0.98365,1.17187 1.46822,1.76909 4.15054,2.01115 3.59505,0.32441 z m 116.01093,-0.70312 c 0.34549,-0.55901 -0.78996,-0.9375 -2.8125,-0.9375 -2.02254,0 -3.15799,0.37849 -2.8125,0.9375 0.31867,0.51562 1.5843,0.9375 2.8125,0.9375 1.2282,0 2.49383,-0.42188 2.8125,-0.9375 z m -123.56761,-1.48468 c 0.47527,-1.42579 -12.55197,-5.67208 -21.18584,-6.90564 -4.33315,-0.61909 -9.93862,-1.93766 -12.45658,-2.93015 -5.39479,-2.12643 -8.25872,-2.30435 -8.25872,-0.51307 0,2.19092 2.07247,3.1356 9.375,4.27336 3.86719,0.60252 9.35156,1.55723 12.1875,2.12157 2.83594,0.56435 6.12562,1.14022 7.31039,1.27971 1.18479,0.13949 2.66135,0.6724 3.28125,1.18425 1.31272,1.08388 7.28367,2.89048 8.56852,2.59252 0.48339,-0.11209 1.01371,-0.60825 1.17848,-1.10255 z M 428.4375,159.375 c 0,-0.51563 -0.42188,-0.9375 -0.9375,-0.9375 -0.51563,0 -0.9375,0.42187 -0.9375,0.9375 0,0.51562 0.42187,0.9375 0.9375,0.9375 0.51562,0 0.9375,-0.42188 0.9375,-0.9375 z m -210.46875,-6.09375 c 0,-1.39783 -0.71575,-1.94429 -2.8125,-2.14727 -4.56863,-0.44227 -7.96875,-2.15108 -7.96875,-4.00489 0,-2.34528 1.42427,-3.02056 2.82107,-1.33752 1.4977,1.80462 3.74143,1.79844 3.74143,-0.0103 0,-0.82349 -0.87414,-1.42001 -2.10938,-1.43948 -1.16015,-0.0183 -3.16406,-0.63613 -4.45312,-1.37302 -1.28906,-0.73689 -4.05475,-1.35476 -6.14599,-1.37303 -2.55548,-0.0223 -4.85474,-0.80973 -7.01207,-2.40136 -1.7654,-1.30247 -6.17159,-3.23527 -9.79151,-4.2951 -8.5373,-2.49952 -13.22993,-4.06315 -21.953,-7.31492 -7.11817,-2.6535 -15.57869,-5.33097 -31.50368,-9.96982 -4.64062,-1.35179 -12.23437,-3.6464 -16.875,-5.09914 -4.64062,-1.45273 -11.8125,-3.33905 -15.9375,-4.19182 -4.125,-0.85278 -8.765625,-1.91713 -10.3125,-2.36524 -11.103447,-3.21649 -17.870201,-3.99127 -30.336846,-3.47354 -7.033485,0.2921 -14.92592,1.14461 -17.538746,1.89447 -9.418461,2.70304 -23.843158,11.64204 -23.843158,14.77563 0,0.33698 2.636719,0.0198 5.859375,-0.70494 12.445044,-2.7986 19.542495,-3.28458 32.578125,-2.23073 15.655003,1.26562 30.173098,3.8179 47.59007,8.36635 4.26048,1.11262 10.5886,2.61092 14.0625,3.32956 10.00686,2.07007 24.53608,6.21036 54.59743,15.55824 6.44531,2.00423 13.40625,4.0555 15.46875,4.55837 2.0625,0.50286 9.23437,2.39722 15.9375,4.2097 13.58858,3.67424 15.9375,3.82749 15.9375,1.03981 z m 55.52049,1.29201 c 1.53432,-1.53432 0.37913,-3.64709 -1.94892,-3.56444 -1.10498,0.0392 -3.48563,0.61874 -5.29032,1.28779 l -3.28125,1.21646 3.28125,0.97141 c 4.43555,1.31314 5.99574,1.33228 7.23924,0.0888 z m 60.51043,-7.09937 c 1.34531,-0.77891 -0.2447,-1.98716 -2.00815,-1.526 -0.96614,0.25265 -3.48277,-0.37462 -5.59253,-1.39395 -3.24694,-1.56875 -4.00233,-1.65279 -4.91974,-0.54738 -0.68053,0.81999 -2.95982,1.30594 -6.12529,1.30594 -4.7569,0 -5.04146,-0.13272 -5.04146,-2.35134 0,-1.86816 -0.7706,-2.65967 -3.75,-3.8518 -2.0625,-0.82524 -3.75,-2.08745 -3.75,-2.8049 0,-1.67626 1.05516,-1.6535 3.33644,0.072 2.80271,2.11985 3.22606,1.76166 3.22606,-2.72954 0,-3.24182 -0.46206,-4.48921 -2.0836,-5.625 -1.14598,-0.80266 -2.42204,-1.4594 -2.83571,-1.4594 -0.89021,0 -2.6383,4.27322 -2.97283,7.26712 -0.12972,1.16099 -0.51644,2.39145 -0.85936,2.73438 -0.34293,0.34292 -0.6235,2.46487 -0.6235,4.71542 0,2.77243 -0.45346,4.26593 -1.40625,4.63155 -0.77344,0.2968 -1.40625,1.16346 -1.40625,1.92592 0,1.19846 2.44515,1.29596 18.04687,0.71961 9.92579,-0.36666 18.37017,-0.85385 18.7653,-1.08261 z m 22.72017,0.64936 c 0.31926,-0.51659 -0.54042,-1.36543 -1.91039,-1.88629 -1.36999,-0.52088 -2.74265,-1.89117 -3.05036,-3.04512 -0.55403,-2.07775 -0.56492,-2.07537 -1.12341,0.24566 -0.51606,2.14463 -0.99842,2.34375 -5.67794,2.34375 -4.90891,0 -5.1261,-0.10567 -5.41611,-2.63482 -0.16616,-1.44915 0.1596,-3.19114 0.72392,-3.87111 0.79497,-0.95788 0.49355,-1.33808 -1.33851,-1.6883 -1.95758,-0.37421 -2.36454,-0.0912 -2.36454,1.64455 0,1.1531 -0.26367,3.41491 -0.58594,5.02624 l -0.58594,2.92969 5.50782,0.0695 c 4.62348,0.0583 7.31355,0.36953 14.5931,1.68816 0.35629,0.0645 0.90902,-0.30531 1.2283,-0.8219 z m -33.28234,-10.0506 c 0,-3.45424 -0.0152,-3.46818 -1.48762,-1.36598 -1.17854,1.68261 -1.25208,2.40768 -0.35396,3.48985 1.64332,1.98007 1.84158,1.75141 1.84158,-2.12387 z m -4.97875,-4.71328 C 318.22294,132.45703 318.03,133.19531 318.03,135 c 0,1.80469 0.19294,2.54297 0.42875,1.64062 0.2358,-0.90234 0.2358,-2.3789 0,-3.28125 z m 21.93043,-0.23437 c 1.66009,0 0.84065,-2.75732 -1.1334,-3.81381 -1.51652,-0.81162 -2.16272,-0.79466 -2.6976,0.0708 -1.10564,1.78898 0.0548,4.8618 1.61045,4.2648 0.74785,-0.28698 1.74709,-0.52178 2.22055,-0.52178 z m 41.26306,-3.38938 c 1.08737,-1.31019 1.01851,-1.4682 -0.51065,-1.17188 -0.9721,0.18838 -1.94305,0.86985 -2.15766,1.51438 -0.55683,1.6724 1.18125,1.4493 2.66831,-0.3425 z m -48.83974,-2.64904 c 0,-1.25863 -0.42188,-2.54915 -0.9375,-2.86783 -0.54696,-0.33804 -0.9375,0.61526 -0.9375,2.28842 0,1.5773 0.42187,2.86783 0.9375,2.86783 0.51562,0 0.9375,-1.02979 0.9375,-2.28842 z M 315,124.6875 c 0,-0.51563 -0.42188,-0.9375 -0.9375,-0.9375 -0.51563,0 -0.9375,0.42187 -0.9375,0.9375 0,0.51563 0.42187,0.9375 0.9375,0.9375 0.51562,0 0.9375,-0.42187 0.9375,-0.9375 z m 7.17649,-1.36582 c -0.30533,-0.79567 -1.00511,-1.44668 -1.55505,-1.44668 -0.69334,0 -0.67907,0.59949 0.0465,1.9553 1.16372,2.17442 2.38065,1.76413 1.50851,-0.50862 z m 52.52643,-1.62246 c -0.29927,-0.74787 -0.52142,-0.52573 -0.5664,0.56641 -0.0407,0.98827 0.18087,1.54199 0.49239,1.23047 0.31152,-0.31153 0.34482,-1.12013 0.074,-1.79688 z M 264.375,120.03298 c 0,-0.83212 -2.93493,-2.84548 -4.14794,-2.84548 -0.28667,0 0.20123,0.84375 1.08422,1.875 1.7225,2.01174 3.06372,2.4366 3.06372,0.97048 z m 38.54828,-9.08271 c 14.08599,-0.9231 12.80232,-2.51661 -1.6235,-2.01536 -8.83711,0.30707 -12.91024,0.0789 -15.16917,-0.84989 -2.95776,-1.21606 -4.88061,-0.99139 -4.88061,0.57026 0,0.62336 1.49653,1.19728 8.90625,3.41551 0.51562,0.15436 1.4998,0.10297 2.18706,-0.1142 0.68725,-0.21717 5.44824,-0.67001 10.57997,-1.00632 z m 55.67047,-0.0939 6.5625,-0.69284 -7.03125,-0.52325 c -8.04507,-0.59869 -14.25833,-0.0906 -13.51907,1.10559 0.61478,0.99473 5.26451,1.03146 13.98782,0.1105 z m -35.625,-14.29384 c 0.31867,-0.515625 -0.28924,-0.9375 -1.35092,-0.9375 -1.06168,0 -1.93033,0.421875 -1.93033,0.9375 0,0.515625 0.60791,0.9375 1.35092,0.9375 0.74301,0 1.61166,-0.421875 1.93033,-0.9375 z m -32.25538,-4.810239 c 4.78488,-2.550317 6.10328,-2.856149 10.05353,-2.33213 6.04452,0.801832 8.16577,-1.214745 7.21257,-6.856652 -0.35344,-2.09201 -1.06443,-4.064348 -1.57998,-4.382976 -1.13679,-0.702573 -7.69121,2.071935 -11.55574,4.891587 -1.54688,1.128635 -5.44922,3.42452 -8.67188,5.101967 -3.97212,2.067555 -5.85937,3.607692 -5.85937,4.781673 0,2.651326 4.04712,2.183036 10.40087,-1.203469 z M 343.125,93.75 c 0,-0.515625 -0.44678,-0.9375 -0.99283,-0.9375 -0.54606,0 -0.73209,0.421875 -0.41342,0.9375 0.31867,0.515625 0.76545,0.9375 0.99283,0.9375 0.22738,0 0.41342,-0.421875 0.41342,-0.9375 z m 26.85995,-2.3783 c 1.92553,-2.633328 1.60761,-3.200599 -2.91487,-5.201109 -2.29896,-1.016937 -4.43323,-2.25884 -4.74283,-2.759783 C 362.01765,82.909863 361.04161,82.5 360.15828,82.5 c -0.88334,0 -3.1826,-1.299502 -5.10945,-2.887782 -1.92686,-1.588281 -3.93709,-2.743216 -4.46717,-2.566523 -0.90133,0.300445 -2.18435,14.437226 -1.42227,15.671144 0.19172,0.310426 4.67126,0.524027 9.95454,0.47467 8.19175,-0.07653 9.7922,-0.344444 10.87102,-1.819809 z M 346.40625,78.75 c 0.31867,-0.515625 0.13264,-0.9375 -0.41342,-0.9375 -0.54606,0 -0.99283,0.421875 -0.99283,0.9375 0,0.515625 0.18604,0.9375 0.41342,0.9375 0.22738,0 0.67416,-0.421875 0.99283,-0.9375 z"
     id="path4208"
     inkscape:connector-curvature="0" />
</svg>
